<mxfile host="app.diagrams.net" agent="Mozilla/5.0 (Windows NT 10.0; Win64; x64) AppleWebKit/537.36 (KHTML, like Gecko) Chrome/129.0.0.0 Safari/537.36 Edg/129.0.0.0" version="24.7.17">
  <diagram name="Page-1" id="fHeDgtvwBm7BcnJC7Tzt">
    <mxGraphModel dx="4207" dy="1267" grid="1" gridSize="10" guides="1" tooltips="1" connect="1" arrows="1" fold="1" page="1" pageScale="1" pageWidth="850" pageHeight="1100" math="0" shadow="0">
      <root>
        <mxCell id="0" />
        <mxCell id="1" parent="0" />
        <mxCell id="vH7muHAw4CBqpfFADn8X-34" value="" style="rounded=0;whiteSpace=wrap;html=1;" parent="1" vertex="1">
          <mxGeometry x="460" y="854" width="200" height="126" as="geometry" />
        </mxCell>
        <mxCell id="vH7muHAw4CBqpfFADn8X-20" value="" style="rounded=0;whiteSpace=wrap;html=1;" parent="1" vertex="1">
          <mxGeometry x="180" y="610" width="270" height="100" as="geometry" />
        </mxCell>
        <mxCell id="vH7muHAw4CBqpfFADn8X-1" value="Java SE" style="ellipse;whiteSpace=wrap;html=1;aspect=fixed;fillColor=#f8cecc;strokeColor=#b85450;" parent="1" vertex="1">
          <mxGeometry x="260" y="315" width="100" height="100" as="geometry" />
        </mxCell>
        <mxCell id="vH7muHAw4CBqpfFADn8X-7" style="edgeStyle=orthogonalEdgeStyle;rounded=0;orthogonalLoop=1;jettySize=auto;html=1;" parent="1" source="vH7muHAw4CBqpfFADn8X-2" target="vH7muHAw4CBqpfFADn8X-1" edge="1">
          <mxGeometry relative="1" as="geometry">
            <Array as="points">
              <mxPoint x="150" y="365" />
            </Array>
          </mxGeometry>
        </mxCell>
        <mxCell id="vH7muHAw4CBqpfFADn8X-8" style="edgeStyle=orthogonalEdgeStyle;rounded=0;orthogonalLoop=1;jettySize=auto;html=1;entryX=0;entryY=0.5;entryDx=0;entryDy=0;" parent="1" source="vH7muHAw4CBqpfFADn8X-2" target="vH7muHAw4CBqpfFADn8X-20" edge="1">
          <mxGeometry relative="1" as="geometry">
            <Array as="points">
              <mxPoint x="150" y="660" />
            </Array>
          </mxGeometry>
        </mxCell>
        <mxCell id="vH7muHAw4CBqpfFADn8X-2" value="Variantes del lenguaje Java" style="text;html=1;align=center;verticalAlign=middle;whiteSpace=wrap;rounded=0;fontStyle=1" parent="1" vertex="1">
          <mxGeometry x="40" y="490" width="160" height="30" as="geometry" />
        </mxCell>
        <mxCell id="vH7muHAw4CBqpfFADn8X-9" value="extends" style="edgeStyle=orthogonalEdgeStyle;rounded=0;orthogonalLoop=1;jettySize=auto;html=1;dashed=1;" parent="1" edge="1">
          <mxGeometry relative="1" as="geometry">
            <mxPoint x="305.25" y="600" as="sourcePoint" />
            <mxPoint x="306.25" y="450" as="targetPoint" />
          </mxGeometry>
        </mxCell>
        <mxCell id="vH7muHAw4CBqpfFADn8X-3" value="Java EE&amp;nbsp;&lt;div&gt;(v5 - v8)&lt;/div&gt;" style="ellipse;whiteSpace=wrap;html=1;aspect=fixed;fillColor=#ffe6cc;strokeColor=#d79b00;" parent="1" vertex="1">
          <mxGeometry x="265" y="615" width="90" height="90" as="geometry" />
        </mxCell>
        <mxCell id="vH7muHAw4CBqpfFADn8X-4" value="(Standard Edition)" style="text;html=1;align=center;verticalAlign=middle;whiteSpace=wrap;rounded=0;" parent="1" vertex="1">
          <mxGeometry x="255" y="415" width="110" height="20" as="geometry" />
        </mxCell>
        <mxCell id="vH7muHAw4CBqpfFADn8X-5" value="(Enterprise Editions)" style="text;html=1;align=center;verticalAlign=middle;whiteSpace=wrap;rounded=0;" parent="1" vertex="1">
          <mxGeometry x="240" y="720" width="140" height="20" as="geometry" />
        </mxCell>
        <mxCell id="vH7muHAw4CBqpfFADn8X-11" value="Proporciona las funcionalidades básicas del lenguaje de programación Java, como las bibliotecas fundamentales (collections, IO, networking, etc.) y herramientas de desarrollo que permiten crear aplicaciones generales de escritorio, servidores y pequeños sistemas.&amp;nbsp;&lt;br&gt;Decir la versión de Java es lo mismo que decir la versión de Java SE&lt;div&gt;&quot;Versión de Java&quot; generalmente significa la versión de Java SE.&lt;br&gt;&lt;/div&gt;" style="text;html=1;align=left;verticalAlign=middle;whiteSpace=wrap;rounded=0;" parent="1" vertex="1">
          <mxGeometry x="380" y="330" width="660" height="100" as="geometry" />
        </mxCell>
        <mxCell id="vH7muHAw4CBqpfFADn8X-12" value="Un superconjunto, extiende Java SE añadiendo APIs específicas para crear aplicaciones empresariales más complejas, especialmente orientadas a aplicaciones web y distribuidas. Estas APIs adicionales proporcionan capacidades como:" style="text;html=1;align=left;verticalAlign=middle;whiteSpace=wrap;rounded=0;" parent="1" vertex="1">
          <mxGeometry x="470" y="615" width="340" height="60" as="geometry" />
        </mxCell>
        <mxCell id="vH7muHAw4CBqpfFADn8X-13" value="&lt;div&gt;- &lt;b&gt;Servlets y JSP (JavaServer Pages)&lt;/b&gt;: Para el desarrollo de aplicaciones web.&lt;/div&gt;&lt;div&gt;- &lt;b&gt;EJB (Enterprise JavaBeans)&lt;/b&gt;: Para lógica empresarial en aplicaciones distribuidas.&lt;/div&gt;&lt;div&gt;- &lt;b&gt;JPA (Java Persistence API)&lt;/b&gt;: Para manejo de bases de datos con mapeo objeto-relacional.&lt;/div&gt;&lt;div&gt;- &lt;b&gt;JMS (Java Message Service)&lt;/b&gt;: Para mensajería asíncrona.&lt;/div&gt;&lt;div&gt;- &lt;b&gt;JAX-RS y JAX-WS&lt;/b&gt;: Para servicios web RESTful y SOAP.&lt;/div&gt;&lt;div&gt;- &lt;b&gt;CDI (Contexts and Dependency Injection)&lt;/b&gt;: Para la inyección de dependencias y el manejo de contexto.&lt;/div&gt;" style="text;html=1;align=left;verticalAlign=middle;whiteSpace=wrap;rounded=0;strokeColor=default;" parent="1" vertex="1">
          <mxGeometry x="470" y="685" width="610" height="100" as="geometry" />
        </mxCell>
        <mxCell id="vH7muHAw4CBqpfFADn8X-14" value="Base" style="dashed=1;html=1;fillColor=#F0F2F5;strokeColor=#3399FF;align=center;rounded=1;arcSize=10;fontColor=#596780;fontStyle=1;fontSize=11;shadow=0;rotation=0;" parent="1" vertex="1">
          <mxGeometry x="240" y="330" width="40" height="20" as="geometry" />
        </mxCell>
        <mxCell id="vH7muHAw4CBqpfFADn8X-17" value="Jakarta EE&amp;nbsp;&lt;div&gt;(&amp;gt; v8)&lt;/div&gt;" style="ellipse;whiteSpace=wrap;html=1;aspect=fixed;fillColor=#ffe6cc;strokeColor=#d79b00;" parent="1" vertex="1">
          <mxGeometry x="361" y="620" width="80" height="80" as="geometry" />
        </mxCell>
        <mxCell id="vH7muHAw4CBqpfFADn8X-18" value="" style="shape=image;verticalLabelPosition=bottom;labelBackgroundColor=default;verticalAlign=top;aspect=fixed;imageAspect=0;image=data:image/png,iVBORw0KGgoAAAANSUhEUgAAAMwAAACnCAYAAABdEbNrAAAAAXNSR0IArs4c6QAAAARnQU1BAACxjwv8YQUAAAAJcEhZcwAADsMAAA7DAcdvqGQAACnRSURBVHhe7Z17sCVFfcePKZOqlAngqiDEKsAoImqAQlCeC5gIWsAixAIlBlh5JAYCrLiAUYJo4vIQMBITHrJogmgZkN2lFE3cdVFRWanFoLiAEagiIKgsmFhWxT/Ifvqe793f7e2e7nnde849/anqmnOmH9Pzm378eqa7f8/baqutnhsUCoUsfmt4LBQKGZQKUyjUoFSYQqEGM8Ywzz777PBXIcU5tx4+uPKYO4b/CvOVrbfeevhritLDFAo1KBWmUKhBsMI88MADzj3zzDPDM5up8usCpT9uKN/W9SWjwtwRrDCnnnbK4Igjjhhcf+M1wzNTUAg4j3vyySeHZ7uDAqb0xwmbb+v23nvvweVXXTIMlQcyPu0vTimVbUQJVpij3jZVYFd+8XZ3FHd9+1vuuP0OLx286lWvcr+75jWv2825ceWQNy10TvdwzT9eX6vSUNHWfG3t8F9h1Ai+JVNPArfffvt05Tj6mEWDH953/+D0vzplcO7Z57lza9asGdzz/bvd7yPfcvR0WFrIL95262CnHXd2/wmz1+77DPbcc093/qGfPDhYsOCF7twhhxziwsDyG29wx5NPWuyOQH6orL945meDl+28w+DwhUcOttlmm6HvVJzffeFvu/OkTTg/3a6xb8m4V3oTsPIiX3//dx91v9etW+fyTNj169dPy+xF27xk+l4/t+JfBh8892L3GxlbecbkXOgX/y3ZgAojZznwoAOee8UrXvHcZVcuc/83bNjg/uP4Daee/u7pc3KrV692fja8HGntvsfuW5y/+bbPuDgbN26cPidIz4bFkTflQXFI109beemDs285bPhrZr75bVGelJeQzC744HnOTzKXu2H5p9z5KjkX+sXWD1z0LdnJJ5/sjlLLpI6hatC60eKhOrzg914wuPbaawcfvvxC5/+3F124hf6NivL+v7nAtaa/+t9fuTRocYnH78cefnwYciakc9ppp7nfb3/HsdPhn3j8p4OPXXmZOy9I961HHu5aeK4H/77mK+44m/hju5123tEdH3n0YddTPvXUz9w9kE9kAt9cOyXbiy/7gDsC8nzb0cfUknOhf6IVZr9993dHCicPesXKFe7/oqMWuaPUAwoEheHXG3/j/hPeLzSXLrvcqR1Sz1DrDj7k4MHNn7/JpSf1zueOtavckTHT31+8zKlYZ515tjsX0vOXLjnfVeZ937if+//zp37ujrPJdtttN/w1xdO/eHr4a+DydtutK9w9rPrybdMyRWZw8D6HuSNI7awj50L/RCsMD5eWEGjNKeRAqwdPP73RHTn/8Y//g3O0grjHH9/cY/Bf4w0KPK0qFYAegUKPjs9boRAqHAtetMAdgTGQ8FtYO66ZK/xC/Mtf/o870ljQ8By08EDXa/7rp28ebLvtS5xfFblyLswO0QoD6k3UmqPqqFD+ySFTrSGV6t719zp31ll/Pbjyiiujg20KDHzoootnqCSkLz+L7ZFUORjUg62IPrwAmCtsD8PbMRoG8kpFp1ehZ0COX1/z9cF7z3nfMOSWqOI1kXOhPyorjHoTcehbpsYGoJaewkwPgaO3+Pgnrorq1us33O3CoH9TeHhTBrHX1BQI/AAVTtcACk0M9UxzwVGLjnS9yB577uFeKQN5pXLzhg/u/u73XMU/74Kl7r+FygX06rw1ayLnQn9UVhgesgbQPEj0aoEfg1AKND0Ejlbwko9eGm35j1/0Lve6FChMX1p1h0ufHifGyhWrXBipcOSDnsm+dh4l6EE0JkEeDNKVV+5f90KhRyVTg8DgHnhxAdwrL0OayLnQH53MVlZLV+cBNomD2hbqieaCNrOVU/ce828is0I7epmtzAOs+xCbxBmVytKW1L3H/FPxCv0zo4dZvHzf4a9CoQA3nPzt4a8pOulhCoVJYUYP84NHvzf8VUhxxeozB0sO/cTwX2G+8todXz/8NUXpYQqFGpQKUyjUIEsl2/j0M4Onf/704A93efnwzBSchxcumPnm5r8e/Mnw15YsePECFz4nTBXEzwkHsXy2wVfJ/PvJzdtcQp79Z9onVc8s9Tzb+jfFV8myKsznb7zVfWhcve5L7v+31n5n8LlP/5v7+gx8jHvn4rdPC//Qvd/qjiH4cHncScdkhYnB9Vk3wkfB/Re+cXh2S1L5bINfYUL3w0fWPzvxHZX3MldQwE494Qz3UfQVe75seLY/Ys9M5wXP6IPLNk/Gbevflk7GMJ+84lr3lfq6m652bsOPHhhc+L6PDH2nYDq+/K1781GHDkPkhfH5j9u+MVh20ceG/6rJyWeX2PuhYOzzhte7hoYGZ1R53gv+b/irP2LPjJ6fws7MBcmMZ/RPV3yqE/8+qF1hqNHMwFVLjWNJM9NBpPoI+Vvnd5k5YQQFjyklFMQUdfLZFawg1bVoRWnpaPGoNPaa5I2Hyv3Q0vvgjx/Oz2ssLuEUniNh5K84HH1++sRTW4S3pK7HuVjaQJjYM7vnzvvc8ezz3zMtswMW7j/4ws23uPTb+PdF7QpDplat+YLLoHhww0NO/bAFncKTIieMhcmLtCRnLD19eCZObj77RmtzGAMChYtW8f4f/MhN8UctogUW8v/mnXe5xXvHHvbO6YJaFZf0qZh/fuypLi6L0vD/8PmXuNadOMSlAFs4x3UU3vrnXO/s089zcwJRfUNUPTOWkgNjD6EyQfpt/EOVvwtavyWjZWFCILq6BWEeecjbt3C0DCInjIVKYCtAHWL57Judd/sDd3z4/v92D5HWjzHaJ2643FVoeiDWuIDvf9OKG9yky8/e8IVkXEFLjv/Vy69w/5kZTVjOEZ7KZOEc18Hxm4oBda6n9ENUPTPN3v7qytXuCMrfc7/6ndb+ffD84bERtDZ0twjSH9iiV2o9jcW27jlhuqAqn7PJ9+661x1ZFEZLrsVhzF6mgFKpwI7hKMiglj8WVxw6XIKBDKlsu7568/y7F2/7YqfjW9QDAr9pVEgvlVeh6zWBykQZoOGkl0OF3mqr33d+jK3237Odfx9Ee5hYKy8QIoWQgW7orcRur3314I+PPnALZ8kJ05ZUPvuGMQLQ06jQsXQa9VBLqKnIoPVBoQYjFVdst9XMN15UkirUA4J+k+fc6710+22Hv5pBz8RyDcYerBt6z5KpPRzUK7X175pghUF3PePkJcN/Uw8L3V/gT62mu/7LJe8enp1JH2OYuuTks294U0dLj579ypfv4s7xIoLKi+P3Lru+cob/j9c/5o5AhWcckoor6ras6tVAvcpur9t1+tmkrtdG9aFR5hntddDr3POhsfzPe344vUaorX8fBCvMH+31Gvc2iYeF7s+gTm85pNvSFaJDou4QRoNBQatk/TjibHeeE6YO5BcHufnsEu5H1yAfZy4+18mRHXjoNXiwNDxXLfvk9H3ymhu92/qzmhI/wjCmoJCm4oq6BXj58uXT10KtQV6kh1qYc702qg/pULauvvQaV/i5Ds9MOxa19e+D6IdLWjUGjOis1FgGkWSQGk2mQtzylc+6MFUfJenSaa1ywsRAOLw98j+CUUCBbjonn21IfbiksLHTy/En/umMPPJQ6XXsqky9FgXrTxo0VJJFVVwKNG+xeCOltE5YtNipKupdkQlvwxgXKTyyZtwCpHfx5R+Ylk3d61URe2b+/bLi1GoDbf3bUvtLPzfatnDNR9rOVkauEJNtldxTceuSkxfosxxU3S+09W9K7S/9fQppkkGuVbJN+XX5XHLy0uX1QqTSb+vfFa2/wxQKk8QMlawsUS4UZuIvUZ5RYYqNy3yKjcvJoNi4LBRaUCpMoVCDLJWMDeTY69ffFyy2sVxon2TB3sOEzwlTBfFzwkGdsLnEVDKuxSbhO+ywQ+fX7Js+5BQjtSlhKi85ee3ifrINKlkwhIQRH4Exn0VvO2rauA8Gf2TgCHQ+5GQkKOQnpzAxZGQpZVQolM+usAaVgPv3DSJhTKlLw0fIJSWbpsgAln2OfZAqO/z2/TcaI1Upf5FbRlLY+oFrpJKxmTgrGdmBH8cMWAzJWpjsKH/r7AbnOWF8MIN3zpJzhv+qUT5lvIkv2nWNtOaijcW5jq7Hl35MW6g1bYs/tb4Pnnj2keGvfkiVHclR/sw2scaJU/5Qp4zUpXaFYdNsplFjqgEVDcfcHaYm2ILB5D35W2e7x5wwFgp7bPWeD90xU9vJJ+nJEgDzvfqAfQNY0cl1dD2mkXBNbFoK5Md94MijQHY8aM5x9P3ZyR++/Z27pjcuh1R6OuKveIpj0xHMRfPDW1LX41xV3KqyQ1zkiMEp+bN+SWt0Uv7AtXPLSCNsdxPDV8l86BZRPwRhZRszRk4YH7pXumS64DrdLeFRZYjTlUrjq2SoCciA9GNqDbYsyQNhpb7Jvidx+E8a+EntkL/i4qd7yE3P+utZKX2lpfA4wiq8lVfu9ZR+DrbsSI2yKhbp61zKH5qWkRi2fuBaVxjdhBUs/3ESnnW6sZwwMeoKQ9fiIabSzsWvMKSrQoijQFHAdD0VKCsnW1jkzznhN0T89gt4Kj3yAJKZlS/hdb2q6xO+yfVS+GWHI/8tCkP6KX+L7je3jMSw9QPX6rUyagI6OmMR314Ls2BZ0OM7q27lhOkCdF0WGWFv8qTFJw7Pdgt5xn6lroU6yGxpDEGhSsioLuvQpdIAs8GtamNXML7juBO28Be56cmCGflDPWQ2r+QbWoFpr89v0uMNaZPrVVFVdkaZYIVBn8RVgcDYIIEbxmCrD2s4EITvLDlhusDpyqS9SV9GB07dW10oMBov6FrX/vP1rvIA1ta0YQNjKDmg0bDsues+w18D92oaQrYsc9PzsYv2Qgv47PW1epPr514vZ31MrOzI1GLo+SDXlP9sEKwwl16xzJmeE6y4tKvYuGFWMtKShirLKMAAE7N5tvXTQ+/a+jAFioGmHdwDD5E15sgPk+vAgJfKhOM36+j5ViDUkgMVDawhXJGbXt0FXphVFLLgzPVzr7f91jsNf4WpKjuqrFaOmI5X2Uv5zwbBCkO3ypsLWk0KHqvatJkCBZAbZjERRlvpWgnD0dZ8WiCdt0ecyAlTB/KLAxlMxVYkeSZNrSjsujXSGzhUDAqE7gF7lMgRefKqnAVOvBbFjzzxOhXT41Z9YQWk4pNfWnD5U/l4S0bc3PTqrsBkMZYvL9LLvV4VxKkqOzwX/FhxqjxQ9rSCMuU/K9gBjYXBGwM6Bk4MYDWI05uSkNPAK+Qnp0FlyE/ODjxDxAZ0DLrt2xn87UC870G/BsG6HnKzeeS33i7hCC+ZadBclV/JXveYk57+A2Htm0l+cw4UnjSUnn/9utfzqSo7ug7xdQ1kqZcIIuUvSI8wVv5NsPUDVzk1Rj1GbgsyqvRxH1WzlWn9qqZkhPJDnCOOOMIt+d1jlze4c6H4obhd318qvT7k6TMKeYBas5XJTN8Zmg1m+z5QHaquV5UfVKgq/5BfVfgmpNLr+nohRiEPIVq9Vi50Bz0S+rnejBVGk7LislCooHLFZbFxmU+xcTkZ1N41plAobKZUmEKhBlkVhk3S2OnQh/M4H8LGnMKH/ORCafrkhhOEJU5fxPLT93XbMJv5Qg5Vz6utf93y0JSsMQz7BPOFdtxsXFrYRpbJlzIf0ZbQVrF8Cf/MLdfN2FSOfZaZNiPZjQoUMLZ67dvGZaqskA/2b5Y/bwqtrZmUv90qFki/apvhunQyhiGD42DjUrCnsATeJ8zcZWPsELPR+jWhLzsqIlVWqAwg/0ceftQ9L5HyJ32mbbFfNg0oq2q1IX0f1K4w1GhWzamVwI2ijUtBC8U0e1qmvqGH4YEhIx97T/jz0Lkf8idkYcDCf2txIBYX2XNOR8LIX3H8tKFPG5ecqyorxKUhY8N2+bP8gPlhkONPZSF95Iu2wZw+zaTug9oVhkxhoo3MCzJIYbGFIjR13CcnjAWzFbQyZ2TYuAQeCq0ZPRnGm/qG5bJUTHpArm3Rf6wixOxGMrGSFtPCf84DBTNlc3KUbFymyoqMTVm1GlMr9NTIK+VPuqhfHPlP3qiMLBvpi9ZvyWhFaFVH0cYl6tGCFy3o1PxBCtbxh1QzCohk5duNpNfknmkpeeBqrWlB+c9CLn7TU/pxR93GpcUvK489vOU6H0GFTPlbMKWBHOlh+jTL2KrCUKNpgRBkyMZlaDWl7YVywjRFD4cCPJtQoSlkvmpGhcA6FtgxmlY43n/fBheXB65wX719jftPQ+HbnKT1ByonhVsoPWRIXKu+ssKSFx8W38al0qt7vRRVZaUL0DxYYwOyE9QH0QoTa+UFQqRGo+6E3krMtY1LVBm6fiwQo5agcqBP89s+8D6gQEg106I1NQK+6urbiETHR8VB/hz5DxRcGEcbl7GyokVpIWg8Uv4W/lN2kBfjnlT5bUqwwtCajLuNSyxv0bqGCoy10dgXUs2QE/AAuV+/hbZ2JYHehzCfu/EWd1RvJFmhtlHocPz2bU6Omo3LqrKiCmp7YnpXlbWUP+dR4UMNoK+ydUWwwswHG5c8HB6yjlQgVizyuwuVL4VUM8E1Vfh5Vco9cs8MuFGdlCeOyFYy1nniUlCIKxmNuo1L4lSVFWSEHy8MaFDwo6xpjJPy18sAtAjdA2Mw4vg9UFcE7fSTEbpeLk4rxwPVmyn0aqDbQye1YLhUwkSHx/mQLoUWcsLUQQPaPgd9VfgqBPkgT1IRkA3fClAXeeMEPFzsSlp4jYpsFx21aHhmqiKdf9F7XVzJnbj+GK1uD8Nr2VBecq9XRU5ZIT0qIoN2KigNs31+KX/ySIWqkmeXJL/060EXZtK3jcsq2sQNkUqv6+uFaJuHvvJY+0t/n0KaZJBrU9m2iRsilV7X1wvRNg8p/65o9Vq5UJg0yorLQqGCYuOyI4qNy8mg2LgsFFpQKkyhUIMslYxN00I2LmcDNriLoc3ycsKE0GZwos4+V75KpjyEZCT5VeWlC1Kb26U2GEz5z2U5mCs6sXE5m3DdmJNdkZCfnLVnYpGtEeu0bWoOdqtYbUuKk4Ehi+TH1qp9wHaodotZu4Ur8Nv3J8+irj+/bfrzGVs/cGOhkjFpTzYNrWtjL/OhnzzoZjCwRFfuumun5n3VxbbIq7+85cwFppz0Sd92I/FnlrP8+c0m7xOJrT0xQj0MLSnn2Qzatqr89jeA5r8fJhQ3BNclbBU5YXxoJWMbWecQ6mHUCvutM+fovfweJiYH5OXLkHRCsiIcm3LbFl+9J/nQ9W16XJM40MR/zXfviPbc8w1bP3CNepijj1nkpq4zeVIr+d5/4fnOj9mktHgW/muNR1Xc2YT5TUxZ59rkSWYy2nDAQVNrS+5Yu8odARsvzG9iIZulSg7YPPGtANPKh3ovTG3cu/7eGeMKVmgy74qeT8aYrI0ZJkIyR5AxScpf9mLYwhZTHuSRCZ59GL4aB2pXGAaGbERw5RVXOqM6mKljsiTrTUC2ZbDdAYTnP+dTcWMwPRzjSL7TIBdywgjyAdZcHes1sOfSBKlkTL7kfmzBRh2zkyghJYcTTzjZFVgrQyo4JvxSEIcJrSzEg0cefdgdrdqoNTMM4FP+WvV43PHHuYmk5FF2cCaR2hWGlowWjRaHVpkWxxY8GReilYRP37Tc/ed8Km4MCpO/KhNnH3JOGMGbIGYNr1yxylnBosAyBqKgqTLVwVZKVi2SDudIi8bCH0el5IA/vdLNn7/J/aeXkgyrwDBRX3YjmVKPnO5c+w0naxqoUGM03wlWGAQREwbnUSewZcJaCtQaX93AIhTrFghrVw3mxA3Rtb1MKtHxi941ozLJmGnInmQdVDlQy2gsKFx+pc2RA72SKh69FOt5qqDFR62jsnRpN1JLFo58y9HuCOrp6IEmjWCFqbJx+cXbbnXqAW9LaG1QKXhDY6HQoFKQDsdTTppaS5MTdzZAbTlo4YEzehPsOaL3h+xJprAVgt9UEtQy1JfQmvdcGQIypJdCTYvRp91ITOvBE88+4o4gNY6eetIIVpgqG5eClphWydkp3NQSsl5eqNBotZ3fwlbFDcHAmHxYm4hOV9/kRE4YoUoh+5eEpRVncZKf1xz81plKwn0hw8MXbm54fOrIkNY+BPmnshCmD7uRUrFZeSl/esXQc50I7CszC686ebWoV6L2VSmvRzkvP15D8tu+2uQVKOf8V6E5cS0KG3J6TRvyk/Nf5Qpek1Z9rEsReq2sV636b6/Ntex/fuvaMTmQR5tuCJ6T0vGd7oc0uQbnQnYhc/ytrPhdR1bjjK0fuMqpMWo5Qy1JlV+KNnG7pmleupitnLo2vQTjknXr1nUiq9T12vrPR/ypMWV6f0P6nN6P6oO9flQfBvv+uKQwe5Tp/WMCO0wybly6ZPY/6hbilBWXhUIFxcZlRxQbl5NBsXFZKLSgVJhCoQZZKhmbpLFXbV/bb1bBFqAx2OOXvahywsRougGcr5L5eUhddxQgz7P1TPveqI976UPmvkqWVWHYr5ivyXNhp7Eve5k8gAvP/YibogJ8uWZb0twCFLJx6cNUGyYthq4/11DA2F51Pti45FuVIP0m2wzHGMsxDBMKZePQOm3uDTlhLFQWVg4qHL/Z1LoNNg/MhmaqDQ2NNkgfRcbZxiWNHpWFSoQfMid9G79rGlcYdmAnYzjtxg7aod3Cfz9MKG4VtEi+87vfnDBAq0WL9Z4lp02Hu/iyD7Q29YaJCKXHhu60dLR4VBqpFIA8uHcqEnnxwV+WCGw8iMUlnMJzJIz8FYejzzjbuLznzvvcUZoBMudDL/Pv+qJRhTlh0WL3YY1p6czIZfEVQoOUnUasQ8XixsixI5MTRsgmCsaAuDaOgtOH6iQLX7JXwrVoFUN2I0H+LNZiQii71qugVsUlfSrmJNm4lLEqa69G5cBW7i6pXWHICK0GZgZoQWUbEYEDrQktiFocwvOfGbz8pkuNxY3Bg/HtYOIQmsgJIyRoHjaFgeuHClMXyCgQlZT7p/VjXBWyG+n7Ix9mCsv+SVVcgRqI/yTYuGQpNXx15Wp3BN1fXTs5uQTtw1RBa4GAECitDbuv2NWC+POQWcNPy2DtNEJV3BjoqP4yX7DqVk4YIXN0dO+yikVLTKVjzBOK0wW+3UjlgxYTmajns+MuCjKoMsfiCq2/4R6Qu12WgTU2X96+jUsKNOml8ipC631C8LzRJqh0XfXklCmeO8+NXpKGHKNZ0NfYLNrDhFpm4DwqGd2zXS1o13LE7DTmxA3Rtb1MddtvPmLzkl89eKlOXSG1gp5GhY77RjXhCBQioAGBqkoeiysmzcYlPRsL5xi7sCSdcSlYNbBLghUG3TVm45LuDxWLtxK0fgiAtyCq2UALSUvk22nMiRui6zGMunKLun+rD3cB4zdaetJ95ct3cedidiPl/+P1j7kjUNjo/VJxxSTZuKQBJn2smZE2DST+yLsvghWmysalaj2tEBmmq/VXC9JC0lWiA3NUi5kTNwQtHGHJi444qxrkhBF05QiV15v4E44u3ea1CeRB10d2vOBAjqxeJF0eLA+bV6XKm7UbKX9WPypfjCkopKm4YpJsXJIP/l996TXT/lxPq0X7IPrhklaNASM9BIWLQaQERUHQhyT89CqPnkNdIZlnIE13aVWjnLiWqo+SqAe0fDlhfHiYFAblhQeDbURbGKpIfbiksO20847ulah9y4Nc6HWoSMB17QdT608aNFTKf1Vc7gdV18oR9Rf5qmWnNeYFB727wiMfGi3wZVD3ej5cj2cb4pavfNZdh3SoiKH7hZS/Ly87Lu2C2l/6qbmhQsR5yC1gljZxu6ZpXvq2cRmTO3Qtv5y8QFfXC9E2D/j3kb9GU2MKW1Km908GZXp/odCCGT1MWXFZKMyk2LjsiGLjcjIom2AUCi0oFaZQqEGWSsYGbnNl25A9umLIHmNOGB9tSueTu0ldTCWTrKpsRdaBe7P3mUo3tdleThpVYXLizyeKjctNcC4UFod1rRzsVrEWycrfbrUJbNFKWhzt7xChrW9tWH7nbI2r7WmtxTEIpT8J2PqBG4sKQ+FTobFODzwnjIVzFADr2FOY/YVD4UPEKgxpaJ/i3LRiEJ/KzZF7IU2OIbimKglO+RAUdpz8uV+eq4VraT9tZGJR+pIdYfz48xFbP3CNxzDs+ysTbvwW2j3eot3kRSxuDCYCog76zqoFOWEE59iVXg7zDUwBYtVlG1WD+2SKxocumlpjjlkLgaqENQRUGo7cP7+F9cfPl2EVhGU+3nvPed/0fTOfiryQLmkyBeisM8+e9mc+lta+ANdkRrHmDFqIzzIB0pfsmNbE3LlJo1GFqbLPyGzRcbBxKSgMLIpiNu3B+0wZVWoKFsMoSK4ivmmhm9goGNdQIDF9x3kmMWJQSQ2G9acgMwFT56ztlhBcr42dS9hr932cvZpLl225EIx0sWHDURWbymjX0kwKtSsMBazKPuM42Li0YCUMZPSpKVyHSYyaKYuVLisHQQuOESXdO42HhcmDFH78Rd0p+1yTvLA+BFJ2LIFKZytcjL333ttVYiZixky6z2dqVxiEOu42Li1MD6eQpsKlsOqXrSSyUynsCkUqFa08DYmQ6UBLnSn79Fh92bkEeiFmoLPLzkmLTxyenRyCFYbWMtYyc37cbVwKChcFtsocXi4rVk71CLS+FFgc0NJbWcpEHtBwgLWrGepNFC4F4xBUXCpLHTuXdSC8k+2mZ8y4KJTmfCZYYea7jUuh1Xl1C40PPQT3xb5YDz300LTjPuH6G69xR8Dui8A6MtixxfZb7zT8tRlboWJQWVBLm9i5TEGPiXpre0JtJCKVblIIVpj5buNS8NLBv68moHYywPbtWVIRuX9WMgp6VuWL88gppQ6mxjAUZCoL12pi5zIF6jTIJqjyTpptG5uxw75jtvBdQ+/keQdvvynwPp7z8tN3GvuNYNRtXELoW0Qu9jsM6cSuo4+k+nZhP/7xW3Ll/jln5aBzxA35C56V0vSdTR95c478xj6sEp4w/ncY/sfyPp+x9QNXOTVG+mmoBazyS9Em7qhQd7YyLTNjN5b07rHLG9y5ubj/trKfD8+uDrVmKyOUmGCq/FK0iTvu8MZrLu+/7bXnMu+jQO3XyoVmMGERnT/3jVdhNCkrLguFCoqNy44om2BMBmUTjEKhBaXCFAo1yFLJ2CSNTbpjOxz2CTsfxmCPXzZvywkTo+kmdTGVTLJKXXdUydkwD6rujefh3z/x+O8fR51GG/mxTzBfkueTjUseqt0qli/uZyw9PfshxiqMtkclvdAWtXMFz5C9rWMWDdhytY0tSkE6zGdjmpC2yFX5CdG3jc22jGWFYTKhNU0h1IrlhPFhj2dgr2Bgn+BY5QoRqzDsZwxM9/nMLdeNTCuKcakqA7Xkm2lCVBJgP2OQfRpfXhij8vcxZpNx1hYxf9BWGHqT++/b4H4LljVgtcHu2T2KdDboRzi0pjjtxg7aod3Cfz9MKG4VtHS+8wWdEwZ4gLSUBxy033Q4WkxZr2oK98kcPGyUUGisZSyuScPDUdBq+/dPGpKL9c+Jz3/CKL7CKgzz7fxnA5yjgqtHwdWxRQlcl5naoRWbPAMqjxymRZAPK1xHubKEaFRhaI1oSZiez+IvBMVDgnGwcclDooIwgZDCgqNAYJSpDau/vNbNAKZQKH3BuIZe2hpswjqbXZWJxQTUGSaFIhdacZnIS8WnYBOeayJb4snGD4aaKKCsPQqZwSO/WIajIggqFxNKkVXK1iSwgpNpP6i1VVD5WFGKRmCvNy7UrjDcMK3RONu4BNa3ky8KKI6C3sZMAtdh5rXW/tAaWzmkIBzxmZ7P2ABzEHXAojAFGBUH2V51zSVurRH54r4o/OQtR+VUXnJtUQKVKacCUMnJ5/EnHTs8M17UrjAIhdYIU2109fQOdtUk/hQ+reG3Ni5TcWPQWodWU9ruPCeMoBCxwIs46NoUUhoB6elNkPrFwNpWEnqdHFQoNSgn3yH1JoasdWFFGbnSK1DxQvdfBc+FBoSGLHc8VwfUONKum69RIVphYi0z51N2KmnJEAxhOarVzYkbomsbl9a+OxWZcLSmqGWx+04h9QtVSr0W0FLnpCkVyMIq0lxojFCJqGTInOsj6zr3o3EI6pJ9w5djazIHKiO9i14sjCPBCkMLNZ9tXIbsu6tQ2DFCLlI76al4kyjHfYId/Gs8ADQYgsqBrEhLhF5CxOJjFxMblciUXpyekzzZa1fBM0etbWKLMhfGsWgbdSrZqBGsMPPdxuXr99vDHa1tRHq8pg8TtROwQ2khLdKk91HlREUjT7p3YW1K4kcB1jcPSMV/8pePuQKvN2m/3vgbd57BONAoIaOQPDinZ0V4K0fgPvCL2ZrM5amnfuZeXY8z0e8w893GJfnjWwD3BxQI2W/MwX6H4eUCDUroOhRgCjItPuMUfgOVgziM4fStg4Krj4PkB9idRf5KC0LxqWQUZN0TqpV6C/yQMzJXeCG/ELm2KAUV6tjD3jnjO4zgOdX51jUK1P5wiQBCAzTOQ8gvRZu4XdM0L21mK4dkSoFEpbKFiUbLVggReyaCtEIVPxUvh1F6drNB7Q+XMcFwvqnQ2sTtmrnIS+x6rifaVEno/Wj1Ubn0wsSSym+sl+ziPudCXqNE7dfKhX6gkKPGAKoiHy/HTX2ZBGaoZGXFZaEwk2LjsiOKjcvJoNi4LBRaUCpMoVCDLJWMzdvYQzd3W1A2rRslO4jkJ4bymRPG4qtkVfHHVW51SG3wl3NvVWGq0mfrWvan7kNuvdu4rNrStClst4prirY3DTmlG/KTC13bN9mnbXVDLoc+5DYb+FvIsmWuvQd++/6hLWa1la6/RW1VfI44tsAlXB+ys/UD15tKlrPjfC5aE9IGvnqzm77vrFGgnDBVxOLX4YlnHxn+Gg+wLsd8QN0rH1pPPe2Uoe9gcN4FS91R/swesdYMgE3vz1lyzvDfTELxZYuHdDDwxOwDLLfZ6/ZF4wrDzvCYWIjZqdSO83SlsgIgYnEVlq4Zf+1AD0zcy0kjRo4NzJwwKULxLdwD+caF1Di2kkUGun8Rko3OSV0B/H15xGQVk7e9LoTSBMIxD7Av25qkQfxFRy2ajk842eI59+zz3NQr2GnnHQcrV6xyv/ukUYXJsVPJg+eGsTPDxEbZQKmKG7LzyKxY5kbRcsn03KjZycyFPLIOh1nITMi0Ni4F/sgLf/d7U4GGkGx0ztpoweaMXfHaRN5+a08rH1rX07dtTdJgTh3yoHI697W1bmm5wI+NNCBlC7QTrH4Ww45h0BPR162uiV6JHgn4SxdF9+S8dM7cuDLFoHjE0TgilUYI6b/E852ukRPGEhrD4MiHjjjlU/dmx0Pkm7Agf84J+XP9kGx0jqPgWVl5Er+OvHXOz7dNIwZhCKt75Mh/i8LYPAPXDl1H4eXIe+h59IWtH7jnD+tNNrQmtCp0t7R+rBen9feRyTpqv1Sa3Liy8xhShXLT8GHWcsjqr71GTpgqUAtQHyxqXWV5jLU4qCGC1pZ7ESzlFvymRbU9iJWNPR+iibxxtOrY5qQHocdihrOMKsWgp6T3YhyXMpWYC70QvR35Qa1jCQO959Lzz3XW6+aCYIVRdxkqKPhhDBTdEkGyvoFVk0xDt3CTnKObl7Bz41ZZ3MpNw0c2MKvICVMFqz5j8bVoDdXIQiW1WBuYsnSMaqNd/1PWyFjsJ5rKm0qPqkZ8VEOWYFRBA8DEUSpLzLamX5asGhfjjrWrXINyyUcvnQ7POh/lLVQ++yY4hmlr4xJoET500cUurPTw3LghO49i1Oxk5qLFcwyQyTOO3/RofHsQ6zfcPfw1GNzz/anfdWxg2lWYTeWtt4KUAwbwVUZzVVkYfHdtW1OL4Kx8VAlTvWtfBCtMWxuXQItIz+JanU0tglU7UnF9WC3IYLJNGrTs3IsLb444kROmKRRCBsMMoEmPe+E1KG98bEuJyoEfYWjd6aljLakKEuqT1C5k4VNXVlyPnk+rMGO9AdekshCmD9ua++071bOhgik+8qHC5fRQvWAHNBYGggwYQwMtBo52EGbtVPqDROKRDi8AICeuPyAkL5wnDdKrSiOEwoYcaeWGsYQG/Ro8x0Am5Nemqzzr3u296X6tv3+PGljjSJs8cBRVsoqlCRps25cUPnouIWfzrXuukhHhCRMa9Ksc4pBJKL99YesHrnJqDK0EhFq4Kr8UTeISx4Zvc/0uaDNbOZX3JvdGCxxrdZukRy/BIH7dunWdyLjt85qr5+1PjSnT+xsyX6f3U/F4o8f3DQb7/rhk0ijT+wtJmIrEmHXpktH/GDzbzOhhCoVCNaWHKRSyGQz+H7ud+QpommuPAAAAAElFTkSuQmCC;" parent="1" vertex="1">
          <mxGeometry x="-40" y="675" width="204" height="167" as="geometry" />
        </mxCell>
        <mxCell id="vH7muHAw4CBqpfFADn8X-19" value="J2EE&amp;nbsp;&lt;div style=&quot;font-size: 9px;&quot;&gt;(v1)&lt;/div&gt;&lt;div style=&quot;font-size: 9px;&quot;&gt;[deprecated]&lt;/div&gt;" style="ellipse;whiteSpace=wrap;html=1;aspect=fixed;fillColor=#ffe6cc;strokeColor=#d79b00;fontSize=9;" parent="1" vertex="1">
          <mxGeometry x="190" y="625" width="70" height="70" as="geometry" />
        </mxCell>
        <mxCell id="vH7muHAw4CBqpfFADn8X-23" value="Implementa solo algunas partes de&amp;nbsp;&lt;div&gt;Java EE/Jakarta EE&lt;/div&gt;" style="edgeStyle=orthogonalEdgeStyle;rounded=0;orthogonalLoop=1;jettySize=auto;html=1;entryX=0.5;entryY=1;entryDx=0;entryDy=0;" parent="1" source="vH7muHAw4CBqpfFADn8X-22" target="vH7muHAw4CBqpfFADn8X-5" edge="1">
          <mxGeometry relative="1" as="geometry" />
        </mxCell>
        <mxCell id="vH7muHAw4CBqpfFADn8X-26" value="extends" style="edgeStyle=orthogonalEdgeStyle;rounded=0;orthogonalLoop=1;jettySize=auto;html=1;entryX=1;entryY=0.5;entryDx=0;entryDy=0;dashed=1;" parent="1" source="vH7muHAw4CBqpfFADn8X-22" target="vH7muHAw4CBqpfFADn8X-25" edge="1">
          <mxGeometry relative="1" as="geometry" />
        </mxCell>
        <mxCell id="vH7muHAw4CBqpfFADn8X-22" value="&lt;font color=&quot;#333333&quot;&gt;Sprint Boot&lt;/font&gt;" style="shape=image;html=1;verticalAlign=top;verticalLabelPosition=bottom;labelBackgroundColor=#ffffff;imageAspect=0;aspect=fixed;image=https://cdn2.iconfinder.com/data/icons/boxicons-logos/24/bxl-spring-boot-128.png;fontColor=#99FF33;" parent="1" vertex="1">
          <mxGeometry x="286" y="870" width="48" height="48" as="geometry" />
        </mxCell>
        <mxCell id="vH7muHAw4CBqpfFADn8X-25" value="&lt;font color=&quot;#333333&quot;&gt;Sprint Framework&lt;/font&gt;" style="shape=image;html=1;verticalAlign=top;verticalLabelPosition=bottom;labelBackgroundColor=#ffffff;imageAspect=0;aspect=fixed;image=https://cdn2.iconfinder.com/data/icons/boxicons-logos/24/bxl-spring-boot-128.png;fontColor=#99FF33;" parent="1" vertex="1">
          <mxGeometry x="120" y="870" width="48" height="48" as="geometry" />
        </mxCell>
        <mxCell id="vH7muHAw4CBqpfFADn8X-28" style="edgeStyle=orthogonalEdgeStyle;rounded=0;orthogonalLoop=1;jettySize=auto;html=1;exitX=0;exitY=0.5;exitDx=0;exitDy=0;" parent="1" source="vH7muHAw4CBqpfFADn8X-34" edge="1">
          <mxGeometry relative="1" as="geometry">
            <mxPoint x="390" y="810" as="targetPoint" />
            <mxPoint x="450" y="904" as="sourcePoint" />
            <Array as="points">
              <mxPoint x="460" y="920" />
              <mxPoint x="411" y="920" />
              <mxPoint x="411" y="810" />
            </Array>
          </mxGeometry>
        </mxCell>
        <mxCell id="vH7muHAw4CBqpfFADn8X-27" value="JPA, Servlets, Bean Validation, JTA, JMS" style="rounded=1;whiteSpace=wrap;html=1;" parent="1" vertex="1">
          <mxGeometry x="470" y="874" width="120" height="40" as="geometry" />
        </mxCell>
        <mxCell id="vH7muHAw4CBqpfFADn8X-30" value="usa" style="dashed=1;html=1;fillColor=#d5e8d4;strokeColor=#82b366;align=center;rounded=1;arcSize=10;fontStyle=1;fontSize=11;shadow=0;rotation=0;" parent="1" vertex="1">
          <mxGeometry x="600" y="874" width="40" height="20" as="geometry" />
        </mxCell>
        <mxCell id="vH7muHAw4CBqpfFADn8X-31" value="EJB, JAX-RS, JAX-WS, CDI" style="rounded=1;whiteSpace=wrap;html=1;" parent="1" vertex="1">
          <mxGeometry x="470" y="930" width="120" height="40" as="geometry" />
        </mxCell>
        <mxCell id="vH7muHAw4CBqpfFADn8X-32" value="no usa" style="dashed=1;html=1;fillColor=#f8cecc;strokeColor=#b85450;align=center;rounded=1;arcSize=10;fontStyle=1;fontSize=11;shadow=0;rotation=0;" parent="1" vertex="1">
          <mxGeometry x="600" y="930" width="40" height="20" as="geometry" />
        </mxCell>
        <mxCell id="vH7muHAw4CBqpfFADn8X-35" value="&lt;div&gt;&lt;b&gt;¿Por qué Spring Boot no usa todo Java EE?&lt;/b&gt;&lt;/div&gt;&lt;div&gt;Spring Boot adopta un enfoque más ligero y flexible que Java EE/Jakarta EE. En lugar de depender de un contenedor completo de aplicaciones empresariales (como GlassFish o WildFly), Spring Boot permite ejecutar aplicaciones con un servidor embebido (como Tomcat o Jetty). Esto lo hace más sencillo y ágil, especialmente para microservicios y aplicaciones que no necesitan toda la funcionalidad empresarial pesada que ofrece Java EE/Jakarta EE.&lt;/div&gt;" style="text;html=1;align=left;verticalAlign=middle;whiteSpace=wrap;rounded=0;strokeColor=default;" parent="1" vertex="1">
          <mxGeometry x="670" y="854" width="610" height="126" as="geometry" />
        </mxCell>
        <mxCell id="vH7muHAw4CBqpfFADn8X-36" value="&lt;table&gt;&lt;thead&gt;&lt;tr&gt;&lt;th&gt;Característica&lt;/th&gt;&lt;th&gt;&lt;strong&gt;JDK (Java Development Kit)&lt;br&gt;&lt;br&gt;&lt;/strong&gt;&lt;/th&gt;&lt;th&gt;&lt;strong&gt;JRE (Java Runtime Environment)&lt;/strong&gt;&lt;/th&gt;&lt;/tr&gt;&lt;/thead&gt;&lt;tbody&gt;&lt;tr&gt;&lt;td&gt;&lt;strong&gt;Propósito&lt;/strong&gt;&lt;/td&gt;&lt;td&gt;&lt;br&gt;Desarrollar y ejecutar aplicaciones Java&lt;br&gt;&lt;br&gt;&lt;/td&gt;&lt;td&gt;Solo ejecutar aplicaciones Java&lt;/td&gt;&lt;/tr&gt;&lt;tr&gt;&lt;td&gt;&lt;strong&gt;Incluye&lt;/strong&gt;&lt;/td&gt;&lt;td&gt;&lt;br&gt;&lt;br&gt;Todo lo que trae JRE + compilador (&lt;code&gt;javac&lt;/code&gt;), y herramientas de desarrollo&lt;br&gt;&lt;br&gt;&lt;/td&gt;&lt;td&gt;JVM, bibliotecas estándar, y archivos de configuración&lt;/td&gt;&lt;/tr&gt;&lt;tr&gt;&lt;td&gt;&lt;strong&gt;Uso típico&lt;/strong&gt;&lt;/td&gt;&lt;td&gt;&lt;br&gt;&lt;br&gt;Desarrollo de software (compilar, ejecutar, depurar, etc.)&lt;br&gt;&lt;br&gt;&lt;/td&gt;&lt;td&gt;Ejecución de aplicaciones Java en entornos de producción&lt;/td&gt;&lt;/tr&gt;&lt;tr&gt;&lt;td&gt;&lt;strong&gt;&lt;br&gt;Herramientas adicionales&lt;/strong&gt;&lt;/td&gt;&lt;td&gt;&lt;code&gt;javac&lt;/code&gt;, &lt;code&gt;jar&lt;/code&gt;, &lt;code&gt;javadoc&lt;/code&gt;, &lt;code&gt;jdb&lt;/code&gt;, entre otras&lt;/td&gt;&lt;td&gt;No incluye herramientas de desarrollo&lt;/td&gt;&lt;/tr&gt;&lt;/tbody&gt;&lt;/table&gt;" style="text;whiteSpace=wrap;html=1;strokeColor=default;dashed=1;dashPattern=1 4;" parent="1" vertex="1">
          <mxGeometry x="1490" y="435" width="560" height="305" as="geometry" />
        </mxCell>
        <mxCell id="vH7muHAw4CBqpfFADn8X-37" value="JDK" style="text;html=1;align=center;verticalAlign=middle;whiteSpace=wrap;rounded=0;fontStyle=1;strokeColor=#d79b00;dashed=1;dashPattern=1 4;fillColor=#ffe6cc;" parent="1" vertex="1">
          <mxGeometry x="1650" y="405" width="60" height="30" as="geometry" />
        </mxCell>
        <mxCell id="vH7muHAw4CBqpfFADn8X-38" value="JRE" style="text;html=1;align=center;verticalAlign=middle;whiteSpace=wrap;rounded=0;fontStyle=1;strokeColor=#b85450;dashed=1;dashPattern=1 4;fillColor=#f8cecc;" parent="1" vertex="1">
          <mxGeometry x="1900" y="405" width="60" height="30" as="geometry" />
        </mxCell>
        <mxCell id="IodC5GZJqfs01bBgJAyE-3" value="" style="shape=image;verticalLabelPosition=bottom;labelBackgroundColor=default;verticalAlign=top;aspect=fixed;imageAspect=0;image=data:image/png,iVBORw0KGgoAAAANSUhEUgAAAfAAAAG4CAYAAAC6p7XnAAAAAXNSR0IArs4c6QAAAARnQU1BAACxjwv8YQUAAAAJcEhZcwAADsMAAA7DAcdvqGQAAOOSSURBVHhe7J0HYBzF1cf/13s/9d4lS65y78bYBmOMbUzvJaEEAgkJSQiQQhIIKZDQQvkILSEBEmI6GIyNG+7dltV7vVO53u+b2duTTrJcsbElzU9+vt2Z2dnd2Z335s3OzgqKi4vDIASDQQiFQggEArrKYDAYDAbjHCIUCnF2OkrfEoPBYDAYjCFDPw/8lVdewZQpU7gIBoPBYDAY5w433XQTtm3bxq8xD5zBYDAYjCEJM+AMBoPBYAxBmAFnMBgMBmMIwgw4g8FgMBhDEGbAGQwGg8EYgjADzmAwGAzGEOSEXiMLBgI4+NFHaDt8iA9hMBgMBoNxpsmaMg05s2dzywNfIzshA+612/HSpSvgsdv4EAaDwWAwGGeapJISXP3i/3HLp2TAPTYbnlm0AMlqFRE1H8pgMBgMBuNMsautHbr0dNz0r7e4dTaRC4PBYDAYwwBmwBkMBoPBGIIwA85gMBgMxhCEGXAGg8FgMIYgzIAzGAwGgzEEYQacwWAwGIwhCHuN7JxDBuXYKTAlu9H68Tb4uTA9dLOmQJdsgHfPR2gro+/jK6CeOhumdDfa3voKHi6dGYYLZkATrkbzp/sQgA7aGVOgTzXCt/djtB7q4VL1IpJDWTgZppLkSEsuHIZzx0ewVAmgnUa2SzdBwCUE/I37Ydm5Hz43uWlkKmgmLYAhRR6JtB9C00d7yP76EJjHI2V+AUT8eqD8SzTtskKWNhbm6XkQ8+EhVze6Nn0ChzWyLhBlI37lZEitNbBs2wl3Dy0BEaQpZLuZ+ZDAAst/voQzECThUiiKJ8JUlA6R0AbrRx/B4eCyiUEBZXEpjCWpCJevIcfQTsLIdqNKYRqVAVH0ACnuZrSv2QK3w8sHkD1nTkRyaQ6EYgGCnQ2wbtkINyl+ScmFSC7WRRJ5WtCxZitcdlI4kENROAGmseSY0Ir2f68FDaXh6smzYMw0IexqgXXDXkiKJkOXbuDKOOzuRs/2dehpFkI7Zz70xg60vbsbInrs2WF0fLoFXh8tYRXU4ybCUJDEt75D8DUchHU7uTY+LoAghixnLEzj8iCJFjTF0w7L+oMQT5oNjaAS7Z9UQDpxEgw58RAGG9D2zkb+PlJBO5dc3wQZAu1VsG6ugmzKVOgT+fMld6X70A5YD9QSvcEHccTBuJjcf0oRHDs+hbUmejHSEX/FdChcVnTt2AJbsw2S0RciIdUO69o9EI+eDH1WXK83EbJUo2PbLqJ3Inf/QES6UYi/YAxELQfQtu0g/O4gxIYsmGZPgZy/JTkCDtj3bENXZRuokhNpihC/eCy5+lHs6PpyI4RF86AOHUbr1jIE/EIoRs+D2dxNjqEFqnlToJZL+PReOLasg7W2EwKFFtpJ50GfFNmh8+u3YBdNQXyhhNwj2+GyuiCQKqCfvQiipgPwabJgyDSSG5xLHsFZg+YPK6C9aC5Ejbth3V0NWpyy8UuQmM/rWVc9Wj8h195PY9RQjyfXPj8RwqavUbehFkJTJsyTihHYtxadTc7INuReU5XOgCknDoLY/blq0fLhYWgWnwdx615yz3RBc8F0aHUK+NsPwfLlXkRuIS0MFy2GVh2Ap3wXrPuc0C+dBZUkWlk8cGz+Etb6AfqEcdphr5ENOagBn4O0iyb3GjnE5yLposuQeeXVSL9oEjFiFKLMkyci44pbEZfLBZB6l4nEiy9FYpaYqHVCXDYSF0e2y7h4Mr9dDEKyr+K5SJ9HFIClEf70Rci58SaSXyq00xcifVE+fBVVxDAYkHD1lYjLSOL0j+nKnyBjTg6CTRWwW/VIuvZO5Fw6qfd4pVOuxugffgdxyUHYK0iaCj/0111LlCIxLGmlSL54GkROCwm3QbfkKqTOn9irVAVjLkIOOd6sK5ZAl2rm9Z0IstQJSFm6DCmXXoes+SlcKBQJMM6dj+TFlyPzioug0USC+6GJh3H+CmTRPC+fze8niEBnKxxV5NjkE5B2wVxIXGS5tpko8D6LJCuahexb7oDJ2EqOtQ4hdQ6MpYXQzb0Bo+64GNJOsk2jC8rSi1Fw22Jy5Si0UTQDqRddjOTLb0bGjDguFOpMYjzOR9LCq5B28Vwo9Ubop1+AjGnJsFdWQjRmBTnvpdAkmKCZuwzpK6bRnKAqmYW0S2ZAJo0qTzVUE+Yh7cIS+KsqyXFVwtnaOcCQhhDsaYeTnp94FNIvWQKZjyzXNCLglUN/wRVIvaCUHK+aNMTmI/2CxUi68hYkTSAGhqIrRMrlpMFOjjXlvEmQyQzQz12MjIXZ8HLXsxpuq4229/pDGmcZK64k99uVSJ5d3Hf/EgOeQMo/87prkDJtFCTkRpSMvghpi2dBqdRAM+V8cgyF5F4jebfYoJi8EqOuXQiJ4og7lkM2cQmyuXvkAqj1EUMX8trgqiHbe+OQvPQyaMVkuaoWnh4XF0+hBjxp+flQyj1wcudRRxqktHE4Bqm3rIRRpyZVYjzS77gCxtwECHxxMC2/DClT4uHhz9tj55vKV/2M3IejELbScCHivnc5aWhNJ/V2DpQmFZdGIFPCsGA54oqSEWpvINe5Av74aUieTraj905tG0JCI8xLL0X8+GyuvDSLv4/CG+dDZCHxLUHSkLocRbcv5O9b0ngrJdeeluUt18NILpfQnIm4C5bAlBLrWAXh72jk9uc1TkXKrLEQdEf2FwzrYbr4MiRMoo1oM4wXLEPmgguQsmI5jDl8BTJPRsY1FyLlosuRWJoLsTgR5pVXEHVj4suhhpRDb2uRcRZhBnwIoMjOglJcjepP6iEtnAWdmYb64di6G66wFnHTx3PppAX5UKtcaF+9hzPgiqxMqKR1qPm0DpLCOdBz2w2C24Ke/XvQ8v4mCDKKoE2Pj4R7O9C9cxtpge8gLfMMaKi3mLacVPgsBA6uRtPGHehc8zIOfB6G6bxLYcom25imIPfaC6CVb8HhZ99F506SZuf/UPbw39DZGckWATucZftI+Kfo6VBDmZEHKa9/TOfPhp9465Z2EwzZCRDGesidtehqCsBw4Vxi3IhCTkyGxuBFT/0RbncvEjMxiAl+NH9VBmTOgTmJhhIF11qD7l3k2Gq6EPa6yPGQ5b2V8Hv5fgR5AgxTFyBevgOH3/maHOvXpHz+jZYDKiRcMBP6tg9R9QXZZtOHqFm9H5Liy5AxNbIpR3sZLM0yGBbN5JSvJCsXWkkzLLX9LC1xApvRuWMHLJvLIcstgsI0WCtkEHxW9HBluxO26uYjDHjA0oCe3SS+2kLK2wdXOT2/cnidfb0LvTTtQnu7EYYZE7hGnrR4DHTefeioj0T34mkj9wPd5y7YmzoR4lqJfahHF0Pu3IzK1Z1Q5E+AKuqwE0JeL9yN3VAVF0CmizR1+uG1RPJe/wmaNuyEYMIypOYo+cj+GCYXw7lvM2y+TJgyI+UVIt69fS/ZvrwRoUAI3hqyvHs/XB12zvvuJeiGu7aMnAM9j/3EEHWiY+Nn6GnLQPqSfJjv/DEMvha0rvkUbk+kUEP2Rv6898BJPGukkUbx3AS4t72HhjU0/C2U/+ZD9DUVBuKHt/YQt8+eJjtCDnKsB8h2+2sjDe0opmnIWDoVqrr3UfsliV//Lqo+q4V6xk0g7ddevGVlcOsnIKE0kQ8ZiB+++sPoIvvrbrQh5OyC/SDJb18NMeADW11AuGYTHII0aEflcD1m8mmzobJuJWUSiY8S7Gnk8uTKoSvSr8Q4uzADfq4jNEOTnYdww060fvYFPLIs6MfwHmjjNrRW+SGdMI0YBx20hVmQ9OwhYUQtkJa9OrMA4ebd3HZuaSb041L79eANRED7k0kFDwd5IyZWQpaQCk0G8dbUTXA2OSCfOgNyvxO2sr0RDyzkIy39eogUashNJggSkqBSyeHY+DncQSEkpkRiC+MgUSkgjN5tQikkRjNxoC8ink4X3M0t8FMbLJuJxCkh9HzxGayH26Eekw9xb/clIdxFlEc1QskzEZdDzjd/KuShBjh6jjLFr0BC9k28+0AlOlZ/ThR+IuJm5hyzDKKI9AaocrIRaK1DwEPLg5RLwAtRagbURj0sG1ZHDFg4SOxaO4J+4j2RBlMvoTa0b6yCMHMGjOlJME4YD0HrATi4bvBBEJHCCQURHmgVj4ZIQa4NKdt4UrZH8VRPmFATWtfWQpJdCm1yDhJnFcO3exOcAw+F3A9yus84I0SyPv+aQ5wBQ1EKPLvXE+O3HkFjNjQ5fO8DJeCGq2ov/JmTEJ+ezAcOQjgEZ109PN1SxE3L4gNjkC+EKd+Brs8/Q1e9B8apBSd0PXsRiCHRGSPnoVeQAHJd6/ahbXclpBc8hKLpQrj3r4a1oq/7XiDVRMrapINQLIRy1mzIyfl42pro4RICCNrd/Y3xKSArGgW1WgHL12v4eysAV3MrOUIxVGmpkUSUlu1oLvdBS7xnneybq/BwoAbWQy6ocvPIOZYi85IsUn/XwT3ghGg5cOVGy4Her4yzDrsK5zjCOBPUWTrY99QgVLce7fVCaMZMgYJzTtrR/sUBCLXF0E0iXnqCCcHaw9xzTKHJAHWOgXgqZLva9WirJQZmzFR+uwGoEmCcNBUpl0yDd88GWMvqIuHqfKRdfx0yLp0Azycfoq2ivr83MwgSPVVyYrhbmyAyJCH+4uuQ/9NHMfnZ3yIx6jDIiSG9cAVyH7gK8sqv0fjeWlC/UDprGgzOg7BsLYej6jCCSRNhSqZKtg/v3u3odphgvmASOZ8M+Cvq4LcP/qyU9tUqS/MQrKyCt3wL2g7aoZy0CBotH38CeLssxEYP8JpPEM+Wr+AIJ8N4wVTocg1w7KnnvMN+6DIQP2sW4iZnwrZtI5wtxGM+EVTZSLnmWmRdvhymvKN1rZw47vWfw6tM48ZQ6JKE6NzSwMfEoBmF1GuvQ9byRcTQ9y9EUUY6tHFBWLfUIdy4Ht02A2lQFkEafTaCIPF89xGv2IO45dMgF56U2e1Ftug8KDvL0L3rAHoq6yAsmAdTTDvhuEj10E2/EJn0PObQLiNKkDQgneQ6k2tDWqWBnm4+PII4cQLSafolsyDXRp55h/zEy+3p4pa/fdrR+Op7COkmIG52xGv+RpD720m8amFqLnQXzoZB3g7L5mY+sg9JykSk0XJYPB1STe+FZZxFmAE/lxGIoMgYx3UlqyZdiKwbL4FGJSEt5XHQZem5JL6vP4MdWhgXXgBjqhzWDYfIdkLI08fDkJNIDNhCst0yaJUiKHPHQ0eM+hGIZJBoDQjv+w+qXv9nX9dZ925U/vkJ1H5WTwzfZGiSdPATb1coJp6tOYFPRB/vpiPo7YbX6kSwwwIfUW7qdOK9dtSh6ZU/oG5DVf8uXlc9mv/xAg49+wWCGVMQNykTQlUmkmcUkEg1zCuuR/K0IuIp5SJtfn5kmyjdB9BZG4R68iVIzBDB0dKBaIfBQETxE5EwNhWyvMlE8ayEXi+CJHki4sb2HfvRCHk88Hd2QRaXFOmZ4Am63cRjCUCVkcOHEKNiMkEk9cJZG31GwGPdjs5mBQzTFsGod8PeNshzY7GC2BQDPJveRM2qNXCd6Lgg2wFU//mPOPT0C2jd28IHfgM6NsNuj0PcjLnQCNvR3TbIM86u7aj80x9w6IU30VUTc65iFTHWo0k70ATNvMuRdc2FUKk10I8ZA2V85HkwR08zOrZuRzBlNpIzj656JFotcfbDcNYPKE9NAdLPy4NIlYSEy65Bwug0iPQlyLyg71ocF68Flo//gTJ6HqsOcEHC+AIkTCqBf99/0d4sgWbyQuhjGo7++nWooOlf/QCuThd8NXUIyWTkuvOPmjiIJ293ICCXQ0wf8hMEAj0tmhMm4HIRjz5IvO2+ngd5Qjypzg64Gvo3KnDwfTSU+aAbXQrlNx5XHIK/dT88kkKkzpkEsfUQuvhBpbH4ar6MlMPrH8PTHRkLwDi7MAN+zqGERKOgthsCsRSq0tkQte5C21efomPTJrS9tQaehCRo0rMig4RsO9BRFoB21ARoUIMO+jxYKCLbzYW4Yw/a132CdrJd67++gCcuAZrMnJjBRTy2erR98TEaP3gftg4+LEqQGKZDX8GjmITE0nSEtn0Aq0cL7cRZUFHlZJqKrPlJ8O7/EpZ6D4LE26/9qgaq8+9B+kRTJI+jEDj8NqytJhinzIF+KvG2M3To/uhltNLz/GANrLUtkM6ch5hHqQQnMQKHINRmQORqhKORKFM+ZiCKaZdAFWiA5ctVXBm0vPoR7Ao6MGwcP+Ds6IRtFjgqK4CiZUgvpRpSBHneOBhNYXTXWyCfRwflkWDitcaVFkPavhE1Owd25Ttg3VkFsT4Z4bYyOK2DeNfWMjS+vwrNa9bDNUBHf5uEQz3oLmuD1GiGr2InXJ4Tf8Yp1BDDPXo8QofXonXDWnRs2ID2T7ciSJ/7m+Niurj98OzehPbKIPQlR3Gb1YkwT58NjWcv6nf2vxmlo+ciPlmEzk9e5+6R1v9+jk5rD5TzLiDNvlNEooN++nyYk6xo/PcHqH7qf/CnjUXCeZNBbPSgBHZ+hp5APEwzFkDN3eJxSLzrSshIfXN6kqFNNXJvN4jGXgSzogduS0e/NzSORrBsKzqaXVDNvQIG2s5W5yFpaj6EVZ+iYf/AcR7ken28Gl5ZAqSG2KH3p4afVHxnqw8KsxqOTURX8OGMcxtmwM8hFLlXYMI7zyFvfjLaX/0vPOJMGCdo4TywG51bDsFWdgjdB1ehqzaBeDzpkHKWzQvbpt0ISORwVuyBx2Enxj8Lxol6uA6R7b6ObvcuOmvioc3PhCzivJ8gYeK0NMFR1wXzpFII3ftQ/tCf4Cu5FqWvvovZz/8UxrKnsPO5NSCOKdUE6HrtAWx+qxNZP3sJs995F2Ovpq36nbA2RnLsowcdW8qgyhyP5AUzIVWXo+WtyPHaytahfWcDgpKZiI8dHEYIfLoGXXDD1XgYrtqjjYZNRfzcTPhadsKyNprnW2jfr4QivQQqfhjBUQk50Pn+0yj7oJIo51fIebyDsbcsRLj+U9Q8/hjqOgsx6m/k/F/7K7KzmrH7z2/CO8j4MN/n60BKBLbDNaQcT0SND4JpBsa98i/M/tfrKLlhZuRtgri5KH3rv+S4/o3xP7wC3/jtzlAI7s3bSPOoBV27GhEY+ACUknwxJpPrOfudf6Dk6tm93eMSXTZ0BaRh8/U+dO+h5bwfnfvXwt5B7sOxZghjH9F76lH/yTYSNuC5fcICTKJ5v/IcUs3l2PvYk2T72EaEgdzT+cQw7kTbquj1/AytO7oA7Xkwj+WTHQ9lOtK//yhmcufxNNJGx8M8ezZ8O1ejs6ULvrq30bw1APOUGVClRhqgstHXYwqX/hXkz82BwLcPFQ/9FPbkyzHheRr+AvR73oS1Zgtq3vgQqssewYx/v4upd05Bz0cvoXZ95XEfPXG4qlD9wENoCU/D6BdpWTyOdNVObH7k7ZhXBPvw1G9DB7lWgt7BJadO2NoFx6EKok0q0bZmEPeboJhwE6Zy5fB35M1I40MZZxP2HjiDwWAwGOcg7D1wBoPBYDCGIcyAMxgMBoMxBGEGnMFgMBiMIQgz4AwGg8FgDEGYAWcwGAwGYwjCDDiDwWAwGEMQZsAZDAaDwRiCMAPOYDAYDMYQhBlwBoPBYDCGIMyAMxgMBoMxBGEGnMFgMBiMIQgz4AwGg8FgDEGYAWcwGAwGYwjCDDiDwWAwGEMQZsAZDAaDwRiCMAPOYDAYDMYQhBlwBoPBYDCGIMyAM4YvQhl0i3+CSb+9A7pkJSAQ9JcoR1sfTDBIGPk3KAPTRTlaOGVgXL/4Y8XxDBYem36gDBofCeboXY/GxQgXHLNMiY2PDY/dPpbYtINJLwPj+GCOmPAo0fXMORj95OsoXqjmIxiM4YOguLg4TBeCwSBeeeUVTJkyhYuIxWOz4ZlFC5CsVhFhFYExNBAqzMj69R8h3fICKt9xIPu1BxEvtMHZ4oI0HrC+8hKqvrQg/fHHYe5ajfK/vQEHzsfoF78L8Z41cCIDijgTNClm+FsOw2PtQPv7uyFdthxpeUo4a9oRggc9X7yD+rV7EfDzOyaIjMkwXPpj5I3zw2OXINCyBfX/fhcuQTrir74XyclOBMJqKNSNqPz9i7DUdJC8UpHyg+8ja1oi3NWtCInlELnq0bzq32jZ1QhJ/CUofuYayNpa4bW5yV4saPjj47BYIvsE4pD2+DNI9H+Gsl+/BLuXBEnnYsw/bkNo1RvoFJYic0k+fDUtCIYDcB1Yi4b/1CLxN/cjLVkIR60VAp0Zocr/ouxvH8IrLEb+E/cBn76Aqq8UKHnyDqg87XC02QFHBWpe2gD9g79HvPO/OPiTV+A2JEG//D4UlIbgtosRaN2Bhrf+g+5mD6Q512DMH6+A7PDH2Pfka7C1Osn5jEP6d66GNt4AdXIcgu3lcHd2wfrZF/AVLkXuoiAOrfwFOhUaaOZcjqw5xRAKAuS6auCv+BiVr34Gl90Dgfh8jHn7+9BbD6Li2WdIWTVAc/NzKMzeh/I/fADNnfchS/YFNvziPVLGDMbQYVdbO3Tp6bjpX29x6zfddBO2bdvGLVOYB84Ytgj046DWuuDt7kKAD/NXfIj9P/8d6tZ3I/6GJdAIW9D+wXoIUgugSc8iBuh8aLsPo/7/nkHZI/dj1wufwO8OwPIGWf7FH9C0vRpci9eyDgd+SsJ++jCqV/c33pCaYL70ThSO96DqDzTNg6jZUA1oRiHt3t8iTbcNBx+m+f0edeVxKHr4Lhji+G0pnV/jIM374V+jvkKGzBtugCFeFonztqPt7Wexh9t3rPGmdKDji0MQmwqgLdBxIeIxxVB6OmHbcwhBGtCzC2UP/pRs+zMcfv1TuFxcMoRbPyfn81OU/XM1BGMXwRyviUQMwLP5FbIt2fdvXkR3aw8fSpAaYVp2OwonBlD5R/6c15UjLFJzzrJyzhRILI0IaHOgT9Bzm/jbd6PqtyTts6vg7vGi802y/NCjqF9/uM/QCsRQjrkAuUtGo+s/T2D3z+7HvmffQ7hgMdLnl0AsiSQL+3wIkFZZ3LhciKWxas0CN2kshNNKoGO+B2OYwQw4Y9giyB0PtcAJX5c1YnSjCAQQiMit39MN6qR6DnwJS7sOxvOWIWNSErw7/wtrcyTpqSBKLoKpIB3Bwx+ivZaGOOHYsRUu3RgkZEpg2/A+nE4aXIfWrysA3TiYRhlowv64LOjcvh1OYR7SpiTxgcfGt/1zOCUmqHPyIQY5pzljICSGsrOCeM3HRQox8W6FUlJaJ+mqihLzYSzMRKj8E7TX0BAXHLu2oafBQso+H3ET9eha9yEsDWIYx6X26+0+JjIl1ONnQdy+C511bQiTQ/M174S1KgRdQSYkKjGXLOzshqOqDtKJU6BVKbiwCC64WjsRVo+BPpMPYjCGCcyAM4YtAqUSIRc14H1uqrToUox/8jfInJOKrk/XwhMKI9TVgM6NuyEdNw3ahCbUv777+PYrfgHGPvs3TH7kh4grjOcDIwiUCohkMmKfq/iQCEKdDiKBEF7SoIgS9Hi4X5E81uj0ESAucsgvgMykigTIk5B8/Y8xke77tmmRsBjCtl2wVAigyc2F3JBMPHENQnVlcEZ2Axgmo+Qvz2Lynx5F1uxsPpAcc/Jicj5Pomh5JjpeehEtjTY+pj+K2XdgMt33AzdCFdfn0tJzFsvJOTdU8yExjJ8Ps6wJXWs3obuqCbJxE6EQnpjqEQhFEGu1CDkdCPt9kcBQCCHicQulMhLP5xN0ovvAHrjceci4MCcSxuNubkU4JINIyQcwGMMEZsAZw5twCOFgnzn2HfoPdt1xC/a8tB6qKx9F8XnEgwu5ibE9DE+nD57V76LVHu1wPwbtq7Hnztux9aE/o6OsnQ/kIQaGcxUHwoWFIRRFvEaKQCQi//c/xlg4A0W81VA03tOC5tf+gO10389vjoTFEA54YN+2F5KsPCjPPx9xShEsm9b39UB0bcX+e+7E1vt+hpqv+oxtuPkj7Hv492htSYQhzwCBZJDjJ7i/eg5b6b5/9wqcHQ4+lEDOOTzYOQsliJs3A+GWPbB3+4kxbUJQOw/Z50n5BMcjTPIN8eUQddsF3HqYK2c+iCyEanajbU8tFMuuQHxfEZN03MMDBmPYwQw4Y1hDPTihhH9QGoOno4N4vzaIlZGHzwGnE0EXHRj2zQnU18LW1ArdjOVQcY97RZDEEy+9vREedwjGmYsgpfZLokPCtDFA9y6072ylCfsjUUJXXAyF3ILm9Vxf/PEJB+Gr3QGbKA0Zc6ZB7N2Ctu183HEIWVqJfd8KycTFMCYP/gz8aAQa62FvaIFu2tLecxab46EYfSkySuUIKwqR88MfIee8cRDKwjDNvwhHXpUjCfuJ0a+pgjRrNNSJkZ4OiTkdxjw1uvaVw2fnvXIOGyxr18NhzYF5Mj9mgCCUnGhjgcEYWjADzhi2hG12QKmG1GDiQ+iz2nFIvfxKZC+ZhEDZF6jfOIjhPBE0hUgh+WRcvgLxJWngHOkoriZYVr+HdsxGwS00zdVIWzwTqp7tqPznJ/DmXoycq0n4NbciNa0ddS+/js5OfluKKieS99U3ILlYi+6P3kBrA31aTxBroZt8PtK5fS+G5gg7G4bPSoxphQ/yFDW8m9eg39NvZQaSVl5Otr0MSTNGRxoSvTjhrC+H25WB9Pm5fNgJ4mqG5Yv30BachsJb6bFdhfQlC5G4oBRyiQWNT/wS+35N5THU72xGOP98mE/ksb7fDceG99HcIEPikpXIvILkfclySOo/Q/PWcgQGdpbUb0PNxmrIjEY+AFAkJUIgcsF/IsMAGIwhBHuNjDFsEZlnYtQj18D17tOo+awBinG5kIujltYPT005nFZ+GLZcB3VmJsTuenTXdUXCKJokGHKT4avZAWc3DVBCUZADhUbOv4pMPN7mWjhbO7me81gkGWOhjYtYyEBXIxz1LQj6FVCNLoE86iDam2A9HB0xJ4c8KwtKU2TkNiXY1Qx7fRPZjrS2ZYnQjE5DX++wB879+8A/Ru9DKIMsNQuqeA389bthb6dD5KUkLAPKRD3fag+RY2qFs64H0vwcyAUWdB9oQkhugDorHbJgKzqr3VCNygY66uHqFEIzKgMCaxW667mCIMihKBnNpbUfauBGuUvSR0MbL+dig90d8AnIOWlDsO8oJyUeQZJSRIpVDU/FNrjoQHZ1AvTZKcSL3wkH15CRQJqeDXVcmN9OBElCOlQpZtCxhwj64GmqgrOd78IXmEm5JCBQRxofPWQv+kyYcs0I2i1wVlugv/HnKJxswZ67/wTbwLJiMM5hjvcaGTPgjGGLUKFH5i+fh6byFZS//jHcTHmPPHRjkHf/95DkWYX1j3zU98icwRgCsPfAGSOWkNeFjo/XIKwzQayLeIWMkYU4OQ6ScDtq3yT3AR/GYAwXmAFnDF9CPtjXPo+9f3wD9jbmfo9EAoe+wMEHH0J9Jbv+jOEHM+AMBoPBYAxBmAFnMBgMBmMIwgw4g8FgMBhDkBMbhW634W9LLkLQFztpAoPBYDAYjDOJOScHN7zxT275lF4jC3i92Pr6a3Ba++ZwZjAYDAaDcWYxZWRgwpVXccunZMAZDAaDwWCcXdh74AwGg8FgDAOYAWcwGAwGYwjCDDiDwWAwGEMQZsAZDAaDwRiCMAPOYDAYDMYQhBlwBoPBYDCGIMyAMxgMBoMxBGEGnMFgMBiMIQgz4AwGg8FgDEFOeCa22lYb/rvNgqBEy4cwGIzThVHqxWUTtdBo1BAIBHzo8Ka9y4V/rG9CQGrgQxgMRizjVbWYP7O0Vyec0lSqoVAIeytb8ei75UgeMx5aPTPiDMbpwuFwoX7Davzm2jHIyUqHSCQa9kac6pSa5k48+MYemEeNhzGOGXEGI5btazdjhqYO999+GYRCIScnbcDD4TACgQB2HW7CL/+5FyJzBiZOK4BCKedTMBiMU4HWLbvNhU1rdkLpqMEj15eiIDcLcrmcq6zDGapvyuva8JOXtyGgTUPp1EJodEo+lsEYuQSDIZQfqMWBrbtwYaadM+AymQxisfjUDLjX68X2g3X4zVuHYBPGw2A2IiM7HXIZM+IMxqkQJn8upxN1VTXo7rDAGGrAzy8vxuhRBVCpVJwBH65eONUpfr8fh6qb8fPXdqEzHAe9yYTMnAyu8cJgjFRo3WhvaUF9dR1cXc1YkNqJH9+2ElqtljPgN99888kZcNrVRQ341v21+N07ZbCLEiCWyqFUaaDV6blMGQzGyUENmK3bCpe9B36PE4ZgPX6yogBjS4qg0WiGdTc61Sk+nw8Hq5rw0Bt70IV4olMUkKvU0OuNTKcwRiwupwPd1jb4PG54ba2Yl9jOGXC9Xg+pVPpNDHgNfvd2nwEXisSkokk5RUM0DZ+awWAcnzBCgQD8PjcCfi8CHhf0vAEfN3rUiDHgByob8fA/9qIrTAy4TAGhUASRRDYixgAwGEcQJvXC60GQ6gS/B96eNsxNbOMMuMFgOM0GnFQ2oUhCKpqQ5MInZjAYJ0Q4FEAw4CWV1Rcx4AFiwC8dqQY8jvPAqVMgICLkdApTKoyRBm3Y+yIG3OflPPC5vAd+NAN+iiNlOJvP/0aXGQzGiTGwzrB6xGAwTp6TMuC0TSzgFU30N0JUATFhwuT4Eqk/URnJRM6/TwauM2Ey0qS/bqBydE7SA+/bASV2R0yYMDlx6auYdH1kE3EMosa8b5kJk5EnJ8cpGPAoscsMBuPk6TPiI7Y+haPnzsqCwei7/0+sHpy8AacVrp+EBgljwoTJiQp99/ME6+swgz/pAeXBhAkTKpFacixOYhR6NX731kHYRfEQS2TciFFu1Og5NWLUDVf9Lni8/CpBoMyGLiUOIacNECsgHjD5TKBrH2xWe//CUmfDmJTIr0QI2crQ3dbJr1GUUKSPgUI2oA1ECj7QfRg2S0xa+nqMJhkiTwN8Mcc2ELGpBFpjZJrakK2c7M/CLfdDJIVMn4KQowb+I/KSQ548CkrVkZNhBDr3kvN08GtHgVxGkTYf2njz4F05ASvs9RXwB0mj7XgI9VClpCPYeRge55EnLdLnQS1pQ08HuS69qKDMHAu5hF+NEg7A11kOR2c3H0Ag5SDVJgGeZvjcfj7wKIjJsSRlQ3auTBJC7pFwKBgZhR6IjkJvwE8uHYVxY0bSKPQGPPzGLjYKncHgCCPk50ehE/Ha2jA3qQM/vu3yo45CF8XHx/+SLlAvYNmyZUhNTeUiotBwatyb2rqw/mA7fAIVb7gFRIiSOele+zODp/5dNO76GPVfPIcuGzmqQDc8PS3w2Jpgr96I9rIDEOrSoCDKkTtiXwc6D32Ehi8fQ8X2WkiURKmQ9LbD/0LNnl0Iu1ogNIyHTMZlj6B1K1oPfYmmL/6E+u0foHXPOgRTFyPOrIokiBIOomPNd7DvwzdIGpquDGFilIUiFULW7ejY+X+oWvdPtO7+DN2txCBJ/PA1fIyyT56Htb2HKG4xZOQ4BT070Fa+G5btz6B6wztcXp02MaRiHwQyLXytW2DZ+Tyq1v6L5PUBrA1VCAsMkCfkQqHgDzoGX+tXaN3/OZrW/wUN2+hxbUVAqSMNAVJGtJza16Pmg2fQHSxGfEEORPx2/XB+jUMv3YeuYDzgJdu0bEDN2pfQtP1/sFRWIkRusICdhNd/gPI126EdPRPBlk3o3P8Wqr74O1p2vY/2qj0IhCQQqtOgCpWh9cBqNK4hx8SV6XqEMpfBbOx//GGfDW2f34kDH/+DL9MKwKQnDUkVaVPsRfvWJ1G59i0S/inX6AkLg/DbyHF0N6Kn7B3UbNkHZdYkqLX8tT8XIEaMvkoWJnUrFPBDHrZh5qg4JCbEcdMmDveZ2KhO6ei04cs9rfCEozqFnjORc+cqMRjfHrRhT+wH1Qsh+pqpx4FMjQszJhYTna7gGvWrVq1Cc3Mzv8HJeOD7qAe+H3YhnTUpMpFLrwd+VvHCcehtYkieR0eLA0mLX0B6cTFUmsi8ymFvHTq2/xt1e2uRctHPkZSeAkHQie7dT+PQmvfgFk1EwYofISkzjXueELDtQP27P0VtdSf0Y29CzoK7oNNwWSHkbkbDqjvR3NIFd1cPxEW/xrSrliLWYQyH9qPyld/D2rEPLicJyLwXM2++EdJINAKVT2PTm6+QFpYchrE/RuGll0BBPPPmT+9G2Y5aiNSlyFr+MFLzMiAMeWD58m7sXUdbXPFIufZ1FOQnRDIiuHc/gK//9zHZpxL6cXehcOlVUB5jEqtQzx5Uvv9zNJY3krUSjLrvDSTqInEItJMy+RsamqeSfBb2O6de7F+i7KtOpJ93KZQKst7xKba/+Xuut0GesAxFN/0SBlrs7jo0r3kFktm/QBwpu1D9a9j0xjPweYLEkK5E4cofQa+JHGig5zAaP/4JmhqtpMVph3TM45iysv/+g+7tqPrnH0mZlsHtIgHZD2DWjZf3pvEf/j3W/+NNsqSCfvydKLzoGii5Ag/BTxpedZtJY2LsCsSlJZ8zpiHyHnikte0nHrgh1Eg88OKR54G/tjPigfMTuQhEpHF3BueB91u2oWnLG7DFdOb0RwhZ/CykzbkAgQMvo76sgra1etFOuAcZRVq0fvQIOrr4wPTLMXrGJHR89WO0NvFhg5KBtOU/jNSRXsLEl/gS9Z+tAr21KQKpGsnzfwt9qBZuhRahssdRW+bmYyMoSx9Cbr4MPQfeRuPePQiSMFHhnSgu0aN9J3EequsjCY+CLHkC9OoQrNW7EQjwgQRNyc1ILxlL7r/IerBjI2q+fg8umycSQCHlkzd9CRRcT1+AVPdP0bjtM7i5jjZSfglzkDZ7GV8HAceex1G9ny+YtOUYM3tuZDlK+8fYu/oTfuXoGOf8DKK9j/aVO0Uohnni1fAdeA02qm+5MDnUhdchY3xJjCMShKd5HZq+XgVntCglRqgSUole3Au3nQ87AjEUqecjdfqFUAyqFE8j4RBCQaIXej3wVsxNthAP/IrT8x44nb+5949rLfByFv+8zWtRu+6vsLSSKzDud8ibPBFKjaI3HrJ0coGvQNKoyeRiRsJ89nWo++gdctGcUOYtQGIGMep8nEg7Dhkzl5CTDaJn7wfEu1wPHx8XFsghj8+BLimPuzEChx8jhoePi/7VfoTwqMugjF5sjYEYmr54kcJAami02GnbiYTKU5FYOI4LCTp2w1p7AH5/JL1AEvVGlZAp5VxY9E8giWoCCURi4uWLY2OP/BOIZBBJY3sMYmLFcdBNIA2ZjAHXOfZPPR25C0mDQ9EX1gdZjt4LinQkLvwRjOrIukBMzoEzRkJyjMTbkkSvBNmGlmlSIXRx6dzN6C97FK3N0djIX6h5AwT5F0MebZzojKRa9cWLFSY+gi/P3j8BxMZJSBw9HXL+WM6ZP67uEC+c/HLHHFuUIwV6y0T/aFmQv0hZRJbPxJ/IOAYp590Ala0alsPrYO9SImnhwyhYFpHcIgW66qvgD8qhKr4e6emkEU3SWQ7vQtgwE3GkoQ8YEDf9dujUGkizL0Xu5FLOkBin3ov4JAXsXPpmGOb15VswZRS6qvbAy9fryF87ml6fjy0vPQgracSknB9Jm7fgVthWn4dNL/6G6LUuKEffj6zxqXBw+VqgmfxdZOToERYqoS64DMk5WdBNuR15o7OI2nLA1WKHouRa5JO8cuZNJQ1cul071KW3cPlnlCTC3VgLCWlM586ZDg+Nr62EOH0FkooKiWNGji3kRveuP2D7S/ejoVaBtIse4LbNmjQFwcN/xPanLkRFDT0HYrBT5iFz8d2kVA6R/XyJ5o1Po+qrj+Dhz1VZdAvSxy6AsfBiUlZTuLB+f+4adNaYkELLadmt0Abb0UmOqaclGak0bNFyiG0VsDu0iJt9D+IShOihx9yVhIylP0d8ZglSFn6HqAUlfJWbYDm0Bpb9a+HyxOyDlIuT5OFsqo1sW65F8kXfR/qUy5F5/jWQt+8nx74BLhe5Dhfw14yWVbYE3aSsAsGYvM7oH733qV6gwtWSY3JyTV2uftFaR4UOXjvL4u9ET/nH6GomJjYsR+r4hRAJjkwnkBLjlFZEDA8xImEf7Fv+D1Y/fW6aClN2Hme8+9KTQsmeAfoEPBxqJTfW57DT57TReFk8dOn5kCmICQ+50HZwE1fYXBzx7NsPCGHMlMR4enxcr3CFGInqF07b0BQjZCod8UKi4XwwpV/62Di6MDDuaBLZgoOuh7rRWbEdPgc5R4EMpjHzITliG16I2RSJaRlGw2IzI8SkFYjl5ObqW+9HTDouD3kKDBlZkEiFCAccaC/fFlOmDnRWCaFPEx+jTIn0QvLjtqtGw5bNXIgqfSw0+kQIBm5z1oRc6+gydy60HAeU5YiBv16cTold5svnNItAIIZYng51UmQ8hIDc82KlHlLaRSnVQj7mQRRPz+V0glCigmb6s5h22WUQi22wfv0i6vfvIx65B56eKogTVyB36gwopKS1To5ZRHSD0hgPCe2donVFQfNVQ0wazZLsWzF56ZRe/RT2N6D5re/gcEUXpImXoXDFz2CMJ+nJsch06chc/gZyJ0wkuQTJceggjc9G5IhJvnINOR5aD4muIo14sTSDeJImSEjDmKp07fgFSMqdQBr8enIsCl7J0+20kJAwbeHNyJo5g5yvEhK5ko8njWtynGIJaSWT4/NUPYWD7/4DLsVkjLr0Nuh1Zu7Y1HlXIH/uCkgEPWh89Vq0tLmI60/KUKGFOGE8jBoNqXsWdHz1MhoO7kYwFCSOhhoSPSkbQzJkMuKWx1wPTkRqpF/7cxjpdVBGep84otfGNAtFl9wEqUzEnYNYwntHQik5Hx3RSeSakv2LzFPIeRtJhB+Ots2w1FSTyxLZR8hDHDyfCKpk2gCj111K8iZ5yUj5KTKhSY50F1AnR0yvm1xOykcHzfj7kT8pk9wPA475jAi5oLS7hy5H68VxOEkDTjONZswv09+zJEF3K7rK15LLRZDPI63jwdMBUqizSqExJ5ALQVp7B6tIGEGSAIVWwVXW/unpRSQ/BF9bPZw9HSS0L06TM5M41pGubP+hT9HloH1HpN3U9h+0aS+EmiuXKNHtojIQEuaqQdPBvWRZRG70AmgTkogBJ+H98qFE84iVWAaLHyixBBHoPgRrYzn8gcHSnohEGSwuKrGQ9dj7hltWQld0HlRqPbmBg/CRVnwPN/CNXOPmf6BDPR+qY5ZFDFwQUbAV76KtMzbNOST0XKISomF8fRqJ0NPmri0vsctnVKKQ5bAfvsZVaK7uJAqc6AriKWrkfWmlebcga2wmMYHtaPnqJTTtfxEt2+3QjRnD9epF00UklhCCtv2wVnwNrzsM+djvwqyhadxw7n8b9VUtRAOLYJx+PbSKAflI4mEsmQ6tifaYRcOjxKTrDeeXFWkwZE6BSjkwnsKvS03QZs6FljuW2HgKXbei/at/wgMJlCkFUGlIvYxuS0SZNI44MHpiBg6iYe0qeHp1x0Tk3vRzxCenEMNSiYbVf0NTeQXRMiSOSxJNN0BSrkZWRmxYLHxY0nJkZxLD3ptHlOg6FQPiZlwPFdXdtmbYGw/Bxx+b37YVDncG5NFnmRyx28big7fu32iqdnHjjbR5C6CSxaY9g0LPr1dI0HE4CQMezZS69uSXKJ6Im0+EG5Dz7UvIVwdPdKC21gDZIGkGCkKd8EafoahIy1AkHiQNaQXThhzF7YTf6+HD+TJQ5yMuxQQhaQT7nVthOVxDGk5O2A61kEqXF0kThSuymLx743xwtaxG3adPovKj36Jidx00o29F3uLvID4tFQKanivvaPrI8uB5EQbEDSaR9NFtWtC2juz70xfRUV9Ljv/42w+UfvsnHO1e6EtHfulybDqyzIVpSpCQQgcbhODt2YrOmkZyTA7Y9rfAUJTDbdoLl0Vs/nw4acq5m9eh/osncPjTd4kC6p/unBGuDCISKTO6HDmDEQc9f1oOvWXDS2x5nWaJ1OPI7gOO/Wj68gmUf/pPOBz2QdMLiAccN+EWGOLNQM8mVL7zCsSll0Ip7Z+uVz9wtBEj+CQqPnsebdWVCMacE/zt6Kk5BL/bR5yHRCj1mn75REWSWAi1Jo7kG3uPR/YRm47b54Cwvjh+MwpNd0R8NEEkD25frp3orKNhCig0icQTJc2U2G3U8VCLaX9AGIGOLXDaSRh/7iLDHORc+B2YEuOJEd2Cqvd+j7qKxkjeg+x/oHBt2VgGpuHy4ePoLx/ee03N85GZT/aNLtjqdsDZbePivfVNUORm9z0TH2xb8p+vcyca15D74bN/w+nz9u3325BoXeDOkSwfURhHcnIeOD1L7iJEd3J2hT7XCEbHVnRZ4BkkzaASy2DxVGIh630FS1c1MIxfCBU1/l47nHU74empRIe/CAm6SJp+RPOMCocIUk0+DPmzYC69HeNvfB6jFl2H+NxCiKPeNyd8ckpsHgPjotfmGMIdfy9aaLJmQp+SRRoxNPrI9McXPivKoPFRofGRZByDpAmHdTBPuYj44uT2clngqN8PX08Z2vwTEKehNzJNx21N6L8tJxwiSLTZMOROgUYjOzLNOSTcH12Owi3HrI8UuNOOlMm3KjxCaSJ0OdOgM5kgEAySjhMhpPEzkTJxGuR8z5x184dH6Jv+9UsDNalfxtRcSMQD0tFXhQJ0ZA3FDLGkf/xRJcpgcUcVfhu6MFh8rI0g69w5uO3oHdcWmzYqIjnEgogpDIe6EfTFxpOySpqH3AU3QGsmXpBjNxo++Q1qy0mLgMQfT89E4rmsCf3j+oSPjomP5hsOK6GfcgUpfeIiNe1CV0szwj1r0WYvglFHdUJky9htOeEiBBApUqDPmUr8QV2kZzY2zZkW7lpElulq37EenRM24H37IZnTP24PNOLsiVCUCJmBLFNIpaANqcHS9ZdkKKOveHd3wkO86yPTtMIZHamv0UFGai2t27FpxAlzkZRCLZ8T3U0b0bThMyjziiCOFlQvdD3y0yscIohVadCkjYOOFwUd5tgvbW/iCP3ieIkyWNzRhEMJRXIpEsavRHz2aIgGS3c86W258sTGDZRYBosjv+KkRUhKJsuhHljrNqFlw8fQjJ1EyjQS30t0PVY4hKRMU6BJnYWsJbdDTYMGS3sOSK+iIr+RukRl5BE59YjC4pYp0eI4o0L/owbcBFXKNKTOvQF6lX6QdLy46tHpE5NGu5EodsDZ9AY6aroHT8uhgDKJND7HrkBifmn/+iVVQSpTc8o3jANw06kQYuOPJlEGCx8YFitRuEKmv7FC/4uBrupSyNHz0HW+/dwrzk64SQOEGjyhOAsympiGU+ivQA5Z5goUz11IGicihCy70bbjf+imw+xj8zmaxDJoPPdfhH7hkV+RfhGM2WQ5WIeGvZvhOriN6JGZoH5RPwZuSxDJ48j9MAPp598MrUTeP80ZFmpX6fWINkZ65RictAce3Qm9qn1u/9kRgSwT2uxC/iTWomW/fdB0sRIKJ8IwegrfldICp6Ub9LWWfmmstbBz5SaGIjEPKr2JnDMfT/9I+lDYDOPYqZF9W75Gc50NMrW2Lx8aTiFl1RtGJBRzQbjGUEzc4BKbvn8c+Z+PIXH0b0B8OOyH+8A7aOnoiazT8+TTU7gwWSL0yZmkokXWA7Zm9NTsgLc3j6NL5FwiOXJLR7kfQkSi6UjAEXHRcgiF42EaNyVSpq2fo75RBJVO3peOy4DSt30kri+GBHDrYf1U0sCKbEvLwXVwDbr87t5tzraQ/8j5kGXurGLdoJEEd9dE/miZkHIIhYL9yulMSIi+a8vtn0CvA71v1VMRn6Umq0H4LZXoqtrZWwdCvjZYynZDEXc5Rl11J+QqIYK2RrR9/SZ67J7efOm2kXs9AhcmoQ3KIkjlNN6B7s2r4CC6Q5OTA6k6MmDM2VwR6WLvJwEEPMQT9nsj60RjRZzeAELB2DLyIkAnVuJ6RaNhfTLweCL1LTa+r+70hY1H/LQEskcbbG2kgUEfLfRuE4Cf6EeHj1hjgQKq0pXQKug2tExp3YumI+2Uwnswes5o4gDRzI/c9+BCB/NGj2mQc+J0DB/db399IhCrYSy5Egr6Vk75/1DenQ+9LprXkXlzx84H018uXDMHidkSshyAr+UgOusPwM+nP1NC/iP/6IGQX/JHfyNydE7agEd2QncY2UlE+Z4dgVQLQ+FF0PEvanfseBtu75HpQt5OONrL4fX6uXVl8XVEudP3vi3orNzHX5hoeg9ctTvhJK1LsaoI8cULodDI+LhIOq6Aya80ZyWdT4Qgg4pUUoVcGUlHg3qJ5stLv9gBcYMJn5Kj33FS4cMp/cIjEnRWo6O+G1LSQubC+D9+A34bOdRJuRDLqbELwtWxFQ6XlHgMNO440psXJZrfIDIgXWwc+a9X6Los5zIYuHfT5dBkjiaVUMqn4zbm6Z8H/esjmpcZ5sJRXHzQUYF2qx0yOvg7druzJgOvY0RGJpHyiF5T8l9veZw5IUbPHX3rg5Z7X1zIeRitu99Dd6sXAhrmqUHHrk/gDeQRry4DgvjFGHX+Umj1XjjqV6Nh2xqic6iRpdsTA057Arn+5wHn4muCdfdLaCp3cPnK0y9EavFM7o2Pri2voq2OvrrGpw354WnZgrb9W4jxdHJhQmkWNOlmkm8TuirLeZ1FjGnXATi9UkiJ19u7rwESgSzHnOeR8XwKPkw//ZdITk1HsHUXWst2wsc1GsIIOKrQsvsDeBwC6EbdiIzCHH4bD2lwRNLEimbKsyiYNQ0KfhDYwPjBJXI8dOGIOP6PT9AvjvwX2UYghTJlOnQpVJEEoB81j5Qzn653W5qUD6PH7o42dPg8eAnY9pPz/RT2Dm+/8DMmvecUtTXH5uRmYtvXAi9pdXETLvAzRUVe7aE7OhtCu0wTodBL4W6sgLfjEKloAcjjx0AmjaQJ+cvQtu5/8MhSoNSZIRLRbh8zVIlm+DuqYG8uhzucAkNaMsmNGO+qd1GzYRU83mSkLvwhUooKIeH7z0PeQ6Qy74AkZQoU9DUySRIk7o1oa1MgfuxSGJMTSR5h+Hv2omPnJpD7mdw/qYibOIl7F5zm4al/D82Hy0klFUBqHAVjXgkkXN/OIEIqsoMcj6Wxg6wHIUmdj7gEelNG4r0kr5ZKOmGDGLK4EqJginrzCntaYdn+PPFiQ4gbNRlyiRhBezUsBz6Ao4eO8I6DedKSmNGVNnRvegL1B3dBQpSLnpttIho3uAS795LKvRU+j48oGA3xKmZDraIva/dPF7BsQdPB3ZznIFAlQJ9Nyk9O3QlqXElZHSyHLGUC5DJyT0kTILBthMVqQGLpEujjTeQeC8Jn3QnLvu3w0nrmT0f8xPG9ZequfRvN5bVkWQJ5QilMOaMg4fosQ/CTY2xZ9wwsgSwkZReQe5fesf2P79sXCqmg1NsMEo+K3LMK2DGrJBGJCfEjaCa2HqzZ1Ujqn5ycLz8TG7k+Z1KnBLr3o3XbS+S+rYSPGNtwyANvVwW6qzbAWkHk4PukTjVCXTwHMsvnqP/6n2jesQMBtQYSqmvUIbirt6O7+TC8Tjtc7ZVwWYRQ5+fBseNxNOzdBVePje4JAWcDbNV8vmWfoHHz5wjmr0RadgrxpnVQpxVAqc+CJLAdTbs2wdm2nxhnkrZyCzHKKmiSCqEyxUFI9I9ApIFMryPebzm6qvfA3Ul+K76GozMATd5kqHRaUm6x52qHbftzqN+zmRifVvq+CYKuJth7lNClUl3nJbrufTRs/wTd7a3kbiSND3c7N4eD2mCESEJ0ZGo+0Q/01dgvYW/ZR45tI6wHPkW3W4fECdchbeZSTn/4rdvQQhshh/fBYa2AT5IBra5v9LwsfhykRC9J1EQHk7yPfOuHSgiBHnJtNr2K9lqiy+nA4bALPlcnBHJS7hoV2a4Llg1/RUsF3ysQcpP6XUEcOR16dr6CjspdRJ/vAkwzodZKEbLXwCOZgoxJEyD01qJ944toqyqDx0UaRQKyrasdvu56dBMvvb28mjRS6MyILng7D6ObXgd63fa/h7aGLuiKF0BnGFjGp196dQKd6MnrRLbOixmTiCPzTWdi27K3Er/5506i5unFjc7ERmeLOkkn/kxALqS3ux0B60co++9/EdSlQMxP+iGUzEDGksXQaJMglsQca9gPv70DzkN/w/71+0gjgA5aILexswOivNtQMIkYPVMyRPwmvsN/wb51X5EL7oBIMwpJC+5Fak4GfC1vouKTvUi48KeIS9LBtv5GVOzvhqfLSnKjqCFPyoI2byFRCP+Dpb4FHqeL3JykISEzQKbNR+L5JK+sFC51FF/Fc9i/djNp8TbB66bPm8i5qFKhMibCWHIRAjVvoLOxidzIdBSfACK5EVKNnhsZzxHywmdvhT/xcky69GYEDj2Gw1v2w2dr5WdekkNmIuUUeZZAoK35OoS1Jche8TTi43ojjiDs60THpt+jgRhej72TGOYQ9/qNRJMMY+ntyJwwA/RVTTpfO53UoY14DG4b7cank7ooIdUmQDP2e8jSrsGB9dvIcboh1hQjefH9SCFehqvq76ja2IbUxd+HwaxG19obUHWgC96eLr5MNZCnFsJUOB/Cts9gqSYVmnvtTMiVg0xDriVfDmG/DV5bBzTTHsOoGTN6Z5g620TmQqfempd7y8GIFjxwxXiMG1M8cmZiq6jHgy9vhiVo4OdCF0UM+RmciS3st8NrbydlzwcMhlBG7uU4iPxWeF1uTrVyYeo4SEnDM9BVz03I0ocK8rgEhGzECNDb8BgIVSn8DGZ9hFytnKfdC9GpInUy5AOnROZ0Vjv8HmLcuIBB6n0vxGT3NBDdHe1p4JGYiBHVR3Sdq4M0QhykXvJxBBFppMiUxFhG8ws64emxkPLqKzChjNYxsk9+p2FfDylTkobuatBjJ4bJ70EoTOKkA84pBu7a2Mi1iT1k+q63Op6UO93OD19nPfyx144cKI0Pu9oQ4LeT6HMgJQ5cyG2BP0T0nJKO8ieNge6W3jQcAjF3POGAk+gwPmwwRApSxvGQSKMzSZ05QkE/NxMbFaq35mfYcf8dVx11JraTNOA7YAtHDTipbNxUqvQiDk9Fw2CcKfp9zCRqwK+cMAIN+KaIAeedAoGQGnFqwJlOYYw0SKODN+ABv484W8SAZ1IDfvXpmUo10lSjEnlmRbQQv86ECZMTl4H1Jro+AqE6JSr9yoQJkxEo/epBpL/xWJy0AafdoHTiCe6X7owTsiMmTJicoETrDalTtC4NfB1vxBDVIX2D+vrKZrByY8JkOEt/m0p/jseJG3Au32jmfTvijDkTJkxOUmgFjQitXLQ6jTS4c+6nS3hDPmh5MWEy3KXPiPfa2uNw8qNFonmeQOYMBuMY9FYhujDS6xN//tzPSC8LxsiF1wXcz/HrwUkYcJopbRlEWgl9MnCdCRMmJy60avHLI5BeT6NXmD5hMtKFqxj0P16Ozsl74CTDMELc/1wXIPtjf+zv5P5I5ey3zHejH6+yDleiXYbsj/2N+L/YukB+j8dJGnCSIc00Kr3rtNXMhAmTExI6urRfGK1DXAUbgfB6ZKBu6Vc+TJiMBIm978nyCSiFkzLgfLuA5B3JvLe1wIQJk5OU6AC2SC/WiVTW4Qh35lxZRMqE6RUmI1f6erQjjXwaRmvJ0Tk5D5zmxuUY2Rn9ZcKEySkIX5doxeV+ufARSK8e6TPe0WUmTEaccDohpkFLg4/BSQ1i4zKlHgOXeVQGrjNhwuS4MuCP/huZkLOPKRdq0GPXmTAZOUI9cL7xStZPRCmcmgdOWwbcTlhLmQmTkxZab6J1KUQlWo9GGnwZRCW2jJgwGYFC3wfndEJv2LE5cQNO8uJaCfSFc07x8C1l/gV0JkyYnKBwXmZEaHdxtAU+EuHOO1oW0bJhOoXJiBTOyHJ1onf9OJycBx5tFUQVDl/5mDBhcjISrTvcP56+pZFFny6J/NKgwcqMCZPhLtzNHxH6E/nvmJykASdEd8JXOgaDcYrE1qGRWpXoeXPClwXTKYyRSr86QH+5QPrfUTnpZ+Cce09aC+T/yC919ekvEyZMTk64OhSREQmvoHoHxnLlQZaZTmEyEoW7/6P1gP/lKsrROYUudN7VjwoNi11nwoTJcSSmDnGjTqPdZyMQetrcufPlwYTJSJaB9YCrIEfnJAz4YBnTZap8mDBhcuISrUOxy1RGIvz5c0LKgyuH2LJiwmQkCV8Xovb1OJywAY9kF/NHdtbn5rM/9sf+TvqPr6jR5eNX1+FH5Kz5MiB/IVoOTK+wvxH7F+lKj9YJ+nssTvoZeKxwCogJEyanIJHWdm8dGqn0lkHU+4g4BpFlJkxGmkQ8ceog03WuLhyDk38GzmVIMudaBnxl620pMGHC5PgSrT9EovXpOBV1eMKXAdMjTJhEhNaDaF04AZ1wkh44zZNUNm6iBbpCFU+Q/DBhwuTEJdq6jhgurj5xFXjkwemr6AQWTKcwGenC6QW+LlA5DiduwLk6xmdORCwIQUgqmjAcYMKEyUmKgNQdkYDWq1jvcwRCzz2qU4gnznQKk5EsIqIHhBFjS/6P/B4LQXFxMZciGAzilVdewZQpU7iIKCHiLXi9Xny9qwy/eGkNugJqKGVSiEV8AgaDccr4AwE4XG7EiXvwi1vmYvyYEmg0GohEIggE1MIPP6hO8fl82H+4Bj95+mO0eZRQymWQMJ3CYJD6EYbH64PbZsWiUSL87O4bYTAYIJVKcfPNN2Pbtm18ypM14C98DldICpn4JB+dMxiMo+L2+aEVOPDwLfMwfuwIM+B//RDdPjHkzHozGL0EiRHv6enGwlHS02PA9xyswjP/XA1rtw3cMzwGg3FaoIbaqFPitpWzUTKqYMQY8PLqBjzxKvHAOzq5LnQGgxGBVv0QBJgzJhk3X3UJ9Hr9qRlwWrGoAW9rt+BgeTUsFitX+ViFYzBOA6SmikRC6HU6FOakIzk5CWq1GkKhcNgacKo7/H4/2jssOHC4Gu3tHfD5iU45gUE7DMawh1R7Wv9lMhmy0pKQn5sNrVYLiURyagacVjan04nOzk7Y7XbOgDMYjNMDraxKpZJrZVORy+Wc8R6uBpwSoM/+HQ5YrVZOp1Adw5wCBiMCrfvU46aG22QycfpBLBbjpptuOnkDHu3y8ng83C9Ny2AwTg+0stLWNTXctNVNK+pwNt4UqkOYTmEwBofWf9qwp0acGm+qH+j6SRtwCjXgUUMeFdZaZjBOD9HKSiX67Hu4G/BYXRLVJ0ynMBgRojogqhPoL10/JQNOiVYuVskYjDND1GgPd+MdhekUBuPYDNQJp2zAGQwGg8FgnD0GGnD2QjeDwWAwGEMQZsAZDAaDwRiCMAPOYDAYDMYQhBlwBoPBYDCGIMyAMxgMBoMxBGEGnMFgMBiMIQgz4AwGg8FgDEGYAWcwGAwGYwjCDDiDwWAwGEMQZsAZDAaDwRiCMAPOYDAYDMYQhBlwBoPBYDCGIMyAMxgMBoMxBGEGnMFgMBiMIQgz4AwGg8FgDEGYAWcwGAwGYwjCDDiDwWAwGEMQZsAZDAaDwRiCMAPOYDAYDMYQhBlwBoPBYDCGIMyAMxgMBoMxBGEGnMFgMBiMIQgz4AwGg8FgDEGYAWcwGAwGYwjCDDiDwWAwGEMQZsAZDAaDwRiCMAPOYDAYDMYQhBlwBoPBYDCGIMyAMxgMBoMxBGEGnMFgMBiMIQgz4AwGg8FgDEGYAWcwGAwGYwjCDDiDwWAwGEMQZsAZDAaDwRiCCIqLi8N0IRgM4pVXXsGUKVO4CAaDwTgbhEMhuHt6ULVhPdrKDsFaU8vHMBjDC7FUCnNODjKnTkXK6DEQyWQQCAR87JHcdNNN2LZtG792AgacViZfZyeCHg+CbhdCgQAfwzibCERiiBUKiORySI1Gsi7iYxiMoUmI6KCOigoc+vQTHPz4I/jsNkiEQgjIn5AotWPoNQZjyBEmljdE/gsSCRA7q0lKwviVlyFv3nnQJCQMashPyoAHnE50bN4ECxGv1QpPexsx4m4+lnE2EckVkMeZITOZYSLXzDx5KmfIGYyhSMDrxaHVn2HHP/+JnrpaaIhnoiWikpCGKjHiVKgRZzCGC0FitP2hMHzE9joDfth9PriCIaRNmoTJ112PpNGjIRJL+NQRBhpwUXx8/C/pQpi0ApYtW4bU1FQuwm+3o+Hd/6DhP+/AWV8Hf083wsz7Pmeg18Jvs8Hd2oqeQwfhd9ihysiAWKXiUzAYQ4MQUWQ73/o3Nr34AgKdFqSq1YhXKTkjLhGJIKJeODPejGEGbZDShqlMLOLudTURqVCAFmJv28rLEZede4QnvmrVKjQ3N/NrRxnERrvNrVu+RsunnxAv3MGHMs5Vgi4X2tZ+Sa7ZFvaIgzHkqFizBjv+9SZCRNdk63QwKORc1zmDMZKQkcZqnEKBVJUanVWV+OLPf4KXONLHYtAudK/FgvJnnkLn7l1cIsbQQJOTg+KfPgCZOY4POTvQ5zo+fxBOtxcHq1pwsLoFNocHlY0dfAqGmFTWlHgdjDoVZozLQWayETKJGBLSGh9J3qaz04pPf/tb1G/ehAKjEUpSBgzGSCZM/tqcLjQ7nJh8082Y8Z3v8jEn+Azc1diA/Y/+Fu4YV51x7iNSKjHhsT9AmZbGh3y7hEJhdHQ5sLeiEVv31+LrvTWw2twQisQQColiJoZJIBBCMMK9q3AoyD2yoj1ddDkU9CM90YCpo7MwfVw2irISoVHJ+dTDF1oG5Wu+wJo//RE6vw8pajUfw2CMbOhz8ZoeG3wyGW544x/QxCdw4SdkwO2VFdj9858h5PNxiRhDh9In/gJ1Zha/9u3hdPvw1c4KrN1WgS37ahAUSCCRKSGRKyGSyCEUSznDTQ04NegjmVAwQIxXiPulxjvodcNPxeOAQS3FlNGZOH9KISaOSoeYeOTDFa/DgQ3PPYuDq95FnsEAhZh53wxGlFanE012B86770cYt/IyLmygAT/qM3BmvIcmZ8O7dXv9eOrNtXiayKZ99ZBo4qBLyITanAqFLh5SpRZiqRwiYsRHuvGm0DKgZUEbODKlDkoD8bjjUqElZeYMy/HRhoP4w6ur8doHW7jHEMMVasA7qiqhlpCyYM+8GYx+aKWRd8Ib9+zhQ46E1RrGN6KprRu3PfJPfLB+H5xBCXRJOVAZkiAmxokZ6xNHKJJAqtBAY06DISUf7T0+vP7BVjz776/QZXPxqYYXQeIkOCwWyInnzV4RYzD6o5CIQWtFT8vRH2UzA844JcJhoKbRgp/85X+obLBAqjJyHqRYquCedTNODfqIQSJXESOeB0hUePfLvXj5f5uGpSce9Pvh6ekh3jcdG8HuGQYjFlojJCIhfI6jvwnGDDjjlOjosuPv732NutYuqIy0CzgtMlCNcVqgHrkmLh1yjRH/W7sP//l8Fzeyf1hBjLZQFBl1P3LNtwDihEKYZ89BPC9x4zIiilkVD33pdC5MY+ISn1mUZujGT4vsz8yHnQ4kciiLab7ToY1nAxVPBjoP4bFgBpxx0tBn3qu+3IONu6shVRuh0idyniPj9CIUS6AyJEAkU+HV97fgow37+RjGcEGQtxB5t38fRT+4r1cKv38H0heOhzSuEGnX3s6FJeTwG5xJTHlIufo2bn9JeXzYaUAg18C0lJ7HHUgqOruvuA43mNZlnDQNxOv+75o9CIoUUOoTOE+KcWagI/jVphR4/CG8+cl21DZb+RjG0KcImT+4AfHjEuDe+THKfnU/dr2+BUJDEZIvWgJDjoZPx2AMzukx4IkXYOLb72Li/RdBygedCxi/8yzm/HdVr4y7YSJRiHwk45R5+7OdsLsDUGjN3GhqxpmFjiugDaWWjh58vPEAH8oY8kyYjvQkNWDvQNem1WjbXQbbf3+HdSuWYdO9v0Fb1cBnn2oYV96Hqf+K6rS3Mf6HVyD6+rzmxuf66bviC/RcuChjAgoee6M3fMbzTyApn4s6Lqo512Hi3/k8//06iq+djt4HZcIcFDzft785/30evVNQ6Mci77fPYzYJn/rwMsj44CjS9NkY/XLftjPfuA86GqEbjdxfP8dtN2rJUoz/78sovGQqmNoenNNjwKkDxr3je254YkJlHjJ+9lcUL9DAWVUFO5W6ZigXfRcZBewZzDdhb3kjN+KcDrSSKlhZfluoiAEPCyXYfqAOVWxGu+EBry5DPi983Z2RFYQjI0Sp0OUoAhk0M5Yja8UcSHztsFdXwe0QQTtrIZKnjoVo8u2YcEki3BWf4eCfX0fnwQrIF9yJ+HQdjAuvQWKBC83PPY6d/9zLzT2gm3oBlEo+78EQSKCedg0Kv3sZ5OFmOMj+nHYpzJfehrxLppD6n4u8vz2BRKMP3tY6ONp7yCEnIuO3P4HBkIG0629A4qgkBC018InHIG6sgc+YoFmCkr/8CHqZDa56opsbrBCoZiH/t7dCqxRH7AgRzaLZEO3ai66qWvj5TRn9GYZd6CIoxoyFMT8T/t3/xJ4f/xA7qTzwG1T+60PYOtmt8E34eONBbrCaXG2AQMg+YfqtQRQa9cLrW7twuLY9VrUzhipOF+iXC2g9Ekn5mffU2YhfuAC6lAHWVShAyGVB17qP0L5xA1q/+BzdzfTLkEpI9HIIO4kRdRLdl78Io+67HopgFdq+3AiXzY9Aeyt8/kQk3/kTTLhmLJy718C6rxr+Y6lCqQKq8dOgVvrQ/eEz2HX/D3Hg75uJITVAnZcMcbwKvh0fofnz1Wjf8BU69tchGAiTczFDkamBPDGBGJdutD7zc+z65W/QWtn3FoV49jTQhwPBzgZ0bvocrZvLSTkIITMXQJvf99ggVLEKux95Em37W/kQxkDOqAEXiJOQdNM9KLi7T9JK+z55KSlehPzv3YOU2NYZRSCEduHNyL18IVSmSOeLUJ6G5Jv755U6fsB2HGJu0I9ICvibGvpabu4mtL+3Cpbmga/jZCD5e9/vn2/pgCGf2kKk33onci+d2Nd9xGFGwg13IfOi6ZDz9U9QtBT5N10NY1E+4i+5Dvkkv9yVk/u2S52CvDvu7t1X7iUzIFPH5CpPQtzF13LbcWluvRbm/HNj4Ad9lYlOjyoUi7l3lk8LIjHyCtNw2yVF+H6MfHdWEjI0x749dWYdFo2Jg1F+8j0/qgQTrl5YyO8vH8vH6CNdeCdIWBuHG8m2N85IQvq39AE42uPh9oVQXtcGt+fcm2gpFCC1jfMcGSdEfSPopyoEajUUaemcjpCMuwR5370DeddcCn1q/xtLIJIQvSZDwG5FyOtFOMRHUOrWofzpv+DwUy+h6etKSMZciJxb7kTqaCXsG94i4TTuf7AFQzBceDtyVi6COv7Y0/XSqW7JXiNDXKiI+PpIwwUiCLmJRsLw27oQom9I8Jc+RFoGAe6z02RbbhPqUdNfHv4eCYeDXO9DqH0basjxVbzyb3TWO7k4iq+hlmvgMI7OmTPgJZdj4pOPIPui+Ug8r08yvvNzpE+MGMiAQwrtnLlImj+x3zMOgWgK0m5YBF2aEQLaTBxzNUr/9EtkLx6Q1633EyM+8BvYPngszfB2eaBa8ENkjeeDB0FSvBCjHvkZsuaf3y/fzLsfRemNE/lUBHkiDDPnIG58JvHvY1FDO30eTKNzIImeQOIYJCy8GDm334XcK5chieQXXxrZTlG6BMU/uBtJC/r2l3zlncieG3lwJNSnIOU79yPv6uXcdlyaC5cj/65bEJ+X2K8OnA32Vzajx+GGhBhvwemapIXU8PhEI2aPTcJ5MXLBzCwszddCcZQ7VG9Iwl3XlGDFKA3UkpMrGVOSCbcsLsLyycn8/lJwxQWFuK6UeBcn2qkgV2M62XZ6jg7Gb2kYgEAohpg0TstqWtFtP/e+y2+t3I6W3Z/za4zj4tqG8jf2EUWkh2nJ7Zjw1DMYf+t0iAUhBH098HR4+ITk2pPGm27uxZxeSFq0DGnLV8CU3uely+bdhMJrliN+nAHWN55C3YYKhEIKhImNNq24DTnEGVI4N+DgvY+io1MYsaHhYzQCfW44d2wkXr0E+qU/QOmTz2DMzdMgIY5Q555KCPLmIpXqp/mLkHrxCiRPzoOIr4fhzk64auuJ86RD4t1/ROmjv0Jybt9T8MDaTbCRX0lcDuIXreDOhUrSvGmQE4+fceKcOQMuVUOqkaD+l0uxbjkvd70Cb3wGzPPnQUmudbhuK9rrApDmToMurk8JC+YuhDlgRdeOrXDYSDOT5CWRBVH7cExed78Of1IOzHNmQdFPf4fhO7AatR9+BU9Ah/SH38O0vzyChAIFhJIY7azOQtLCC4inbIb77Xv78r3/Wbg8GqgW34/M8adWPEK5EopkEVr/8nOsJ3lu+tlb8JrziGFfQiqdE/UPXMnv71Yc/uQgwrLIcSknXIn0OXK0PfsQNnDxy7DlgefhUE9F9vLJEMlP1LqcGZo7bAiGwpAS43Um6Nh9AFc/vh7P7/eQBgL9Tq4cy6+dgf89MBs/m6mHIDEBv75jJv734BQ8em0RJulkSMjPxF+Xp5OtBcjMysZfHpyHf/9sLv770DRcnSyEaKBtJ15Mdm4KpqRJIaqrxopH1uC2F6pQK5RhxmgzdEoxlGoD7r/3PPzvYSI/GI1JeuL5kE3VxGv/wS2zSPh0fCdNFNOgEkAsicNDJP07D8zBWz+fiZ/PMkN/mto4Ueg0uRKZApZuJzzec+9REJ3T/cBbv0Pj16u4j7QwjocHnv8+hB1PfA6/WAGpyQypNATP53/Criffg8ftI562B0HizQZ7utG95iP0WEjDTaKBzFSL+mdXw+0WQkzqgW/9Mzi0JQjtxMUo/sNjyCxNhfVv1+Hwagssn7yF7i4zUu55BJMe/yG0zkOoe+UpdDXHuvAE6hHz+6O9Kc6t/8Khv70Jh0tN9meGRNiD9vdeRd3n++H6/E3UV5N0xPMWaYKwrFqD7hYraXgYSHukA23vvYv23bWkAUEcrI4NqP30QCTfINmn6yMc+P7vYe0WQaIzR/JWHkb1755CZyOdxtsbOecA79IzjsqgHzOxlR/Grp/8mEtwQiRdgIlP3wHB1hex5/cfEB+Yh3hX0rQCKPVRFyWO3ETfg7LxY5T/+QX09JCW44XkpromGa2v/Q7Vn1UhBC1SHn0D6YptqHj8ERBnOoJQBBnJS6GLurrxSL33Dsir3sPhv76CQT+bap6BwrsvhFKTBGVWHDybXkf5a+/C1haEJHc68u66E4p9z2LnyxujvToc0jk/wOTvz4Tjvd9jz6tbEY6fi7GP30GO+23sfPAd9HXCZyLv+T9BW/M/lD/zOncMgnkPYvb38tDxnxdR8eYGvgtfAFk+2d8P7oNw3a9w4J095ObkImJQIPP3/0Ccdx0aP1gLd7TxLTXCtGA5kuMOYttDL8PjPHYLdeJfnoIqPYNfO728+J8N3Pzc2qR8bhDbaUEsxYyZRbhztgmxOVobW/DC+xWojcvDHy+NRxNp9b9RLsKNi7IRX1OBVfJ0rCxUEI/Ag+r91fjFFjkevSsLgkN1eGpdN5ZdVowpai9ee3U73m/tU1RihRyXXFyK6wol2PX5Tvx6k63f82SpNhm/ubcQ6USB1Lf6oU1QIUHpwP89sx+W0UW4Z7YO9hYnWkVyjImXor22GS+s6cDMpUWYbQjhtdd2wJqTj++QBsfeVdvxx32n0VMmN6nbboHA1Y6/3H85CjIjXyg6V2jdswb7//UIZ8gLl/8QKZOXcFPqHg1LdTXeuvN2JJArYFYo+FAGgxHloMUKeUoKbvrXW9z6CX3M5LSgyUPSysuR+4OHMfZXj/DyfZgH9Hh7N38OO/TQjZ9KPB8SkDgLSQUh+Oq2wxY13poCJF925YC87oZpsEfgsVg2ouwXD2P/H59F/fpdEI+5CgU3zyWmUkQUdQJp+YXgqD5ygIRv1144BAIIdPoBz7xPEJcL3vbWmJGTIoiVqZAauuBuctOG7iAkknji/Y2ej/yfRc+RyM9/gNTJmRBqdZCe5Q8+dNlJC5oYEfoM/EzgbG3HfzbWYU2FE+pUMy4oMsBxuB7ru4WIjzdhZo4aWoUPa3e24ss1TWgh2ziaWvH0hnYkjUsgzakQJGolpucboCDXT0yMbH7a0QxIGP5BWvhxRWbkk3NsrmvEE6/vx3tVDvjCOswYo0BCnAoKvwMffXIQv/i0HdGndbo0LfIUpEwEAaRmJKMkTkI8UAnG5p6mcQJR6D0pFMPp8ZNjP3c9XGHIj6pPXuQ88YCn75kmg8E4vZwxi6CeezVyrroCKvtalD32Oxzg5AVYu/gEUbq3oXFjMxSpOVClGaGeMRWqcAi27Zt6PXnN+dcj+/IVUHR+EZPXi+js5hMcE9IYaN6BhpfeQUddOxSTL4b+eNMS0o8r8IunByEEYhVEMhEER/TpxhKA++BXqHoyeo4x8sx/4XKf3W5Try9A7R6EdITgGcDZ3IbX11Tjs3oPKTEJMhLkkIpd+HyfHTqzATNGmWCwWfFZ24Cuvxhot2Nrhw2frT6Ex945iA+q+w9aDAZCaO90wUMaVUUZWm6Ajt4Yj1uuGI2fLUiBSSGiHSbEUAroVYOIztPNb8tB1rkHGeQ6HtGMCQdg6XBg594GPPuffXh622DdQt8M+ooN7YWMDDCiA4a8cDRXnhPi6Wrlus7NWhkUQRuqV/8dTds+AP1sKoPBOP2cIQNuhLYkBUJ/I5pefgVtW76GhZO9OPKbDC44V2+GOzkV2pS5SJySiHDzR2j6uoePN0M7Jpkkq0XTq6/1y8tzRF5HJ2yzw+/2EPvTA193gHgGVgScGuhGpXGeTSyySROgJgoy1GmN8aJJsviEU5yohj5bssDvIJ5hqpIO4ByEengtJMLbA/uh6DnGyK4KBM4Rr+tMve9vHl2Il++djgdmGbhBjV12L/fMvW13G+qkImgUEthb7bAQAxYMutFNnDttZhoeuTAF9ZsaUU5u57TMRFy9OB+3EbllYQ7yFf0bPWG/D5VVraggjT9Nfi5euncGnry5CIsLDJAH/Gjc2oQ9xGSn52Thdz8oxdUFGkgEnfj0aycaW+xwijRYecUE/N9cHTeCmNJZ2YV9Tj9p2GhxEb9vKjPMR29onDr9y97ZXoctT333nJCKj57jPG6lVIzcBDVkgR4cXvVXNG39gD9aBoNxOjllAy5JWIicn1wDnckE7bRSKIlSDzQ29HrNIaIoBaIk6MdlQ0bSyEyFyHz8UaQm8gli8HdvQE+lGbql85GQqoJ97adw9epdYkh9RDlKkqAbncXnVYSsJ/6A5MEeAcrMSLju15j8yxugzUjk06cibuUyJI1OR2jdOliJHfS2NcNe0wD5/B9i0q0T+HQmqBd+F+OunYSQ/RCaP90RybO9BXaHDxL9TGReOyOStnAFJr71RyQaTkRJB+HtqIC9ygrdinuRPTGV318hUu9+FKOuoNMiBWHdug3SMRcj96qLoUmNHI/MlIOkGx5G8U2TIB6W0xGF4fX60Wnzossd4sYi+D1+1B+ux9+3WeEUSKASdWFrBWmthb3YXeVAgBh1l8eOXRV2dLlIY0wtQ6KnCU+93YhGTxBBkgfNZ+snW/B+I7+bGFpqWvCn98uxu83HpQsGfNizvQYvb25Hp6sdjzy6FZ+2knxJpKu9GQ/8YR/Wuv04eKgeXxx2whVw4+P3a1BGj5kYbq+vG8/9uxoHbH74+H1X7yzDi/tPooV5ioSIx+tzdkMeckIv8pxVMUqDiNfIiAEXQiMnRjxeDaXQj/1v/hoNm99FiJQzg8E4fZzyIDaRJh8ZP/gRkscncl2Kwaa9qPjzg2irjsQjdwGKb7gUxpJkvpXgg/vgHviMoyBp/7J3EBuHzIj4K+5D/vLREHkrcPju+9AaO9lU3oUouXEZDKOS+vLavwu+uGKIGz7rP4hNooVu9hXIvWY+1Ia+558hexsxoJtQ+4d/otsVUazy0fOResHFSJiWBXGvV+mEc08ZOlc/i+qNfQchnXoNCq5YBGNmZHpC2JtgoecjHAttaFP/QWw3paDx1T+h6ovKSFoOGVSl85Bx9dUwZ+l7nf5QdxOaX/stqr5shMiQhIQr70X6NNLoIYqQTwF/Wx3a33kK1WsriRLkg4/CmRzE9sgLH+OTjQcQlzOBDznzpE4fj6fPp4MdwrC1tOGZ/1ViawcxvJHoEYfX2YOetho8//MrMDovBT0Nh7DpD9egKFmDRN2x3+s9G3STlnhlmwNucv/nL7krMrCNHwDJBrExGMfmeIPYvsEodDFkqSUwTsrhngUGyr9Ay4H+D6UFxjFImpMXeWZIqrB94xdwJ82BUdOGzm17iOfFRRAkkGWMgXFCJsSuWrQQz3egnRLGjUXizNy+vL76DJ7086CXt6Bzxz74Yhv3UhP0pROgSdTyAcQMWmtg2bUXXvuAnFVZSFwwHpJeA96N7i82w25z8et9iHJmInkM7/ZbD6NxwwHIxy6ATtaEzp0HIseQPh1po9Ww79+G7rqBD/yJGS+cibjChD4D3n4Y7TsPwe/mu8fViTBNGA+lKdr4CMBbewCd+yoROIFHicPNgGtSErAgkxqmECzNXdhR74Dz3B2/dcYZagacYnMHUNnugEeiQ/b5NyNt6lKIZEpmwBmM43AGDTjjXGS4GXBGf4aiAafYPAEcbrbDJ9Vi1KX3I2n8AlhqapgBZzCOwdl7jYzBYDB4XL4AXP4gFPoEaFPyievQfzAeg8E4eZgBZzAYZww6b0BLjweHW53QpI5CEfG+VQmZfCyDwfgmMAPOYAwDHJ4gOh2+c0Lc9MMWBPq2QEu3hxvEpkkpQuEl98CQPZaLYzAY3xxmwBmMYQD1csta7OeEWIkRp+/vt5JjqrW4oEoZhVEr74cxL+YDQQwG4xvDBrENM9ggtuHNwEFsPkc32vau4WPPLrbGw9ykLel6IaQiIWo6nFAS4z366l9AnZTDp+qDjUJnMI4NG4U+whiuBpzO/iYcMO6JenkjjYEG/Fwi+jETVdgNm8cPdXIBxlz7K2iS8/gU/WEGnME4NmwU+kkjgTQ1B9qCrL5vfDPOKkKhGOMm5OLPP56H/zwYkRdvyEGxLvKZT8a5RbfbHxmwtuJHRzXeDAbjmzPEDLgYsqyxSFx8CVIvjspCGLISTuOJ6BB3w08w7tf3wnS8j54wvhUUxjhcMT8NRkcP1u5owNpGH4wpybhqVjziuC+KiFE0Ng1LpxKZmIBcvYS7HyTxZhKWjEmpSsghw/jSVCyekIRskwwlhUlYOt6I1LREXDguARkqIZLTzLhgMsljSipmZavIFlEUmErz5iQZE+KkA2YkZ8SiSy1E4SX3wpjLHrUwGGeSoWPAJQoYLr4dhXd9D7k334KcXvkO8r/3HSQVxfEJGcMNQVgKhRwQiUXQqqXQeq14+d0y/HdvD5xhBeacl4fvXZCHmxcSWZSPuy7JQqmKzhSYTMKycV6Omphgmi4H18/NREmSHFMmZODmWdm4dkk+Vk6Jw4TMZNx4cQFuWUTzyMN3L8jBglw1pFBi0UUknGyXqxYgpyAVty7NxRwDM+GDoU8vQcmVD8KYV8qHMBiMM8WQMeCSGbej6Or50CuaUfHYj7Hl9u9G5MGn0OMzQhUXmV+ZMfxwdjXj1Q+bYdepMaEggRjbOCydk4GpKVLo0snymHikSC34y1Pb8MzGbugyknH1lBP4FrdWA8mubXjovQYoR6Wh1CzA1x/txF3PV6PdZML5Y8wYW5qElSUGKDwWfLGuGRurHJAlJOCS0Uf7zvjIRZOUg5KrH4Y2rYgPYTAYZ5KhYcDFs1B4z1wIOvbi8FNPoG37YXjaWiNy4CuUPfBDlH9VyyemCCFUqCDRantFrJANPvmTWAaJhk+nUUFIvLyjIpZDHJOnRMkekn8biERhVB6qwg8eW4vlv96IVxvCMJo1mDkmBRMzZZAKBQhbHTjc5UIjEadPCKWs72LTwW8CkfDI73cLu7F+iwcWRwACiQgihw2bqp1obKvHg3/cgIc+bECTXwSalUqTgJ/cMw13TTVB4gvAZGQNxoGo4jMg142UnjABhDJlny7oFTXXU3RiED2lUpzVxzECaeQcxPQ4TvhAqH5VD7KdGCJaBhpSBtIjattxEEAgi+hssZzflj82LkzJ63M10dFs4EsvQ8KAS86bCWPAg56tH6DjUPQTZoMjkCqgyJuHnJ89jqmvvoHpvEz8xd1InpjKKfIoIlMadBffg2mvvB5J98ITyL/ifKh0fU8/owgTCxC/7EeYHJPn9F/eCH1O/BBpBQ1dMseX4LkfzcCjK3Ixv0iNuoNW2BCGzx+Eo9sLWyAEgUmPGbnEY07TQisNoL07CPiC8BGlkpRkQOnMOBSHB79SYbK93emDT63ExGwTJhem4sHvzcDjyzORigB6QmF4XF14+38H8RdefvVF7OfyGCMOqQGmFff31wecPI3C5TMhJQ3CYyHUJ0M3Zj7y/3wPdHzY2UC28IfkmF9H6S9vh57/0OLxUcN406+485306I9gTuEdGf18jCFh0575PdJnZJ+cXhRJob/8F1yeJVdNgJjocd21v8X0l57HuId/hrRbfoBpf38Nk//8OyQc+UbiiGUI2B4VjGPzEPb74Cw/iON9iEqaMxe5P7wNCcZONL/7b9T+65+oXfUx3MpxyL3tHiTm8x98kOhhXHgNRl05E+5tfLqP9kI+dRES8+jnK2NQZSL5ph+gYIUZFpqOk/fRbV6MUd+7HsY01p16JqnbU4OPK93k2qXirsvG4uHFiZC5evD5lhbs2t+Gtzc0oMytxzVXF+PKMUrU7KvHP3c54G9uw36bEOl5ibg4WYgKx+CvnfndXmzZVou19cDMC0fhgctzkertxEdft2Lf3ma8vqMTQZUJN1w9Fg8RuX1GPFKZA86I4qxC07/eROPqLfB4jTAvPx86zbFfixMXzEX+D25H/JAcKGtDNzlX+r1GiSEF2oIMzpCIS8dBSxrWfksTHNX1CHFpT5BwAO49n3G6tXVXE0LBHCTNI5ba3oTWt59Dzdvvkbg3Uf/+x3BY+W0YEMXHx/+SLoTDYSxbtgypqanwWq1o/Xw1l+DsY4Bh0ULo9F1oX/U+HDY+eFAE0C35HlJS2tDwj/9D/Sfr0b1vP3oOHITTTVp0Y6bApKpG45ZGCBPykXThEqisq3HwudfRvo2kO3gAPYfqIcgugUbvgfWTT+BwAMoZVyH3onR0vPgYaj7YiK4DNM8DsHXFI3F2McJNu9BZfeSnQ88GyRcuhlR3wk3pk+KrHZWobOiAypjEh3w7hEI+1DR0Y3+VBev3tWEdlb2t2FxpJ95xEK0tNpQ19mDHwUj4mj0W1LmDCHrd5Hht2HGoFV/uaceOui7sKu/AoWYnask228s6cbjTCzdROg67i6TtwZ5Kso/9rSSfNuxscJG4AJqabDhc34mN/L7X7iENh46z803ToN8Lr7MbF88uQYKp73O5QxFXVxcOfPgB8edIHRtq72yKFFCNIvqkOAnC7u0oe+zvsPXIoZs2GYpwI9o+roD+1nuQtWgiZMFuuBosUK94APnLp0KdngRt8QwYsgwQirRQJMYjaC2Hq1MB87XfQ84lC5EwZy6REgiaGkk5ESV0BAlI+f6PkLmQpiMyVoOereW9Do5y5lXIu+ZSJM4jcdNKIHS2wdXaQ+504nWPWor8269EUmkKSZ8Gc1EcAp21sK7/Gh6PHubryTEsjR5DMQQN9XB1OyMZ84Q6iQ4dvwLGxDB8TZXo3tsFw/KViEtTwLl/NZo+P4BAyIC4m+9FzpL5fF6jgKoaOO1uyEsuQd5tV5KGjgaai5YgdW46Qt1mGMdlA13tkM69DMkl8RCJ5ZAZJaQMFIgrLYJUKYG7Yjvcdi1MV3wXuSsu5PMeA1FHC1wWG0RZFyL/7mtgiIuHmsSlXZgH91f7EPvF6aFCh8vNPbYdv/Iybn3VqlVobm7mlilDpvdXINRDcrxxSYJ0mCanwFO9D537ahEK8B6X3wXH7t2wtXVCkj8K1AeX6LSQm4xwHd5CWnR8uoAT7upKuHt6P1RO0EKVkwyJxIiEW36Hya/9A9M5eRnjvzsdEqkUkriEI5+vMk4fpHFp73YQ42rFTl721bvQp1JCaKrn42p60OYKcooqHAqjqZGGd6GGXNPmxk7srulGuyOAxuZuEm5DZyQDQhhdVjv2VtH0nTjY7CbGm8fnxoGYfZd3+rn8GQwO8zxMeO0NlP7iVui1Dlje+wQ99gZ0N0pgnDAZhoI0iOWjkbSiFPrCPGKUQpAnEeMkIepXoIdmNNFJukwk3Xkf8pfNIduU8rIA+Y/ciTjVwM/EJiL9sSeRPSeajsjcmzD+VysgI9pNe96NKPrOZYibzMdNWYC8n3wfKQUpQNplKHnwBsTT8FkrkbekgM+Tkorku3+E/KWz+/KdsBD5v/kezHIpnyZKD5q/2EksiAbK9CzIC4uRUKgjjrQPzn074AmkI/VHP0X+4mkxeS1CweN3wSwQQGTIhJ6ExV2yHOnTSWMG3fAnF3LptKnxUBSmg2vSSVQk/zTIErJgGDcBhpIiyFSJSLzlHuSvnB+T93zkPnQH4k0aCDRpXN7mxRchbfYcmIQ9GKwJNBwYAga8Hc4mDwQiKRSpaccZ8CGCUExShEKc8u5Htw1elwdhoZDkIYZYGQ8JqWzedg+f4GgISOOB/oYRcjuJjY8Rexc8be3wO71MoTMYI5WwH0FeJwT9Spgvugh6swL+devQ5ZFCnZcD+dgiaIjBDvRUwfreu6h8633i1ZKGYHAT9hFPvaFDBUMmMVoiATpe/C62/uBh1K2vBhRjkXl5/4e+golLkFWgQrirGtW/uh7rbv4VWg/VI6ifA/P0FBgmES9fK4DlWRJ35bU4sKoMAnk+cW5MUM2eDbVCDNfuD7H7thXY/1EdnyvJNyMdhow07hjaXyDH8MNfon5TLXHnxyHzSuIZDyC05jNYfQIoM3KgnjARSpmU6MgqdO1ugiA7G4bUZIhJXm1/I3nd9wgattaTvEqRdW0WnwMgDVfgwF03YsPjX8bo0DY0PPAcuJ7yznJUP/cC2qrauBiKICUZuuwsSMVCWF8med/7AGq+qEBYUYL0S/smDpKgHpW/+D7W/erDYaufh4QH7iwrR0gig3rsNCiO9ewx7EDQI4RIoYQoOpKRR5gYD6WOtM7cLlD/LBT0Eg+dtB5TjzeEhFROL9kibEfzH8jNcscAufs+VKzaedxn8wwGY5hi3YA9RBdse+hRtJbbAf14pM40IujagrZ1DRBllCDlonlQEoPj2vU5bIM8bRNJZRDwjxHUM69B5vL5UISbYPlqHazV/QfuitURJRj0dMHd1g246tH23tuoe/ttOBxqovvoIFw3/LYQEAgg2G4hWoxsp9Ig6Kb9Sj7O+QgQt9RPnxHyCGUyCPlj0NBjWDYP8kADdwyd1YM8uwx/Det2cmxxxNuePRVShRT+g1+i28LnJY7oYO0sktclsyHz1EXOp6Zvn/76Grg9x3Oi+iOUSCGURnoEVNNJ3isWQSVphZXmXdnXpxZoaYTbfsxnrkOeIWHAfTvfQ+MhN5TF5yP7svOhNMYMGtMkwXzBFUgeT19f6UDPYQvkuZORPHc8xPLISFCBNhHm8xdAlyRBz1fbye0bhK+rhXjPNignLEVCLl8MsjgYz18EU1psX70L9upGhPwamJZeBX0iH8yRg8QrL4Uunl9lMBgjD3UBMm6+FdmXX0L0Ax285oLfLkDY54Jj11dw+tJgHp0CgbAB7R/uQCCyFYdAkIXElRdDGWiDy9rFDfwKuXrg6+kTZ1v/Nx78B7eik9htsSEHyVfdipxb70DBPT9EwfcugdLdBUdVJfx+NQwXXYecW25C6oIxkHqaYd3XCO/WneToZFAWzULGrbcic3rft9mDLW1wdnZx3urxjoEjFIb9623wQg9FgpoYVju61m7lGgvBphY4e+i7ImR5QF6u1m/2BkewwwIXaZQMVlauNtJ6GEEMCQMORyWaXvwDLD2JMF14E4of+g3GP/p4RH75c+RdeznM+XTgVhg9X7yGLncK4pfdjjG/foxLM+4XP0fOogkQVq9G5bpqLstgyyG0k5vPbxyP7B9E0o1/5CHk3zAJIkd/7923813U77VDNfUyFPyM3y8nP0bG+XOhGjBoncFgjCCUGUi4eClSzpsFtVkK58Z/oXZLE1FHAbjqDsFWyxuVQ2vQwfcE+w+UocdGvHUhcUAWngedzoqml19Cc2UPVKVLkUryS714KiSWGthbY00+oX0Hyn/9JLq8ehhmkXTnT4TcswtlDz+B9opGWD94CVVfHIKkaBFSL1wEY7IPbaveRPOOZoQbP0LVP7chbM5A3KR82A7W8JkS7FVofIkcQzXRdROjxzAF4rYq2NsG62MMw1e3CbZWfrVzF1r3kHOi2A6j4bkX0NLggXpSNK/JEDUchq39G3ZoO+vR8vrLaDpk4RywSN7TIbU1wt4cO35p+DO0vkYmjEf8Vd9FzsrJ6BtSYUHrS39D9UfEGIfpqQgAfRGy77oTqaXp/DPzHlje/j9U/msdvLHPxgVCyBf9EJO/M4sskpTt+1D+3LPwTvwZShYEUX7PPWiN3pxCIWSLf4mpt4zjAyjNqPz+nWhqJG3Bb3hPni7Y50SHN+fy18hOliH/NTKiPzi9MRA6BofTRQRzAbK++wOkT0qG5dkrcGB1dGgk2Y5sS7+yRwdphsO8DqFjdHpnRiHhVF9F8+oH3Z6m5VdpHmS/vfQ7tgH5ROO4/dJVfjm6vVDUly+37bH0G0kYPY6Bx0A5Wl69xxAzXikaRtJwx0Xn7OCOkeZJxyLFrNNNjlZWsec38HiGGOxzoiMMZsCHN8PJgFtriAH/3p0wBwOIUyr5xvbwQXvjMxh/SRpZCsLfsQlldz2BTt8Ab5rBOAZ7OizQpqXhxjf/za2zz4kyvlWkGhUmlyTjgokpR8isFAk0iWaynITSZAVk3+bdSAzG1JIksu8EpB858V4fUiWmjCXHPyEJ4xP5fh+tFgtLU3BeiREJA9+uYZwwQrEEclKWfs7j4vyIYYVr+8do/oTKKlQ/8Rq6/Mx4M06cEKkTIVI3pKqjj9xmBpxxRlEY9Vg6Jw+3Ly44Qq4qlMGYk0qW87A4Tw3Ft3g3hnU6LJ+bS/adiZJjvNkQVmpwyYLI8V8/IwXZahJmMuHWC/Jxw5wUZA18RZdxwoilUiiNRngDQU5ZDTcC+z9AxfPPEXkFrYfauN5dBuNE8QQC3JMCXVJyJGAQmAFnnFHszW3465vbcNdze7Cevg3jc2PNlwdx33Nb8MjXdDLGKGqsvGI8nrp9Mu6ZrAUMBtxyKVm/OgOzZ4zFb1fmY5xBgmnzivHk7VPw1G2l+O4UI6jtDael4ak7puDh5alIgxznLSjGn8j69dmAXK/BFctKufg7RsXjLvL7yPJclMRMVhcXn4yfkvCnVmYhUXWUOayFQqQXJGBRgQED5xMKk2NfcTk5VprHHZNw33lJSCLG6fylE/DELROwMAlIyUvDAzeS+MVxxKuXYvLsEjx1QwFKjSPXhaeehTk7Bw6/H0Fm3RiMftB6QWtF6oSjP7JkBpxxRgn5A2jvdKGhww0HHcgaDsFud6Opw4kWZ3SAiRjjZ2VgQboOqfFqjB6bigl6EUx6JdJMybhyjhZCst2YCUW4Y1Y8UvRyxBs1uGBRIb4z2QStTIq0OBUS9VJIyS2t0ciRQtaNxKXPzc/AkjFaJBnkmLOsGOeT8GS9DIpeO63CxSvyiCEl+xqVjEvTjm5QBSIFFk1OQU6CtO95rUCJJRfnY2WhHjVrt+LJTQ6MnpGLmyZpUG8NcceVHa9HXpoBBekqpE1MwiypCFkpOqh9PnSM4G5VmVqN5NGjESYNmm7vyBo9zGAcC18ohE6PFxK5HLmzZvOhR8IMOOMcIIzKHYdx50vloB+FlUrk0EW7tQ1ibH19PR5ZZ4WGGHhtoAt//fN63P5CBSqCcozL1UGvHvw2FlKvOU0LTdCJ//xrB655q2mQ+ZCD+O+/NuOJ9VbYIUOCYfChVD5fAPsqOmDXx+PmcTqI+V1qEtUoSVJDCQfa3Hoki33o8kpQlK5GR2U7qkkVyyyMQyFpNIg9AXjDZswZq0dRsgCHGhywuYb2KNlvCjXgqePGoc3lhpN4HAzGSIc+TrK63fAEg5hy401Qmc18zJEwA844BwjC7gog2OXFkdMw9OBwA79ICYRA520Kh4MY6LyKRGLIdWLoZaL+c9OT1qyPVIqwj/zyQX140N0dhtvlxzF9wEAAFfsbsKbWjaR4dczrK1EkyMgxIlMP7NxRh88qnfB2WrCuPojkNBNKU2VoPNCCvY4QcgpTkE72W2Vxwz7Cp/DTJadg7PJLITMaUdtjg93n47oNGYyRCB3MafV4uI+YJI0Zi5KLl/Ixg8MMOGNI4LV5Ud/hhEuuw1UrSvD9izKQJfOhutkJh8XLfZTEYIrD9cuzMd4kg4C+KhoKo73DBbdEhflz8/GTBfHcl69OFafNjvd3NKPR1tdycHe5UdvpJsZfCKNJiRRehAHiTYZ82L6vCwKlEnEKL7aXtWJ7SxiGFC3EPR60dLvZFLyEzKlTMfmGG7nGVYPdjk7ifQzHQW0MxrEIEEej2elEs8MBU1ERZt5xBxTH+Uj7oAacvjAfnWuWMbQIE09xOBL0ufHp6jL864AH6XlmTEiXomJrFZ7f2IHu5ia8XQVIZRLIXC7sb7LDQ/R/OBTE7n21+KTCS7xgJWyHrPhmkziGYKlswFsHnAjy9iXgceB/axtwoEuA3MI4TCWSJfVhf6MdbmKde2paUOYA7G02HOx24cuD9BMNQTRbe9DQzsw3RSSRYDTxNC5+9DGE5ArUk4ZSVXcP141IlRqDMVyhasQbDKKN6K3DnV1oc7pgyi/AeT/8EZKKSwbp6evPoBO5uJqacPD3j8LZUM8lYgwNRAoFJjz+JyhTU/mQ08vJTuQSQoB4Vd0QQwUR5HChhSzLIYWBeKxWYsZ8UCKJpHKRpR4oYAb9UpwLrZCQbSTQwo12Li8F4uGHnYiDbEPn7gqRuA6Sl45soeTyFpE1GUzcPgMkluYdFgYQEFihl8VBWjAaD82woe5wB95a7UHtoMcQR1q15+63qYfTRC5HQLzu9opyfP33v6Nx9y74qQH3+TgvQyYSQXQcZcZgDCWo4XXRnjqBEGKZDBLSeB1/2WVELucGeA7GCc3E5uvqQsULf4Nly9dcpWIMDXSkxVZEWm70eeKZ4GQNeJCY6VZsQijsh0xgQFv4a2K+TdAJ8tAZPkiMsQ0Jgqlwh9vJUjWJGUOUtBzt4a3EfCdDLUiHJbyL3OhhxAkmwBFugBNNiBdM4gyvNbwHGmRBKUjg8paQNaOgGD3hSnhgQYJwGikUYo4le3DxqNnIMCTi6fVvwtVFGgehXHIMB7hGAT0GV7iNLNXAJBiLREwnRuPc/ML7sDbgPNRotx8+jMZdO9FefhjBAOupYAxfFDodkktGI2PyZGgSEvjQwTkhAx4my+0bN6D61Vfg6+S+yso4x5FoNMi86hoknr+g95OAp5tTmUo1SExpKzYTI92BNMEC4ue2EcO7lxjhicRbNqAhvJoY6lSyVITW8GbOc04VnEeMaS26wxVIFswiuQjQHP6KGP5c4pNnoSn8JfG2ZUgUTEcXyjjDTvP2Eg+aGn+TYDTxqhO5vBUCM/HrxxNzvoscg4U/hlZyDPuI4aZz6uv4Y0gjx1BIjmETaSxM5Lz8c5GRYMAZDMbgnJAB59bdbm4awLq3/81/Q5ZxrkK/vZu8cBHSL70MEtKaO1Oc6lzo1FsOk//FUHC/dJ0aYAHxc6nBFpI1ITGl1NhTb5umo93vIeIf0y53SoDE0a5t6hnTbQTkj3bL0zQ0bSTvEMnDy3Wl09hIOpq7jAun8Uc/BjGXf+wxnIswA85gjFxOeC50+jw1deklGPOLX0FP3HuB6NzsUhzp6IpGofDue5B9/Y1n1Hh/E6hBjRpEaljpMjWcFLpMjTeFGuRoOmpQI8v0uSd9Mk7TRe5BukzTUqjRjW5D86TLdB+USLrIROf0ty/dYMcQ6bWIPQYGg8E4lzmqB34E9D3acAgC4VGmmmR8q4T8ftKoEnFvDHxbsK+RnX2YBx7Ba7fDYTly1oCThQ4e0iUffa5pxvAl4PWip7mZXzt1qA42ZpyZL0AO5IS70BmMgTADfvZhBjzC/g/ex6e//Q2/duokFRfj6pde5tcYI4nm/fvw5ndu5ddOHalSibu/+JJfO7OccBc6g8FgnOskqVTI0GpPSRgMilmhGPT+OBGRfIs9oIPBDDiDwRiyGORyxCkVpyQMBoV+DGmw++NERMQM+GmGPqsPBr+RsHffz10E2Vl484F5+N/D53Hy5CWpSFbykccgrE/E4/fP7d0uKs+cp0ZacSFefnAmHphphjYhDc8+PA8v3FKIcd9k3lUGg8E4www7A27ZugVfrVz+jaT1yzV8boxzBtLSzSjJxpPLMqCAD9UNPai1eJA4Oh+/XZqOOAmg0KpQmKJGglGF3BQdkgZxssL0M31WO8rI9lSqe4Jor6nD717di9f29kQ+edoPEZKStShM0xHRIl0vhYRNCMZgMM4BWBc6Y2ggV2JSngkpaiHaDpXjV3/fiUc+qMGBzgAM+Rm4NEWA9HH5eOzqEtx+STF+ff0ozBnkMWc4GEJTowUbD7Zj464avLTDjfjsDDx401jcOFYHdb+XLCTIzU/DPddNwJ0zE7FsfhHuW5qNabHfA2cwGIyzBDPgjCGBVC6GUU3fJwcaajrRgzCsNjfabfQb0hJkJfEf35HKYfJ04dWPD+HztkhQLEKJGKPHZuGWRXm4ZXYCTMewxEqzHktnpyBf5sTHH1Xgna0dECYn4pLROoiYBWcwGGcZZsAZQwI/8Zw9/qPPiW1zUUNOEPlw+FAH1u/pHuTb4kDQ68XqT3bg9qc24/ZXq9BwjOEOUpUERhmdoU2Jy6+fgp8uSkGiRIjMJNVxvxLEYDAYZxpmwBlDgrAngA6bF25icCfOzEG+QorR6UYUJSsQCjhR3hK1xCH4A3TSIX51APQb4S6HB61dbrT2+MCb/UEJkbQBLqMevPrSdvzgb1/j5j+ux3Vv1sFP4hgMBuNswgw4Y2jgdWH9zkZ8XuFA0JCKx388E48sy0SCz4nNaw/j7chXR08rtoYurD7cie6gAff+eBZeJ/LC7aW4oUTFutDPEF6nE10NDccVV2cnv8U3g375bLD8B4q9vZ00FIfnt/aHGwGPZ9BrOFAc5JqeDsKkkT9Y/gOlp6UFQb+P3+r0MOxmYqOfQD3w2O/4tVOj4O57kHjefH6NEeWcmIlNr8fK0QZI+KZnV6sVG6pscBDdas5IwoJMEcoPWbCn3YN+6lauxoKJZhjDQZSXN2NXR193vC7ejPOKVLDWdmCLVYwFpSYI7XZs3W9Bq1CN8yeYEccPPe9p78TGyh70HMt1P4MM95nYqJI79OknaN67h5vq8mg4rVZ01tVhlMkEpeTUvtOwvbUNUpUKCQUFfMjgqMxmjLrgQqRNKOWmXmWc27h7unHwk0/QsH07fC4nH3oktLFIP1ubrdfBKI98W+Fk2W+xwksMeOrYsXzI4NDvexcuXISsadO5mdtOlWE/lSoz4GcONpXq2We4G/AQ0UO21laUrf4MO9/6N9xdXRAKBFARIy0Z5DsMqRo1pKJT+z5DdXcPv9Qfh98PH50PgpAzazZKr7yKM/LU2DPOfahH7LR0oGLdOuz897/Q3djIvTWikEggH+ReiVcpoT7FTzA3koa+Lxji1/pwBvzw8t+xpw2/Sddei6SSEsg132wGQDaVKoPBOGcREgWrT0nBpGuuxVXPv4CUMWMRIgrZFwrBIJchU6ftJ5JTNN6UgXnRxgDV9H5ivKnXvfBnD+DCX/ySKOAJzHgPIegAU3VcPMYuW46Vf30K2dNngHqp/lAQaqkE6VpNv+uuOkXjTUkmnnVsXmkaDURCAXzEeMvJ8ozv3oYlv/ktsqZO+8bGezCYAWcwGOccIqJUDWnpuOzpZ3DefT+CPD4BtQ4n6onHQwcQUo+KeubfZCgC3Z4KVe7dXi/KOrvgIF5+NvG6L33iLxi99BLImOEesgjFYuiSkrH8T3/Gkt/+DprUNDR7vKiz9XnNp+seoth9flR0d6Ob3J9JY8Zg2R/+iKk33QylwUBbFVya0w0z4AwG45yFGvJxy1cQL+Z3KFiwEE6ZHBVdXbC43dyrhd8EarjtPh8aiEJvdHtgKizE7O/dhYt+9WvE5eZGEjGGBfnzzsMlv/8DRl+yDAGdDofJPdTucsEbDHL3walCt3UFAmhyOFDndEKVkYlpt9yKS//8JFLGjoskOoOI4uPjf0kX6HODZcuWITU1lYsYCnRs3ozW1Z+ha9euXunetxfu5iY+xakRIpXaUV3dL98AafnTizOS+WpHJSobOqAyJvEhjG+boN8Lr7MbF88uQYJpZHxRi35vWR0Xh7Rx42HMzIK904rW5ha4/X6IiWcjI57WyUIVd7vLjVanC2G9AWOWLyfe0i3cICPaaGAML2i3ukKv5x7JmHNy4Sb6vLmxES6vj3jQ4J6Nn+zcDv5QCBZyD7UQw+2RylC0+CJyD93ENRbO1GDHVatWoTnmG+ZD2oDTl307d2xH65rPYTtcBlv54W9svCme1lYuLyr2ygpIDXrEz5wFKbkBRjLMgJ99RqIBjyKWy2HOzuY8Gzmpi03l5ei02eAJBrjnmKITUMBUz3UTpd3osKPL40XyxEmYe889KJh/PjTx8XwqxnBFJJXCkJ6O1PHjoSe2runwYVg6O+GO3kMn8HUx6nU7iJPXaHfA6nZDn5uL+ff9CKOIATeQPM/kJE8DDfiQ7kJXkQuR+53bkLRgITdF5ulGQFplCXPnIe+2O0e8981gnCtQxTv5+htw6V/+CmNBATqIF3S4s4t7jn2s7tAgMd71ROnW9PTAK5ZgHlG6l/75CW6U8Dd5tYcx9KCNNTrGYeXTTyN9xkx0+fw4aO2Exe05bpd6i8OJiq5uOImhnnzzLbjm//6OrOkzuEFr3zZD2wMniGQyGOizBnL8roYGhI7x7ujJICEXI2XJxci65jpumfFte+ACqLUKpBgUMGrINVaR1nGYTqcaPqVnVgq1AomyMGy+U9n63GEke+CxUC9HZTShaNEFkGnU6Kirg6XHBp8/ABlpeIsEQpImkjYQCsFGvO5qWw98xAPLmjEDi3/xK2STX9o9zxiZ0HtIrtUid84caBMSYKmthbW7m+tWp68mSsi9EfWmaeOPet2VpPHnIPcWbfQt+MlPMerCC7k3J74thlcXOg/1lHXFxZCb4+BuaYG/p5uPOTWUpAwyrrgSKRddzDUQGBG+PQMugMFswKWLR+GO8zOxuDQFi8bFI0sVRk2TAz3EiJ84IiQmG7BkwShcbrTh4+rT08A7WzAD3h+RWIyU0WOQMmYMAn4/Wpua0EO8bHqHiIkCdgcC3HPuZocDCSWjMfGaazD52uuhTUyMZMAY8QhFYiQUFCJj8hTODna0tqKTeNh0iKRYKODGS7SRe6jJ6YA+JxfjL7sMU4nnbc7JOaPd5YMxLA04RUBaRbSbW5mWBn9XFzztbZxXflKQi6EnyiDr2usQN520zr/FltVQ4Fsz4CIpJpRm4tKxBlgPVOKNHVZ4NQZMylbB2+KAojgDy4oN0AbcqIYaV8xMx7xiOXqaA5gwPQ8XjYnDlII4jFESr8uvwuWLC7EoWwm5TAqlz4m9bWGMKknBsqkpmEHSlSTL0NNqRxfZxzWz0zGzQA6BT4PFc1KRI/agSmrEnfPSMD5ZCbfNgQ53GPmlBbh6Ujy3nymJElR3uOA6qYbFqcEM+CCQekvf+6VG3Eh0QFdbW2SAEvHGOz1ehImXVXrVVZhE6nXm1GmQnOKsW4zhDTfIbexYmDKz4LTZ0EQ8cpffhy6vFz6FAiUXX4IpN96M/LnzztrrhcPWgEeRmc3Q5ufDR7xwN2mNn6gRp8baTFpgOTfdDE1u3rfeshoKfHseuAipaSaU5qigV8qRGq+Cp6kRz35Qi53tbghJBftOqR4hew+qAxpcPSsNY4OdOGjIxC2jJNi8pwOinFRcUGiExO1CZmEiiI2FRKWEwdGFMphx68WZMLU24I1qGa5ZkIIsaRBVbimuInmNzzRiTI4RJRk6FGaaMLPIjHFkOSdVDbXXjQ5tAn64IA3mrlasbhNh3tQMpLs6sLn5zM+vygz40aGG2ZSVhcxp07hBbo2HDiJxzFjMu+8+bpAaHcnO6jXjWETmH0gj3vhk6JJTULdnD7QZWZh3770oWXIxCUs+q/fQsBrENhj0mZaCFHzhXfcgacGCE/KiI4PV5qLw+/dAmZrGnoudbcI+bN5Qjf/u64ZPLkOCQYWJE/Lw2+sLMSlOirLPa7CbXLPkRB0mJsshlwixeWczwnLiYRv1uHHZKFwSqMd1T2/Hq19b8NG2dtCHKi2bd+DuL20YNz4Z+Qo39h5yorWyGQedUuSnk9a3ITIQMhQAPvlsB/5xwAEZaUC0rd+Cm/7RiG6yT7VMBBnZj0EmQPKYPPxoihofvr8DT+90cdsyzi607tIBSpOvux63vP0fLH30MaSOHcfmMGecMPQeouMrxi5fgVve+Q8uo7O5zZh5Tg50HLaWSkgqLB09nn39DcQrjyNXZfBWk8xkQsblVyD/ju9BpGAjUc8FhGIRkojLXLurCj99cj2ue2IHPmryIajU49JSHWQiC9Yf/P/2zgNAqure/9/pfWbLbO8V2GVZll6ULlhQsfcSjVGjiabn/V/iS957MXlJXop5qWqKNRpFsaGAoojSOwssbO9leu/zP/fOXXbBBZYFdneG38ecMPfcc8+cmb1zv+d3yu8XRnpaOpZUJUOPPnxwKIrarc34sNmKuj4fggWleOnb83FX+al2J6iw4LKJ+MFtpUixWtFoZpZtNPZziEQ9MJkicLmD8LH/ui39ozgS6DUyWA91YHWTBbVtDvTK9fjKrbPxsyUX9xbD8QZnJXELlGQqlZBDEGePQqvjA5GMVxLe1MxZeQ1K7/8ydGVlJ1jW3GttUTGK770fBTfdwqzw878NLWE527UFZ4lYqsDMmWX497ur8diyQqyckQq5J4AQwjDbg7xv7IO1vfAlq1CYqkaEifZ+dl1ahgKdR7rwz41NWNvg5R00GA1y+IMRcLEptDmZuCxfAbPZAzerravDhj0NFj5trrOg3Ta8UH8Z+Wr4m6zYvLsRL2zpRYc7gkzWltGBffcX+PsnCCI+SHgB54Q6deZMlN73AJKmVPPHXOJWrZd++QEY58w5pXVOnIhKKeMtmwg3xnwB4eL5bt7Vjj09YZTVFOLuJcVYXq5A04E2vLzbDqbHcHT2YCs/5xzCoWYnf51IIseCBWW4d24GCvQSeNvasbrOgQ6zGzYmsrr8HFw3RYtj+9rwWWsElTPycffSEtw8Jxs50gACw/TM6fdGUTajGPcsKcXSIjVUTiue231uOx+GC7dWheuY0FwuQRAJF070lLAHX9BhR8PfnkXI40XZgw9DkZJC4n0WPPvG5/j7W1ugz54AmeICTzdwuwpUUiil/X+fKAK+ENxMZbNmT8F/ztNDpZJBHbDhqRcO4aNuP8QSMbQsrz9WeDQYhMUb4fdp6lhdUpYfCYVgZ3kK1hlRCzG+o5EoPN4AfJAgiZWTiKL88LlILoVaLoLfE4SXnTOoJazOEJw+dr1aDlX/8gr227F5QzhH19xnht3DHkcf4O7DU9+7GROLMoQTBEFcDCR8PHDiwvHKBzvx+1c2QW0sgFKbLOSOPjmzq/Ff87h5qTAObq/H37aZYL2wgwLjAs769ti6oRe78fNvXI+SXKNwJrGIRCMIBv0IhbkRlvExXcCNeEjEMshlCvY64Qcu455gyM9SgP1mLnSvevhIxFLIpApIzmG6lgScGDGf7qnHE394BxJVCrTG+N5uGI9EI2E4+lpRkq7Ajx5aidyMRFs4F4XV0YuGtr040rQD3aamcfMAlkrkyEgtQHnBdBTnTUWKgUY/xiNevwvNHbU42rwTLZ2H4A+On90hyfoMlLB7p6xgGrKMxSMSchJwYsRYHR7c9e9/h90bRUpuOURicnQzmoSZVWFtP4qVl07CIzcvgE6TOA5JIqxzcqR5Oz7f8xYT8D0QSUL8NAUXa1kmH9v7LBgMIxKOwucNIhwAewBPx8IZN6IkfypvVRFjDzc61dlbj63738Gewx8hGPFAqZYxkRRDruDun7GbKg2HuEW0EQQCYQS8IWSkFGN+zbWYXrmcWeRyodTwIAEnzokn/vA2PtxRD0NmEeQqciQymvicZoQcXXjsjsVMxCcnzEI2TrzXff4P7Dj4PpweE1IztNDqFZDK2IOXG7qWjO3n5MSb2/kQZkJut/pg7nXBaMjBpdNvwJzqlcw6p/CjYwkn3keatuGDz/6O9p5j0KcokJyq5jt+IjF3/4ztlEckEuXbGA5F4XH5Ye5xQybWoLxwBm5a/k0o5MNfT3SygNNkDnFWXMWEg3vg+pzWcTW/dDHgsfUiJ92AsvzE8ih2qGELtux7G26/BfmlqUhJ10KhYtaTVDzm4s0hZm2QsrZwbUrL0qGo3AiHrwcf73gVTe3cBkZiLLE6erBp52vo7DuK7AI9svIMUGnkfAdwrMWbQyx0IriRgCTWscgvSYFI7sPeIxvx4daXhFIj47QWOLddyO7pQl3nRljdHTA7muELxrbsEGOLQqZFqjYfSZoclOcs4v+Vis9uOGakfPUnL2N/Yx/0afmQq8kKHw0469tjbsONy2rw6K2L+IdCImC2deLV93+Bxq59vDDKFfExJO11B9HeZMGkwktww2WPQadJEc4QowlnTHy49UV8sOVvyMgxMIFUxUXnNhyOouWoCWq5Ebdc/h2U5tcMq93DtsBDYT8ae7big72/wMHW99FhPkDiPY7wB13otB7Cofb1WLf3lzjS/hHLcwtnLywP3HAJtEoxfC4rIuGLYPn3GMP5P3dbe5CWrMUVl1QmjHiHw0EcrP8Mrd2HkZahixvx5lCopPww7eGmLahrGnigEqML1wHctPs1aPVK6AzcDoH4+G1wI0uZeQY4vX381JHbaxfOnB1DCji/IICJw67G1+DymYRcYrzi8Vuxr/kttJv3IRINC7kXjgmFGVg+ZxJC7KbzOuj+uJCEQwG4LF0IBX24ekEVSvLShDPxj8fnREPrXohlEeiS4mtBHteJ0rI2S2RR7Dq8QcglRps9Rz6EP+Bi4q2MrZmII7hhfq1ejpauw3xHZCQMKeC+oAP1XZvhYr0DIj7wBmw41rmJ3cwXfpREpZDjhmU1mDYhBx5bDz+8S5x/uG1jXnsf/G4rrl9SjZuWT+NXZScK/oAXfbZ2qNmDjJvvjjcUCimf2ruPCjnEaNPYfoB1oiRQqeNvISH3U+ZGDuzOPrg8I/PkOOSvJhDywOpuR3ScOFEghofJ2YRA2CscXTi4G68gKwX3XTcPWala2Hua+QVWxPmDWyDIWd5cB2nulCJ+3lujSqyIWqFwAC7WOZHKxPw9FW/wK5xZx2Okw5/EudNnbY8tEut3vxhncPc+N13N/RZGwpCfOhj2wU1D53EHt0aBuxlGiyllOfjely5DUXYqvNYuuEztCAd9nPoIJYizhRPuUMAHB+sUhT1mLJheim/csQQqReJuVeJEMF5X1XMinkg7AuIR7usfD6vNR8q53D9DfmpuZV8gdOEtOeL8IxaN7jzQzMpCPPn1a5nQlCDstTJrvAUeex8vQkyOYoWIM8IJd9DnhsfaA3tXA0RBF65ZOAWP3b44AT2uEQRxPojfbgsxbihkFvjjzEr86s2XoiRTw0SoC47eFjh7W+FzWmJiTlb5F4hZ2154HX3su2rhv7OAsxczJmXh+19ajvtWzUOW0SCUJgiCOJEh94H32uvx1o4n+AJEfHHDnP9BsjZPOBpdgqEwLHY3Nu48ijc/2oeWLivEQvhW9n8Qsf/EUhmfLmpYZyboj/lo5kQ8GolAJhFh6oRcXL90KqrKcpCkUyXUgrWh4Hyd//7lx2BIF/MOLuKRng4HLL1u/O93Ngo5xGjyX3++Bf6wFYXl8RnYx+sOoLXegjtXPoHqCYuE3FNDntiIC4ZMKkFGqh63rpiBl392H1766b24e+VMzK8uhFGvgFoOKMVByCOeiztFvdDIRSjJNmDu5Hw8fNN8/OsXX8Zvv3sTFk4vQ4penfDiTRDEuUMWeIIxlhY4QZwNZIET5wpZ4ARBEARBxB3xK+DKebi0+lHUZE3ART6jShAXFel5X8GKiluRq8tHftH9WF79LVSlJgtnY8hTb8SKKQ9gkjEfaRk3YVn1d7Ci+muoyT7xeSFTZGHyBHZuKkuTlkMj5BMXL3JtDWZNehwriqv5Y6mqBFXlX8OK0vkQoQIzuXvlC+kRTM2qwGh7aohfAZdkIit1CtI0yTSMQBAXESptBfJSyqCVBeEIJyE/rQbFGdUY7Iy1IOcaZOmyIYqIkZRciTxjDfLSZqAwrRpJgxRcpZiJ0lx2jjufkk/GAAGxLA3pyVOQp48Ny4sleqQmsWNDJiBKRhp3r3whVcGoScFoe/Mn7SMShkg4AlOPFQ6bi3atXRREYevdDVNUBI2+GhlK4XEmmo3SdBFc3iaYnTZ2HFsQaHP1IEU/GZlJucyS4pAiM/8yaIKOUQsERMQ7n+O9DbfjmU+ewN6+NoTRi11b2PGGh7ChfjNG+y5KOAGXSo3ISpvDeuRCSp+JNOVA31ymmYyi9GlIVZ442CESq5CcNB0F7Mct47Y9MaSy9BPqKkqf8YXriPHDwT3H8NRPXsA//7oWlr6R+RYm4gzfXtRZfVDKc5FmyOYfaLKkMiRHmHVu3w9LMFaMw27aBpssA5naXKi4gtIpKEpWw+pqgt3LOR4iiPgisQRctxBzJtyPhZO/jiVV/elrmF96BTLVKr6IWDUP8yofxJSM4hOGO5TKakyv/AqmZk6AnH0rYv1izGV1LRpc1+RHMb94OdJV8RU56WJg/846vPzMu2g51oktG/cyEX8PNguFv018rGjuOICgzIBUQynUYg1yMqugiFjQbT6KQfqNgGcPOp1SZCQVQSlTQJW2FGliOyyOo3BFhEIEEUckloCrp6MkxYiGuh/j7Z2x9H7dTqjTF6M8bQI/R+a3forOoBJJhkoYBim4KnkucsU9aDIfgzcUgVgzHUUGHY4eGahrff1eaDOXoCy1FHLhOmLs2b3lEP7629XobrPAmJwFjcKAHZ8exNO/+hesZodQikhUfOaN6A5qkKIrgV4/BSXJKQh796LdEXOW008wZEaPtQmSpInIlE9DdUklooFO9NraQfpNxCOJJeC9v8Xzm7+PnZ116LHFUnf3enQHdNCrMqDg3ISHj+CYyQqdpgQpGl3sOkZuxgx43S0wudr4H3Oo+9d44fMfYnfXQF1d3R+hN6iHQZ0Wq4sYc/btOIJ//P5NmPtsSGPirdckw5iUCbVCjwO7juLZ374Ou5Us8UQmGq5Fs9nMOm6pSE2fhXS5EtaeTbCcrMoRD+z2WtgjpZhcdQsqlXK4+jagyTPYTieI+CGxBFykR3LKTFwy8y/48rKX+HTvoh+iuH/Em1+5EoWlZxu86iLkp1RAxeVJl6Eo2Q2r6xhs3tjqJ5FYj5TUuVg46+njdd2z4PsoVHAXxJbAEGMHt2AtNmz+HhNoN7KN+dCo9Pw5LrpPeko2dOok1O6ux8tPvwdTL82JxzdyqFTZzMougE4mjbmg7beb2WuzaS9cqjyUp0yCEu2o72mNnTuBIMyOWnTaOtm9kc5+xR609O2lkDsEj0jEDD12f6WoUyAVixGOjP+OXUIJuD7zQVwx9UFkiRpwtONDHGGprnMXHGGhgEDAtR0tdiDdUAi1XA5d7iKkBp2w2A6zn3SMpMyHcEX1fTBGjx2v62jXHjhPqosYG7gFa6/8dS16O6xIS8qCWhDvfjgRN7J8jdKA7Z8ewOrn18FiorjN8Us2Kiq+getm/xRzjBpY7Edg9vT/PSPwuvah16NDslaPsHMLmk8VTNHfhR5nG7yc9ns/RjPdEoSAVDoLC9n9deWka2AUd6G2t144M35JIAE3oCBnCsT+RtQeexabD8fS50ffRd9JHalQqAsdPbUQG8phVFRiUnYBPO4DaLX2CSWSkJ89GVHvMRw89szxurYcex8mGm0bc/ZuP4IX//IOulrNSDVkHLe8T4YLpJKiT+NFfMvH+/HCn96GjebE4xQTWlr+hU8P/QWfHv4LtjSth8k3EPve7zuKA0efjp2v34wB/fagp2sN+/3+BfX8TIoT3d1rsYWvZz34cZlAG+qaX2LXfXq8A09cfITDh7GPuy/49Ax29XTz+SF/K+qa/oFPW3Yh2r8/NdyL5rbX8Nmhf6J14DYcdeJIwKVITl6ACibS3Ii4LmUStNEQggE7Avx5FRRSbnBbAbEoKAyupaNy8kPIO3nnV9QLh2s/LOFSFBYsw0SVGFbTJ4PEWc3qErF65OwLCgl1ZaCy8svIoV1kY8rurYfwt9+tRk+75bh4ny4gvkTC7htOxBU67Pq8Fk//5jVa2BaXuGAybcfRzo9R17UF3e4T/4aRsBN95s9Qx8432S1CLkcADttuHGP5vcKD1u85hqZuVo+lJ5YRMqPLtAV1PXXCs4S4GIlEOtHK3V9cMjUgHI09+SNBdn/0bWZ5zfwxT8QBk2UHux+3whwS8saAOBLwKCJRJYpKvos7l72EWyZUIhR0osd2WJjD6sbOhq0Qywsxe9ofhXnrX2NGShKT/pNnuaJwerpgcZmRl1EDuYj94Xqb+mfUGJ3Y3bQdEmUZ5s34k1DXrzAteai6iNGA6/nu31WH5//4FutsOfg5bq3acFrx7kcilgjD6Xoc3HWMX/RGW8wIgoh34kjAw7DbtmBP/Ro0Ww+hi6XDR3+BQ4M74r1P4bW9rx4/32Xdgk+3PogNjTtg9lgQGqy9/h50mHaghSvX9T5aTpozC3X/Dm/sez12nk+fY9O2r2Jj005YvFbWOxMKEhecSCTCryj/5zPvwWZyITM175TD5qcitrAtB1pVEvZtr8Orf1sLU69VOEsQBBF/UDjRBCMRw4lylvcrz65FVys3bJ7OLG9OvEe2EyAcCcNq74Xb78DshVNw6/1XwJA8sJ2QGD0onChxrlA4UYIYx+zZdhjP/+EtYcFaOrO8ObEd+TY+bjidmxPn9olv/Xgfnv3tapoTJwgiLiEBJ8YtnHj/4//eRG+XBcak/gVr537LcgvbuM4AJ+J72Xs885vXYbOQiBMEEV+QgBPjDm7Omxs2f+kv7/DWcUZKLhPv4S1YGy5iZolzntu0rN7a3cf4LWb8PnFa20AQRJxAAk6MK7jV5rV76vk5b3MPJ945Z71gbbgMLGwzYPeWw3j9uXW8S1aCIIh4gAScGFccYNYw5x6130mLWnlhxLsfTsRT9OnQKPTYsnEfXv37++Q7nSCIuIAEnBg3cE5a/v671Uy8TYKTFt15HTY/Ff3OXrg58W2bDuCZX79OC9sIghj3kIAT4wIuqthzv18DU08sqhi3Vex8LFgbLvzCtiRm8St02LfzCB+elCxxgiDGM6Ms4FI+olCSZnBKYbnjGJEcKmU6DJp0KI5/WwWYPv0XuH/Zt5Er5BAjg4sqxjlpefnpd2EzOwc5abnwlvfJiFmHIT05m3f2cmA316b3YnPitLCNIIhxyKgJuFRVguLMK7Fo5i9x49zB6duoTquAdrzG15aVYGrF93DD3H/DBJWQR5w3avfW81HFutstSDGkQylXIxwODZm4EJLnhygikfCQ78HlcwFQVHIttm3aj9UvbIDFTCGrCIIYf4yOgMsLMKnwTiyovAVpno/w+ZG/DaSOKCaVXQHjeDXDQ91oaluNLUdeR8cYRp1JRLh43txWsZaGTnBT3W6vC73WziFTn60LXr9buPLc4LwO2lzmId+HSyZbN0LhIF/usw278RI3OkC+0wmCGGeMgoBrkZW+FBMzS+Hv+QfeOfgyDrWvH0jHnsLa/S+ic7yG6YxY0d33GQ63bx7TqDOJRntLNz56bxtkMhmKSnORV5SJjFwD0nP0X0gGowIerxPB0PmJFRVhlrzP70FEFEBajm7I98zKS0FhSQ7yi7LQ123B+rc+RzBAsWQJghg/XHhf6PJ8VJd/DTOTOvDu9j+jK3CqSPsDiMULcOWSh5ApHHMc3XcHNvUNmozUXI8bZyxE6+FfoVtzDS4pmgs164447O/gox0vwYRyzJv3OCrUSUCgFXvq/oBdPa2xa8Ua5OU9iEVZfqw/8DzUxb/HkgxhDN/xEV7f/xKsvv7IwLmYMuUhTE934sMN/4NYDdwc+KOYmtyDDzb8Eu18Xgyx7nbcPHsl67YImJ/HM3vWCgeM5Otx19Tr0Nv0ExzGSiwsnQaF91O8/tkfcT5CaySiL/TGujb8+PE/8IvMDNpUIXfkcB2BPmZpl0/JxTd/fO+orHQnvgj5QifOFfKFfoFRK1Jg1OfAaauFNXyGMWgmrFkl/w/3LXkQSd4WviPBJ48D5VXP4sqyuYMWkjHEBhSVPIL5ucXwuurR57JCY1iKRXOfxM3zv4H8iA29jkbYoumoKb0TZckZJy6NEpdi7sxfYb6uOfY+zk741Atww8yHkSMTygwXvu3/hvtmL0Kov932FrgMt+Hu2fcinVmag0nJewSLC/Lh5sq5ekDGPUEQBHE2XGABF0EqToFSGoTDY+KHLk+HVDMb0zKL4bN/hq0Hn+RHAfi07x9odkdgNC5Fkf64bQuxRAIJLDh0+Hd4l5Vbs+evrByQpEphPZtN2LT7v9n1P8amxm1wK8pQbEiHdLCCK6TwmXZg+8H/iL3P7l9hZ+chBGQ1mJ492P4/Myr9pZielYPerpewvr/dO36CTS0HEdXMR0VGllAyhkJix6Gjf8J7/OdbDZphJQiCIM6GUZgD5xDxi5ROjxLGpFLoZUG0Nv0D9fZBkubegu2tTAjlBujV2Uy0BSIe9PaswyFTIwLc6Lp/F+r6uhHyNuBw0wfoCniAaAhu5x6Y/QrIpdITdyeFu3GsZTXqHELHItiJ+s7tsAR8SDFOYy0aLkqkGEpY29WQyipQU/lVLOLT3SjXJ0EskkClysRgG9xr2YgDXYfgE44JgiAI4my4wAIeRTBshi8ohU6VxgvZqZFCwQRQLA7A7fviamOf9QgcYmZxi2UDjY6GEQq6MHhpUTDsQzjsRSDsF7bvRpnl70NomDuQuPoCrF5I1CcI7umRQiqRsk4KE3LjJSjNGpTSClk9IoglyoGOByPit5J4EwQjEo4iOmh5SzwRiXBtj9PGJwjc18/9HeKRc237BbfAg2E3XH4bdMlTYJTKhdyhYD8EXnKZ2A3hgUvCLG8Nd5p94gv5p+K8f3FGepSJ+PDfp/9HbMLerbfjmQ0npQ+/hHePbCLBJohBSCQyqFUG1uFmves4FcEoe/hKT/tcIy4kKfpM/tnL30NxCNd2TnNOb9yemgsu4CG/Gd2WQ3BLp2J6YQ2yNAbhjIA8H9nJ5dBI3bB7TEzwk1GcvxgpCoVQgNm3ymKU5k6DPGiB3dt3/hZ8ibVIMRTD0D8xLtEhM70aqTIpejo3wxXLHQYDbc/MqIL+BNNdj9SUCujGtbs5ghh9JGIp1Eod/N5gXFpQwQA3AhhGWgr5YxwrDLo0hEMRBHzxuQzY5wlCq06CUqERcs6OCy7g3D7qju73cMTUjpTcR3FZ5V2oKbpuIJU/gmWV96NADditW9HisEKX9SUsnHjz8TIzJn0ds9I06O77BG32PqHi84C0AFMmPoBLS4W2lNyJ2XkzoQ7ux76+s3sfu20bWuwWZBZ9D5eWCfXx6S4snPJ1lAysvSMIgsG5zC3KmQyvO8ineIIbMOC2APlY52NS0WwhlxhtZlauQCQMuBx+fiomnggFI0zzvEhPyUeSPl3IPTsuvIAzQr5GHKr/C9bvWwOHfh6ml9w0kDID2H/o72jltl37G7Dv6B+w/uguqNOuOF5mcqoHe/f+GttbtsPJ/ljnjVArDh59F57U62PvlX8p5J5N2HT4n+g6W58hXNuP/RHrWxqRlT3o85VUwnTsD2g8P07ECCJhkMtUmFg0CwYt5yzHgXAcPYBDgRAsfW6kGvJQM2mpkEuMNoWsA1hWMAMOJoQe1/lx9DQacEPnvR0OiCIKTC6bj2R9hnDm7LjwjlxOQAa5XHVSryGEQMCDE2YwREooZPJBC8ZDCLIyJ2i3SAGFVI5IxIMga3s/YokGcnEEwZAPYa6bzBCJpJBJ1ezL8sAfDrFCgiOXAhW27HkGLT4vJMKbRfkFcMFB899iSKUqSMXRQW2QCHmRL7ZdrIaSW+1+nAi/MC7UXyFrt1KqQLS/LecZcuRyZsiRy/iB8z2/YesL+GjbS9AYJMjMM8TF36Or1QaXLYyrFz+MudUr+ekAYmxo6TyE59/+T/gjFuQUJkMqG9l88mhiZZ2/7nYHJhTOxF3XPAGVYnhDtKPuyOVEgkzwHPCdkE4SQI6oD/6TynzB8I764Q86TxBvjkjYDV/Qe1y8OaJR1kkIOk4hmEzs2bn+9/KfIN4cTIBDrM4T2hBmeS4+7wttZ8I80G4uDRJvDtZu3ynbQhAXF2KxBJdMux75WRXMigqgtcECnycwLufEuTZxw+aNR0xwWoOYUn4pqssXkHiPMTkZZZhXswphvxRNdSa47NxOpAg/zTGe4KzugD+ErjY7ejtd0GuNuGrhV4Yt3kMhSU9P/xH3gqt81apVyM3NhdtvQV1nArsGFMlhMMxAYZIM7d27YGFCnChU5F4GlfykhYJxjtXswCfv74BaqeWjlZ0rnNXn8TmRmqHH3MVTyQIfY2RSBUrza/iREYu1D6Y+C784LMx6vkE/92+YXzA2VsnvY/eLK8DPV/Z1OaFVGjGr6kosm3snDOwhTIwtXCcwM7UAGpUBNocJHR2dsfuGiTj39+Pmmrn76eS/62ilAGsLt1jNZffD1ONEJKDAxKLZuGnFt5CTXip8iuGxZs0adHZ2CkdMykZ3CH2cIJJBp6tGnl6Kzt59sA3DP3u8QEPoZ4aG0Mcn4XAQtQ1bsPfIRrR01sLmjC0klcpGeaDwJLitYtxCKW7Fc2FOJWZULkd5wQxIJGR5jye4cMNt3XXYWbsODW17YbJ2IBgOQDbGQ+rcSADXgeAs7bysCZhSvgDVExbzizjPlpOH0C9OAU9gSMDPDAn4+IVzt+z22OFwmxFgHesL6/Vh+IjYf9z6HT27/3TqZCGXGI9wU5t21vnz+lzsfvrC5OuYIZUww1GTwifu9UggAU9wSMDPDAk4QRDxCAl4gkMCfmZIwOOf7Qfewz/X/lw4Gjn5WZPw+F1/FI6Iixm314Ef/u4a4ejc+NV3PxZenV/GeBU6QRDE+UOXpESSUT2iRBBDoVTLhrxfhpNk8tGdbx9SwDmLZKS+WYmx5UwhWwkikUjL1CE7P2lEiSCGQmdQDnm/DCdx4j+aDCngUomC3ypBxBd8pDYxdbwIgiAuBoYUcJlEyQT83OcaidHFoM7i/3YEQRBE4jOkgHOOQPKM0yCTqoQcYrwjEcuRnzYdCplOyCEIgiASmSEFnBuKLc6Yg5KMefxrYnwjFkuRb5yKsqxLmAU+EIaVIAiCSFyGFHAOjTIFNUWrMLP0Nn5bEhd0nBh/JGlyMCV/JWaU3gK9KlPIJQiCIBKdIfeBDyYSCcEfciMU5kK1RUnIxwnhSJDfKcAtOJRJVOxfuXAm8aB94MTJ9O8DL56YNuKVv4d2d9I+cOI4/fvA07J0fBoJbY0WOG2+UdsHfkYBJ4ixhgT84iHMDIZQKCgcnRrO3/Xr6399zgKelzkBX731N0LOqRGLxXwnme6V+IPzkR4I+oWjU+PxOfBff7rlvAj4Tx9fK+ScBnYrcYF8xGdhFJOAE3EHCfjFQhS9lnY+mAkXiIIT81NhtnWitevwOQs4F1CivHCmkDM0KoWGlZnBx25WyGlhb7zh9buw4+AH6OprZELuE3K/CBdMZ//RTedFwGsmLRVyhkYmlSM3owxTJy6BVj18nwQk4ETcQQJ+8cA9RNu6j2L7gbXYW7cRPr+b//vIlRJIpV/0cZCVb4BcMbKoYC3HzMKrAbiwyn5fCOFQzCFSYXYFZlZdgcmll0CnoSAm8YqJdfh21a7Dztr1sNg7+b8z5zVtqHvHkKJCUurIPPX1djr5mPEnw8UB50KLcqQl52J6xTJMr1zOnmnZfN5wOVnAh4wHThDjCYoHfvHAOSJK0qejgAknNz/dY2qG02PhxTslTYPkNDXvKas/cQ/hkf791Fr5CXVptAr4/WH4vUF2rxmwcMZNWDb3LkwsmkWWd5yjVurY/TSB3VeT+Gh3fdY2flpEn6REarqGd8nbfx9wIzpi8cjuKYVSBq1ecbwurU6JcCTKi7pEJMWUCQtx5aVfRvXExWdlefczrHjg8UyraQ8+Pvh74WhkzJ/4JZRkzheOiLGGLPCLE86o8LKO1ie7XsMnO15FKBJASroaaRk6iEb4gD0VHlcA3W123vrOSS/DtUu+isKcyZCIKeZ3YhHlf/+HGrbgXx/8L3wBFy/eGTl6SM9z3HDO4u7tcMBp90EuVeO6ZV9HDRNuiVTGh6cdCQkfzISzrgIhzzml0829EQQxOnAdK7VKjxXz7sF91/8E+ZkVsPcF0XzMDJfDz37rvO1xTnAP2b5OJ9qbbJCLdVgy+3Z89dZfoyRvKol3QiLiF45VT1iEx+/+E2omLUPALUFTnRk2i/f41Mm5wNXhsHrRcsyCoFfKv8e/PfAcZk5eAalUPmLxHgraE0YQxLiGG1YvL5iOe679EZbNvRN6ZRa6Wx3o63LC5znzivWh6H/IdjRb4baLMLnkUtzN6r9qwQNQKjRCKSKRMSbl4Pplj2HV0q8hN30Setuc6Gqzwz3CziF3DXctV0dXixMFGZN5q/um5d+CTnPuI4dDQQJOEERcYNAacdncu3Dj8m9i+qTL4WXCyz0szb3uYVtOUfZc5ofLOxzobLEhVVuElQsfxHVLv47i3ClCKeJiQaXQ8pbxjZd9E8vn3QNJWMffU1znsH/R2XAI+MMwdTvR2WqDmNWxYv49uGH5NzCNWd9y2YWLT0ECThBEXFGSNwVXLXwAt1z+XRhU2ejrdKCDiTEnzDiN4cRZSOYeFy/cXkcEi2behruv+Q/+AU4rzC9ustKKsGjWLbjz6h9iQsE82M1+fkuY3eLh12KcDm4kp72JlWXXVBYvwJdW/Re7t25Bekr+BV9fQwJOEEScIYJaqUdV+aV47M4/YH7NdXDZffwD18QEeqjhz4AvhOY6E3qZ2KcnFfPz3CsXfoXfxkNz3QQH56inKKcKd678Aa5d/AjCARHr7Nn5zuFQ1ngoGGb3nJWJtxUykRbXL30ct1/1b7xzIG6uezQgAScIIm5RyNX8HOZXbvo5CrOmwNYXQFuDBW5ngB9W5/bfchZ6w+E+qOVGLJtzBx648Wf8FjWCGArOycr8mlX45j1Po6rsUoS9MrSye8pmji1yCwUj7LUHzUdNiAa4BXELeW9+s6dcNeourUnACYKIa7hVvdxe7duv/DcsZQKtkWWgnVnj/fPc3CK1qRMW45bLv4MrLr0fOk2KcCVBnJqM1ALcsfLfsXLhQ8g1VqCvw43udjufzN0+FGRU49olj+Cuq5/gy44FJOAEQSQEyYYMLJl1Gy/Us6pWwucEjLoSXLPoq7jhssdRVjANFIyJOBu4LWczqy7nF05ynUNuy5koqGX32R24acW3MG3SUn6XxFhBdzNBEAmDRCJFUW4VP7/NDWty85kzKpfz+8kJYiRwwUY4C3vxrFvx1dt+gy/f8CQWzbwZxuScMe8QkoATBJFwcNuD8jLL+YfsWFpIROLAWeM56aXIySjjX48H4tqVqs3dCbdvcECCKHrsx7C78XXheGRUFVyF3JQT94SqFUlI1uYJR8RoQq5UE59gMARLnx1ulxdetw+RM2zdIYh4gHu0KFUK6PQaGJK1/OtzIaGikTX37sC+5rdhcjQw6b4wP3hugUyqrpAX9ZLMeUIuMZqQgCc2PZ0mbP1kP2r3HoOpx8aE3MaeR+fu0pIgxhrOZ39Ssg6ZuUYUleVi3uIa5BdnjfiZk1ACzgVq73M0Yk/TG+gw72e99uF7zhkO3PxGdnIlaoqvR4ahjD8mRh8S8MSFE+/XnluH3Z8fgkQsh0qugVymoN8akRBwGhUMB+Dze+APejCpugS33n8FE/GzCyPaT8LFA+csb1/AiS11/0BjzxYh99zhLO/C9FmYXX4HNIpUesiPISTgiQk3bL7uzc14/bn10KtT2d82hRdu+nsQiQTnyY1Lbq8DJkcXll45GzfeswIqzdm7WE24aGSc0Krkeiya/FVMLVoFmfTc4/bKJEpMyrsMCysfglZppAcKQVwAnHY3Duw+BqlEAb0mmV9sRr81ItHg7mku9rhGpWN6osfeHXVwsHv/fJAw41RikQQzSm7GnLI7YVBn8cJ+9oigV2VgRuktmDfhXv7BQhDEhcHn8aOztQ9KuZp/wBFEIsN1UOUyFSwmOwKBkUXRO5mE+9WUZV2KOeV3Iz3p7OasubJp+hLMLr8TE3OWCrkEQVwoAsEgbFYHZBLZWf1WCSJe4azxUDCE6HmIZc+RcL8asViKnNTJmD/xfuSmDj88ILdY7ZJJ9yHPSIH8CWJUYM8w/kFGw+YEMSISstvLDaenaPNwWfW3mDW9RMg9NUUZs1jZb/LbxbhrCYIgCGK8k9DjVpwYz5v4Jcwqux0quYHlDO7pi6CQafl58yVVj9F8N0EQBBFXJPzEEyfiFbnLeRFP1uTwi9u4/5I0WZhVejsq86/gjwmCIE6PAtlTClBzSSmm8akA+RkqjN2YnQiadD3SUmNtkGRm8e2qqEiF+rxGtZQhs6ZE+Mwszc5GsvpcpxlZ29MG2k6MjIti5QgXo7U4Yy6zxu9FZvJEGPXFmFt+D0qz5kNGljdBEGdCrkbp/Mm48p45uOaeubi6P909F3Mmq4VCo0vOvBr2/jWoKtaDk1Np2US+TYsX5TEDJVbm3FGj/LIpWHn3nEGfmb2+vhjnEh7meNtLYm0nRsZFIeAc3MK0rORJ/H7xpVMeQ3bqZJYnE84SBEGcCjFSCnMw5+pyZOvD2PP0e/jTkxuwfpMV+vIcLLi3BiVCydEkubwAEyYkQyUoYGD3Dvzpx+/glVfr0OeI5Z0zmUZMm1uEHK0YB15+B3/7y040mOUomj8BlelCmRHAt33iQNuJkSFJT0//EfeC8xSzatUq5Obm8icSExHkUjWfaNg8frCaHfjk/R1QK7X8nuFzJRIJw+NzIjVDj7mLp/JbO4jRx2ZxYuN726BR6aGQn7sDpguGVIac6RWYNT0ZsmOH8OxrLXBanXCHxcguy0VqcjJEPQfhKJqHB3+4CBXaEIzXLsKdnIU5QYXe2k7Y/CKIpcm4+smbcOst1Vh0DZcyYF3bjF72PJp6/ULc+435KPQHMfn7yzGvMIq2nU6U37MM9z88F0uu5cpXIF/pRUuDFUnXXIO7l3I2sALZNSWoNFiwV12Fxx+bgeLUMFotKtz4xBW4csVEGLUiXPLg5bj6hmpkWQ+htjUCkdaIpQ8swR1fmY0FVyYDzjzc9IM5yPVZUN/iQrh/l5NYjeLpOchMliODfVZJyxG8/o8d2PTeUbR5knHNkzfi1luLoemxoKXDg5rH78IDd7Jjrw2u3Co8+v2FWLxyChayz1uRGUTzMRN0V179hbZv2++CcUIZbv7Blbj2xtj3M/sSDTo2dsCmz8Z137kMN99VDlmHH3O/fTWuX2GEubYXuV+6FV/5MitbpUNPUw8sjvPrTvt84w/64PY6sfSqOTAk64Tc4bNmzRp0dnYKRxeRBU4QBDEiJGIoktXguhh2k+t44CSvOwCfN8C/HkzOvEnIjzjR0RdC6oRC1kkshF6Xi9t/eyWqDSFY2nrR2mSHJ5COVf+3FFWGgVng9EVF0B7pQcNuE5JWTMOiWWnsTa1obTTB5pageHklphfoETSZYeLFKgxXjxVdvf5YBSch0yhQOqOI1eFCIBTFhHsWYqJSgTLWxqlTk1k9FnQ0KTFlRebQc9GOLuz4tA3NzW6ElGpMuXkFfvDHO/D4I1VI1dqwa0M7glDCmK2CVJOPikr2vbCOWWdYjyVLcqCQmbHx/zbh4629EGdmYGKeDkGz5YS2d7O2y9Im4sZvz0a2yI3uJvb9sE6ELKUIVzxSjRxVv0zpMe3GSmjdbgS0ObjhRysxV9mLHksQqqIcTKswQnmRTaiTgBMEQZyOSBRhXwgh9lKhkh8fu5PKJJBKOcVgQu6K5XEEmurxym/X4+UXm+BkVmZarh4ps7KQLxYhEgyi91gb6mpNcPnCEInTUTp1YPRBZmrCi//7ITZss8HXa8K+jYdwYH8Xjh7sgsnOiZ4cumQJLJ9+hk8OeNmxB0fe3YG31vXx159MNBBA3fub8fyLh9Bn5T6BBoYcOVILU6Bln6hp7Wb8/X834PPmKJPhoenavBPP/W4LPll3CNu3tMHMxFdbVY0rZ8jhqGtBo1mE7Io0ZEzNRkY0AkdPH7rqrEykA+yrS8PSxxdhXrkM7Yc70W0Nntj293ZgDWu7dnoeMlhOwO5ASy37fo7Y2bcqgcGYivTcganOo29vxNtv1cPC9Ve83Vj7y/VYu8XCDiSQK8Xs++SLXTSQgBMEQZyOUAjOdhOsTDSUpfmoTGUSLpUjPT8dxhROwO3obo4V5eBCSHIqL5IzgWfHciXnaS4m+5zjGq/DDXtHBza9vAX/+stmbD/k489xeHvs4L1ks/JytRKGFA2CFgscVi98gbP33sW9n98bhN8XPB6ilaslwjnQYY0UCxarVDa0FChzc7Dk9vm48bYyuLbtwrr3jqK1J2bta/QquC0mNB6yQZxbgOVX5EMZDKFldwPMPRZse2M7XvvzJrzzcgM8xhTUXD4Di+cZh5y87G9bJBCEy8a+n+YGvMeuffPVg2jq5joeMTyuQSMNbj8G+k1SKNRcIBzh8CLhjNHIAuwPv3dLI/o6bOhsscDjHLjZiLFDpVUgMy8Z6TlJqJ5bApXmvO4bGVdQNLLEpLm+Az989Cmkp+TwwUzGMxK9EZfePhvzpycjbPPAy4xhmUoJtVqCtvc/wAurTUifPxe33VMMTSgIB7M+oVCyzxVF68e7sOZtNy776SJMYIruc3rgFzSJE9idL66Hp2IuLl+eBc/HH+KpFzshT0/H0rsWYOZEFUIuN9wBEZRaFZRyH/Y+8yHWbLNi8r3X4Yb5aviZqB1d/T7exUx8/+5cmPYcwBvr7Fjx6BzkioPY/sJafNCdgS89MAP5mT6s/eEHsFTMwNW3FUPt8cDliSDIbLk0owSHX/0Uaz7qgl+YShaxv811D8/G5EINAg4X+9wS/tnDDY2/+9g67PRGkTG9EtfcWoNsA9MLVzP+9d1P0VlQjKuum4zsVC82/2YTLKWVWHFzJfwffoC/r+lFpdD2AGt73Rsf4O192bj3l7OQGQjA7Q6gPxy8q60DG9e1o/qWOagq0GDrUy/hoKISV99djUz3Mfzx37dDdc0y3HtVBto//AQvr26F54uzGuMGh9uKXksHfvKHx/m44GfLsKORcYvaulotePZ/PsDal7Zj5ydH0dlsgs3sojQOUleLGXs21+ODV3bi2Z+tRcOhTqFXTRDE+SbsMOHjP32GT/aZEJRIIGPWNVNybH36A7z0ei8TwAEc+49hb28YkkgAbbuPYP2ao7A4OvDKI29ja2sAEbGUXc8lC9b9vzfx+bEogr4Abxx5fDHlCvRacGh7IzpNPgSiEiZ0Hfh8dRPMTibkhliHs/3DI2hyBhCKipCSoWM9UyZ+rA6vN4QIU0Afe80dB4LsucAMNK+bOw4gGPajfush7Pi8G56wGGJrPbbsGDQHMIgoE5vVf9qNJrMHIRFrs1SEkK8XH/z4U+xkws+EAj3tNlhMHr68f08j6tmX4alvxLqPOxARGbD4u9fghutL4N26FW9u6OVHANo/PMy3PcjansraHrQfxb9+shlHzRGIpbHvJ+Ruxfu/347Gngj8Hn/ss7COT4RZ+V7us7mD4L6tiD/2uX3su7vYnoBDWuDsb8ILxDvPb+VFnBj/pGbqceVts1A0KTPhLEqywBOTeLLAz4hIjBzBAg/v3omn/14Hl1cwI8cbYgl06cnIyFDyFpxILEbR0tmYXRrG7hc344PPehEYZtP1eZnILM7AvGUTUJAZxWc/+xc2NAgniS8wKha43xvAvi2N6OmwCjnEeMfS48D+rY3wjefxI4Igxh7WYdUW5PJD9Lc9uhi3fnUhE28xuvY3Yv8RB4LD7XewejLmTcdtd05h4i1Gx9Z92EviPaoMKeDcQoH2xj5Ejm8GJMY73KhJ85EefmsLQRCjTDQCU20tXvvNh1j9Tiu8/nFqfXOEQ+jZX4c1f/wIL7D28um3H+PNVw+jrc83/GFo9tBp27hVqGMj1rzSAJNwihgdhhTwgD8Im2noORFi/OKwufnVpgQRVySIneC32tBc24mWNvfxRVjjlYjXi+6GbjSw9vLpcA96TX5+Tvls8PWahTp60OcSVr4Ro8aQAh4KRk5crk/EBZwVLpEM+ScliHGHQilHemYKguEAu3fHueIRxDkTZfd5FHKFDGJuq+F5gJ72BEGMCSq1EjkFGfD63QiFB/b6EkQiwi0U5+71NNZplbPO6/mABJwgiDFBq1Ohano5xLIoLI5eBEM06kckJmHWQbU6++APelA9cwL0hvMTLm7IbWTtjSY8+9O1fAEivnj4R1fzzl0SCdpGlrjYrU68/tx6bP5wN0RRMR+/n3fVxc0HEUS8IzxbIpEIwpEgpswox+1fWYnMHCOff7acvI2MBDzBIAE/MyTg44+P127Hurc+R1tTl5BDEImDMT0JC5bPxFU3Ljin4XMS8ASnX8CbjnXgb79dLeTGN36/H93tZhJwgiAuasZOwJV6TJyeAaXHjEN7LBj73cpSGEszkZen4QMODBBC38FWNPfF53asfgE/vL8RT373z1DKVZBIBqL5xCucyOo1SVArzz6G7smQgBMXC0drm9HaeOZRDaVagUlTipGallijd4nG2Al4ahHu/ffZMHYdwNO/qIVdyB47NJh682xcdlkO1EJOjDDMdZ3Y+vrH2NkkZA0LOYqXVmJKXhR7V+9Fs0PIHmVOFnDOTaXmPIjeeEAs5qINnfu6SxJw4mLhhT+/jQ/e2CwcnRpjRjLuf+wGTJ5WJuQQ45FhuVK9uDBjw4/exu9/uIZPr73bAUVhHhZdNwF6ocTwkCB1Qh6mzM1FikLIGgeIxRJmgUsTIp0P8SaIiw2ZVI6M1DzkZ5YNmQzaFKEkEW+MgyeiCFKFDArlQJJLBywikYQL1C7jo+CcjFgmhVwhYSIlZAxR11DXnUgIrm47TN0OPtWuqUWt2QNFcRr42VZWuYzVKZd9sR6RVMreQ8rH0uXKSCVcGRFk/e99QoxdESSsvQNtY9edsW0EQRDnBjfCJJNyzzDFkInr5BPxydgKuEaLwokluPknt+L7vxtID91TgvSk2E2lnlSJB392E+67Pu2kuWolpj90Lb7+7Xkoz5Zxm0pRPKkUtz55Yl1fuaMIRqGuMyOGpigVmSopgmYXuMjnyrwC3PD96/DIvQU4cSZZgsKbr8K3/vtyXH71JNz2o2uxfIoeInESLn8i9t733JgHDWeNs06AvqgAKx66At/ub9uvrsdtNxUjxSDjd80QBEEQxNkwtgKeX4LbH5sD9dED+PRdIX3cCcXsObj8imxoWRF3YzearEEkVZUgRxW7jCerFHMqpOhp7ERnbxAoKMNd35wD+ZFBdX3SBfXc2Vi+LAun3javQfkVk3HplVUsTcGK6ydA1dWCjS8fAbf0w9dtQVuXC+qKiajMjF3BY8zGvGot3O2t2L+zCwc2HkFDtx/RqA/HPo69/95aO4Jc4H9Wdtk901GkdGCX0Latm7tgmDUNly/Lg045DgZCCIIgiLhibJWjvRmv/eljvPXPvfjoTSG9th/H7CIkF+cgjVNdjxkHa12QJWWipFQZu46Rd0kx9F4/Wg+2wcEtaW9twD9//zHeHlzXv/ajwSlBSlEWUk9cqTYILSqunYol13GpClUTDNAk6VBQICz88jvReMyGgNyIWXMHNt9nTC1CoUGMth1H0dpqwZ51B1HXxWz2qBdH1sXef+d+dl0IKF46HbkiMz5/bTs2CG3b8MZebN/jQu7ENGh1J44tEARBEMSZGFsBd9pxdF87DCuuwLd+eWMs/WQRJukBEbf4ite1MFq3MZFWqFA8rwgxCU3D1Dka+DzdaD4kbEhjddXtbYPxysF1LcQEVpdY0l/XUPRh7fdex/9++7VY+u8t6FEko2LlQlw+m+tBRNC9uQn1niCSZhYjl7/GgPLJBlZvJw5t4wbaT4cO+RV6GNKzcNmjV+ExoW2P/9flWDQzGcpkDVIUJOAEQRDE2TGmAi7NnYiH/3AHbl2sRzQcQYRPXMQWoYBApK0ZB9qApMwsZOaLIZ2cgwqlGO79zWgRIthJ8yrwtafvwg0LTqzrzKEKI/DbvXD1p5Z6PP98A6IKBfKqspn8siqCXTiwxw+ZJh/Fk8SQFBpRkqpCZGc9jpwxBoPo+CI7zp1erF1cCiPo8bF+RwAhirtOEMQ5wD1bvOx5cnIKBYcXJIaLkuX3B75wPRdamjtHjE/GUMAlKJlXgFRJGI3rNuOP31uNX/PpA+zoE4ocx4VtbzdCnKJFVn4mKqrSIQ27sGdbt3BegrIFhUhBEMfWbhpU1zrsMgtFzgaXH24Rq1UtR/+OsPotTfAxSzmvIh8lRanQq0PY9mm7cPZ0BNmPIApHSwve/Gl/uwal/9qMI11eoSxBEMTZ43X78O5rm/DMb14/IdXuaRBKnB6Xw4P3V28+4drn//gW9u2oG3YngBh9LqiAi6UpmLggi7dilUYNNBIxIi4fv7obkEGtlUAkisDSZEJMwmTIm1uCQu6CkwjVN6LBp0FOVRmmT9DAX3cQ+1uEk5BDw+rirGlLs+V4XfmXlKKAWwl3NqiSMHUBs7wjUdibTTjuj6WpEduaQjBWTcScaawD0V2PHUcHxzAOsh8R11NVITl98EZwLxoOO6BOS8ek6ey7OD6NL0Zyfh6mzEwD6ycQBEGMGI1OjYrqEljNDmzftB87Pz2IA9sb4DB7oVSoY0FiTgG3T1zCnqGtx3qxd8tR7Nh0ALs+rwU3gllQkgWZPP49OSYqkvT09B9xL7hhklWrViE3NxcOqwd7NtfzBc4FsVSP+V+ai9nT81E1MxtpSQo0rd+C/a3cuHcELnkSZk9NR2pxJsqmFWPqvBJUz81DhlYMv92Ko9vaYBEiDEaYQEoz8jF9WioM+ggOv7EbB7v7e4YROBXJmFuTjpSijIG65uQhXSOCz2rB0R3tsJ0QrVCOzMpclJSkIqs8GxWsPHfN1PnFmFKZApG5CWtfOgYzs55jBOAMJGP6whykpYjQ+vFh7GlwDRruj0CUmYuZ7NpUoQ25Kjfa2l1w9lqRNrUCFZXpKK5i38Wc2HtVzy1CltyF+jrWgTlPvmVnLpoAjV4JU48Vn67fBa3awO/1JAaIRMLw+JxIzdBj7uKp/D5Zgoh3OG9quQUZ6G43wdxng0atR4o+HWqlFlKJ7JT3OSfgKlZGIVfCH/AiGA7g0mXTcfO9K/g6ifHDmjVr0NnZKRxdYAs8HOjDtldaIJuQgdwsNRybPsTrn/erKBPw7TvxPz89iEC6EYWsTOEELVr/+T7+uu6LjlajgTBM+zvhkEshcbCeYt1gxWMCvmU7nnyyFqGMgbqan38Hz314Jp+mchjLufJCKk5Cz7tr8T8/2oYmuzDBLuA52og2hwhirx119S4mBMIJgd71H+OtA6w3zLchGVqZBCIm8IGeXqx+6n1sa4ggu6T/vYyQmJuxYXUdrC6hAoIgiBHCCXTJhDzc+eBK5BVmwu4w8x3V04k3B+fIRSwSw+GywOt347Jr5+G+x25AstEglCDGKxSN7CyQaQ1Y8e2VyGrZjTf+dRimcSi8J/tCzzTmQ6s6O6ewiQ75QicSneZjHfjrU6+jpaELSTojnziRHopwOASzvQeBiAcLls/ATfdeDqWK5vXGI+QL/RzQF05AcZoLHU1WOMlqJghinFJYloOHvnsrH2HM4bbC5jQjHDlxRJEjEPKjl3VmQ/Dylveq25eSeMcRJODDRonyy4sg67Kgud6CE6bTCYIgxhnZeem46+FrMGVGGZxeK6yOvhO2hPkDPpis3fD6XVh+7Xxccd2l0BlO7bOSGH+QgA+bIGpfXId//HkX6jvHPpo5QRDEmcjOT8dtD1yFmtkT4fTY0Gftiu35DnhhsnUxC9yDOx5ciStvXEjiHYeQgA+bMBxdVpj6PAictHiNIAhiPMKt78jMMeLOh65G+eQCJuIWdPY1o4+Jdyjqxz2PrOKtb5WadqrEIyTgBEEQCU5yqh4PfecWVNaUIRjxQ6GW4Jb7rsC8JTVCCSIeoVXoCcbJq9B1miQoZANBYAh2r0fCcHnsqJxWTKvQiYsKt8uLNS99yFvl85dOg0JJC9biiZNXoZOAJxgnCzhxaqbOmkgCTlx0+LwBiMUiyBXkYS3eIAE/IypMvedSXFISxMbfbEStRciOE/oFPBgIwWY5kxObixu5Qg5D8tn62iUIghgb4lfAmZEkVWhQtqQaK64qgeH4yI8HB1fvxIb1rbCHBrZIjBw1Zn9tOS6bFMS7//Eu9nwhsMr4pl/ACSJeCIbCaOux4p1NB1Bb34Ujzd0IBL+4Z5kg4g2JWIyiHCNmTs7HgppSVJRkQS4befjouBVwWWYmVty9ANPzI+hotcHjE5aCy+RIy1Wh+Z8bsWabLZZ3TpCAE8Ro4fL48TYT7ufe3gaHNwgJ5/ZTIqVpDSIxiEaFMNJBKCRR3LCsBrddPgPJerVQ4OyIUwHXY/rXl+CKYhEaNu/D++taYXUIgUzUGpROyYSkrQN1HbE4Z+cGCThBjAZh9mD7aHsdfvvSx3AFJVDpjZDKlRBL5UzAaYMMkQBwAs7EOxTwwee0QBbx4L5Vc3HdkuoRWeInC3h8/EqKi7C4Uo2+w8fw0drmAfHm8LhRv7XhJPFWY+KK6bjlsaW4Q0hXryxGylDTnfkluI11DvhyD81CVakOpwq8p8wvx3WD6rzjmizhDEEQZ4vD7cOnu+uZ5R2GNiUbCk0SJDIliTeROIhEfIdUrtZDk5IFX1SODduOMA3zCAXOjbj4pZTNKYQqFELHwRb0uk/vRUWalISFD1+G61dNxMTJ2SgVUs3KOfjKV6qhVg585IzZU/HlR2ajvConVm5aOa5+fDEWVX5R6VOXLsZj35mBqkF1ll65CA88UMbHOycI4uzghs+PtvZBptQy4SZHIkRiI2FCrlDr0NDWB/d5ih8dBwKuQVqWFJFwGJYeJ860TC29qgozq1Qwb9uBXz/2In78wPP48TffwgdbLJCUV+GmBbG5B5E2BROqc5CmDmDHH16IlXv8XXy0pRe+kxbDSXPKsGplOrxdh/AMV45Pr2Pt4QDSKioxewa5ICSIs8XrC6K9xwqpXAWR+FTjXgSRIDBrnLvPvf4gP310PoibsapoxA//GUcd5CiYloFQQxPWvdcIh0f4kpx27N1Yh8YuPwpq8sH19dWpGqRn6mHfuh3v7xUE22PF1he34rM6d+yYR4LC6bkwKsPo2GVH6uwiVPEpA946EwIyCXSpzIIQShMEMTw4n9zhMPuN0pA5QYyIOPjlBOB2RSGWqJCccSavQWqkZ8nhdnjgdQ2aJ2f4ux3odfgQ0auhgwgqtQpafRTmbs8ZrHopVBou4L0Kk2+8BNd/eVC6IR8aiRhytYJ1HQiCIAhi9IgDAQ+ip8MNCbN0M0oyoBJyzxp2vUws5raTM0SQSKWQSlmeYrjbVTzY8fT7ePanJ6Wff4QNn/RQeFGCIAhiVImLsavuXW2wSGTImFSKohwhc0hssJklSE43QJ96ok2syUtCZooK4l47TIjA52NWukcMYyazx0+r4X44bNychRqSYB/aG09KTWaYLX5WI0EQBEGMHvEx+dR1CKtfb4coIxc3PboMM2dnI7sgNZaqy3Djv92Ae1Ya+aJ1uxoRzS7CtbdORfmkNL5MQU0prrypBrkaB9avaebL2ZmQtzaaoZk9H3ddZYzVNbEY13x7MRaUn7gKvaW2DWYm4tX33YTLLxXel0+VuOvnV2NmsVCQIAjiLBCJM/HkE0vw5ndm4LpSLbidwQqVAd95nOU9MRv3lMTyzgVNegoeu+9SVt883JNN6w0Sibj5a3Z9tBnvvd2ARrcOl315KR74wZWx9Oh0ZIQtqG/x8uUsO/Zh3fpWOFILces3L+fL3PvVWciKmLHztV3Y0S7Mjdut2L/xIHbUOlBw9RWxuh6pQbKvE/tqT3II09qId9+qw8G2MGbfLbwvnyYDe5vRSy7HCYIgiFEmzoKZSJGUb0ROrgYDcXRCsDT1oaPLg+Pek6VKZJelwZgsF3ooYdjaTOhocyHIHw+gyEjHxBJuWRvD70VrfS9CKVkoyoiibW87LIO0XJaVhcqiwS7wAmjf0wZTrO8wLiBPbES8UNfcg3ufeA769EKo9KlC7sUFZ4H/5AcVqPA68I83juDtehckzAL/+oPTMV/vxhsv1uLFBhekKi0uW5CHouORgf34eEMj9gdVmF+ThamZCrTs6YKqJg3eoz3Y2CLClQszkcXMd5M7gLzCXMzNDeONZ3ajo6IIJUEnPtzXhWMKIx6bkwKv04PNu1rQoc3AzdXJEDn68MpmK5JKMrBkYhL0/DBAFKZuMz7a04cuWTLuXpYJlSuATqsX6Xly7FnfjgNBGS5bXIiy44uVnHhnTTsahaOLHa/DBEdvC57773tQlp8u5A6fkz2xSdLT03/EveC2dKxatQq5ublwWD3Ys7meLzC+iMBnd6GvzYru48kOuyt44krySAhOkwM9x8vYYHMEhpynDrvdA+W6nPD6I/Db2LXtDnhPXMiOiMsl1NefHPCcVGasmbloAjR6iv9NjH/MNjfe3LiP98AmU4zMN3S8IxJpsXRBGtKkMhQVpmLJtBxcPi0DxQYpZKIgjhzow36rBDfdPhU3ViSjPEuHokwu6ZGXGsaR+iCmzcnH5ZWpSDeqMTtPg/ZeP8pq8rFqahpfvoylTJ0UUjErv7sVjpJS3FapQm+HHYqSYnxplhGlKXJY+6xwpuXg7jlZkHe2Y08oCfesLMeiYgNK+PfUoTxfA5HFhaMeDe67phCTM7QoZPVXq0N480AEt90/GdeUDm5nEspzRTh2wAar8JkvZkJ+D/xuO65bMhWphrP3H7JmzRp0dnYKR3E0hE4QBJGwiERQq+RIZZ3vFJ0M8sELa41pmJ0tg6+7D7977nN844NeZrCIkZpiQMYgN5BGmPDoL7bhTfZ8r8zWQiWK4v2XN+KRF47goL2/wiiOHDbDppYjS6dDZaacc7KBqFqBkuwsLM5XQSF1Y8shN5IzU1CoE6HnQB3u/cUm/GqvFzK5EnlGJZTCEKhCHELtrjrc/acjaM1JxfJUJQJ9Fjz17Ce4leXV+0XIy87GggrytHchIAEnCIIYa7xOvPSvXbjrZ5/g3t/uxVankM8QOXrxx1f24+mdNkyaOQkPTk8StsOeSOexPvSyf0ORCMIRbkzSgYYOwBcMwxMYGCp09vThkEWOyupsXJong7ulAW/VR5GRl4QJRjnCnT3Y3BtB89EW/Ia975s2HR67oQrXl3xRhAPeILP4XeBcX6XqYjt/NMk6rLp8Cv7figx4Ou040GpH1xlcYBMjgwScIAhiHKMvLsIP7qrBowuzILFbUGc+vR9tt8WLTjc3ZWjAiuUFuH56JkoMA2vZ3R4PDre6Ycw1IFMJ7Nvdi8/rLNCz4yKjFHUHTDBJJaiZPRFPsPe9KR840mJBi+P0Mdr7mm3oZv+GAkG0tFuwvymW9rH8RsvJq4+I8wEJOEEQxDgm2GfBMRegNmixeE42UqxemFm+VCKHZqjlLm4n3trSg45ABKWTCzE1QwKLbcDVVNgfQF2jCe2c2ey2Yv2xAFx9DnRyRbxOfNLgA5gVbzU5YWJ5aYXZuG1xGoLNTrgggUYlYe/NV3UCIlMPfvdGA5rEalw6uwR3LuFSGtRmL5zjbK1QohBnq9CJM0Gr0Il4gVahc4ih18kgjUbg8YX4QEpcOFWNWga5OAKfJwQPM3w1GjkUvLkVgdcbhZyJqJiJLHeNRC6FQirmhdkREJbzilm9aim/hzwYjrCrxKwMWH0Bvj6xhAmxUgoZwrC7Q4hK2HuqZJBFw3Cy9wyyaiRcGRWrgx+vD8PjBZTsfaPBEJzMoNax+rk2eP2xdnMMtJ0/ZETgZIXJ/o5xvlehkwVOEAQxZkTgcPphcQWPi2CUibnLzfKY8HnCXF4Ubv44lucNhWBnr63uIPzsvMcbhJUdHxdvDiasDleA1RuA0xviw1danDHx5k8zg83J1cnEm8uKMJF3umLHnHhzcEadg8vj35cT6RBs7LXdF+av72/D4OiNA23vTyTeF5IhBZxzLSoSD7VMghjvcNsBCYIgiMRnSAGXyiTQ0l7iuEMioQEVIh6hTidBjIQhn/hypQxJqSf6AyfGP4ZUDeSKAR91BDGekTNDIVmvRiQcopEj4qKBM7REp4+gNWyGFHCNTon8snQaRo8zCidkQKWhyOREfKBWypGfmcJ7p4pGTr9FiSDiHW59QDjo5z2wcZ3X88HQFrhCiilzi1E0MZNEPA7genM5hamYdmkZlGoScCI+0GmUqCrNQtjnRMDjYCJOzj6IxIQbYQp4nPA5zKgozoJOfX6mqIfcRtZPR5MJ2z48gua6brjsPhrmGodoDSo+tOnMJRNQPCkLYupwEXEEt5XsqZc3Yv+xLii0qZDI+6Ng0LOGSATY85j9LxIKwmvvRX6GHo/fvgQzJxeMaBj95G1kpxVwDo/Lj/bGPjhtXkRYD/l8jd0T5wa37YMbHdEnqZGRl0xrFoi4JMyeKZyIr/5wL7bXNqPP4hLOEESiwJ7TGiWqy3Nww7Ia1EzMhVw24BnvbDhrASfGJ9xoCHWmiETB7vLC6vDAP8hnN0EkCjKpBAatCikG9Tk9t0nACYIgCCIOIU9sBEEQBJEAkIATBEEQRBxCAk4QBEEQcQgJOEEQBEHEISTgBEEQBBGHkIATBEEQI8ITCGNLhx/vCWmD7fx504tGomi2BLHLHoHvnPz6RFHXG8BuRwSn26QYjoSxozuIY974cSJEAk4QBEGcNaYeL76/y4GbP7LhKiFd+5kTf2kKwiKUORfC4SjernXiP+sDMJ+Tq/ww/rHNjv9uDMIt5AyFLxjAf2x24KXe+PHLTwJOEARBnB1WL67f4sSbfWL8cEkS3hPSk/ogvrvfjdfHlQhKcO9sA35QLINGyEkUSMAJgiCIsyCEX2/34HOJGq9cokJtrQN3febBG41O/NKlxMMpEbzdGkAbP17txwOv9sHI0hU7vGgJ8BWgz+7Hl96K5Rvfc6E5ls0I4a+brchj+ZWfeNEj5MZg1wh1Xb3Lh84gELC5ceW7Zty5yY7p3Lm1Lhz0eXETez31Exf2uLnh8DBe3ePAb1tC8HBtX2/GVYdCWLPTwuoy46t1AdhPGPmPYO0uG/L/1YcZe4QGH8ePe4U2XLvbhx5hTL7D7MPt/Z9nrRutXGYwjL/usOHKHU58g9VlfM2M+2u9+OtOG8q46w+fu9dBEnCCIAhi2ARMATzvF+PZhRocrnXibzZALwnh7y1hyNJkuLNEjixvGDYfE+9X7PgnREiSAlvqPfiHOcRHnfvzVhte97Lr5CIonG5MfteNxnAUnxzx4H+YMktlIgQcHvyqWbDkwyH8+G0bjk40oHm5Hkm9rFwHE0AmvG2WEN7uDsAqAexmN6audmE7e7+mDh/+2BlCgGm4h/2fk9XP/ecNRtF9zIFH2iNQiZjIHvRgq1dQcFZ2T6Mb32M9jWkVSdhZMyi6Y9iPO16wYbUo9nk2srY+bwsjyIT69zvseNcnfB67C7PXudESjcIXiuCzo168LhVBHWHvtceJ7zQFERBF8d5uB152CnWPEBJwgiAIYtgcs4UgTVPgTrEHf+0CvjYjGYeWalGtlOCePAU0UjHkkihsXUG8HhHhy3NSUH9VCp6aIoeHs4gtHjxnl+Bhdl3tKiM+rJIj6PBhfXcIm01BODM02L7SiL2X63GNIvae3h4ffuYAssMRvNUXQpAp9/ucCc6QKSR4cFoSDrEORTYT0PICHbYvT8K96UCnJ4rIEGvS9kbk2LgqFe/PUmMq61AwLY/hY5Z5ewAHtGo8W35iwBFPdxCvMMl8dC77PFcm4xdVMlgcEQTMHrzmkuJbs5JxmH2edZUyuO1+fGyLvXFSqhqfXmvEO6y8Ui3Dj+enYPtMJesrhNDh4YuMGBJwgiAI4qzIV4nR1xFAvUKE6mQplCJAyv6bnBSFg1mzEqmECWdMPHPUTGaYyN5dqcPPSmUQeZh1LhdjKruOCx47kf0bjoZxmIkhxxS9FAp2iVwiRYmez4LFF0E0KmHvE0FvSIQ5hWo8nBcTWJVMjAINO8cfAfOz5chg1riWWfGnQpQmRRlEfGdDxcoOIMJEnRQZwRA+9wpZAlwbOAs9m312KKV4sEqHJ4tliLDP61GKMYWZ5Vx/ozJFikA4jGPOmIDnGiTI5F8BmRoxJrCUwX3A8wAJOEEQBHHWDAhkFFuZ1dook6BIFMD/7Q8grJWiQieGmAnu65ylzCzb3+yy4+7aAKJMbFOZGH7eFwRngO5l/0pFUtQYJUhnwn7YGoKPKb8/HMQhW+wd0phoilhdU7LVeLxUgVR/CEcEgTyZZFbHiGEdjasmqfBleRjfPHLi/Hc6J9ysDW8xSxyeIH6y3YZ7DwchZoKs9USwzRwCp/m7eoOsGtaZMXyxHUqJiE/nCxJwgiAIYtikMZO1rjeEzmQZ0h1B3P5uLy7Z40Ovw4NZr9rxmVyG24vlSMtS4ifJImzbb4HsNTO+dSiIFCZ2SFXiSiU3b2yB4YUezNgfhCxJgWVpEt6a1/W6kPNKL9JW27EmNkoOeZYcXxJF8fcjXjQ4Q3inM4KqrBNM5/MDa55OKcfDpXKYGtx4zhrBP3dZcOkWD9pTVfhlErBhD/s8qy34YV0IWayTIktRYokshJ9vMUPPPs/sgyFo2OdZaBDqvICQgBMEQRDDJt0ox03KIH5uVuJ/pyoxNVmBB4oVWJAuw9x0Ff6wQIe5/Hi2BA9fnoTvM6GvZumeai2+kyOFCFL8+9JkfCcrlj81V4cjV2iQw87MKlPjP0qVmMXyFxXp8LvJCpSoRZCJ5PjD7cm4yunFLUxMS8rVuMMggUgqxoQkCdJk7O3Y6yrWAcjhXotFyNZKUcqu5eJv5xikKFGJWItEyGSvp2lj0idn1no5u8bIDsUiMUrZ6yw5K1+kxBNG4NUjfoRVUpSxjodcLMHjK5PxLeHzPDBNh29lSiCXyvDE4iR8LVP4PPk67LxMjSz2vmkaKT9kzoUAVymlqNRJwL+1TIxpKVJkcG09BygeOEEQBEHEARQPnCAIgiASABJwgiAIgohDSMAJgiAIIg4hAScIgiCIOIQEnCAIgiDiEBJwgiAIgohDSMAJgiAIIg45YR+4WMxtOD9/bt4IgiAIgjg/RCIRXqf7IQucIAiCIOIQEnCCIAiCiENIwAmCIAgi7gD+PxrlgzrxoK3yAAAAAElFTkSuQmCC;" vertex="1" parent="1">
          <mxGeometry x="2150" y="380" width="496" height="440" as="geometry" />
        </mxCell>
        <mxCell id="IodC5GZJqfs01bBgJAyE-4" value="JRE" style="text;html=1;align=center;verticalAlign=middle;whiteSpace=wrap;rounded=0;fillColor=#f8cecc;strokeColor=#b85450;" vertex="1" parent="1">
          <mxGeometry x="1490" y="820" width="60" height="30" as="geometry" />
        </mxCell>
        <mxCell id="IodC5GZJqfs01bBgJAyE-5" value="JRE en un entorno necesario para ejecutar aplicaciones java, pero no para desarrollarlas. Es decir ejecutar aplicaciones java &lt;b&gt;ya desarrolladas y compiladas &lt;/b&gt;(generalmente distribuidas como archivos .jar o .class)" style="text;html=1;align=left;verticalAlign=top;whiteSpace=wrap;rounded=0;" vertex="1" parent="1">
          <mxGeometry x="1560" y="820" width="480" height="50" as="geometry" />
        </mxCell>
        <mxCell id="IodC5GZJqfs01bBgJAyE-6" value="JVM" style="text;html=1;align=center;verticalAlign=middle;whiteSpace=wrap;rounded=0;fillColor=#dae8fc;strokeColor=#6c8ebf;" vertex="1" parent="1">
          <mxGeometry x="1490" y="900" width="60" height="30" as="geometry" />
        </mxCell>
        <mxCell id="IodC5GZJqfs01bBgJAyE-7" value="La JVM (Java Virtual Machine) ejecuta el bytecode de java en el hardware subyacente.&lt;div&gt;&lt;br&gt;&lt;div&gt;&lt;span style=&quot;font-size: 12px;&quot;&gt;El compilador &lt;b&gt;(javac)&amp;nbsp;&lt;/b&gt;convierte tu código fuente (los archivos .java) en bytecode (los archivos .class). Que posteriormente son ejecutados por la JVM&lt;/span&gt;&lt;br&gt;&lt;/div&gt;&lt;/div&gt;" style="text;html=1;align=left;verticalAlign=top;whiteSpace=wrap;rounded=0;" vertex="1" parent="1">
          <mxGeometry x="1560" y="900" width="480" height="70" as="geometry" />
        </mxCell>
      </root>
    </mxGraphModel>
  </diagram>
</mxfile>
